SplineFontDB: 3.2
FontName: sepl
FullName: sepl
FamilyName: sepl
Weight: Book
Version: 0.00 October 4, 2014
ItalicAngle: 0
UnderlinePosition: -195
UnderlineWidth: 72
Ascent: 1638
Descent: 410
InvalidEm: 0
sfntRevision: 0x00000000
LayerCount: 3
Layer: 0 1 "Back" 1
Layer: 1 1 "Fore" 0
Layer: 2 0 "Back 2" 1
XUID: [1021 886 -1559393822 13791]
StyleMap: 0x0040
FSType: 0
OS2Version: 3
OS2_WeightWidthSlopeOnly: 0
OS2_UseTypoMetrics: 0
CreationTime: 1412389788
ModificationTime: 1587885049
PfmFamily: 17
TTFWeight: 400
TTFWidth: 5
LineGap: 0
VLineGap: 0
Panose: 2 0 5 6 0 0 0 2 0 4
OS2TypoAscent: 1721
OS2TypoAOffset: 0
OS2TypoDescent: -592
OS2TypoDOffset: 0
OS2TypoLinegap: 0
OS2WinAscent: 1761
OS2WinAOffset: 0
OS2WinDescent: 696
OS2WinDOffset: 0
HheadAscent: 1761
HheadAOffset: 0
HheadDescent: -696
HheadDOffset: 0
OS2SubXSize: 1434
OS2SubYSize: 1331
OS2SubXOff: 0
OS2SubYOff: 287
OS2SupXSize: 1434
OS2SupYSize: 1331
OS2SupXOff: 0
OS2SupYOff: 977
OS2StrikeYSize: 82
OS2StrikeYPos: 460
OS2CapHeight: 967
OS2XHeight: 717
OS2FamilyClass: 768
OS2Vendor: 'noom'
OS2CodePages: 00010001.00000000
OS2UnicodeRanges: 81000003.10000040.00000000.00000000
Lookup: 1 0 0 "Single Substitution lookup 0" { "Single Substitution lookup 0 subtable"  } []
Lookup: 1 0 0 "Single Substitution lookup 1" { "Single Substitution lookup 1 subtable"  } []
Lookup: 1 0 0 "Single Substitution lookup 2" { "Single Substitution lookup 2 subtable"  } []
Lookup: 1 0 0 "Single Substitution lookup 3" { "Single Substitution lookup 3 subtable"  } []
Lookup: 1 0 0 "Single Substitution lookup 4" { "Single Substitution lookup 4 subtable"  } []
Lookup: 1 0 0 "Single Substitution lookup 5" { "Single Substitution lookup 5 subtable"  } []
Lookup: 1 0 0 "Single Substitution lookup 6" { "Single Substitution lookup 6 subtable"  } []
Lookup: 1 0 0 "Single Substitution lookup 7" { "Single Substitution lookup 7 subtable"  } []
Lookup: 1 0 0 "Single Substitution lookup 8" { "Single Substitution lookup 8 subtable"  } []

StartChar: .notdef
Encoding: 65536 -1 0
Width: 1599
Flags: W
LayerCount: 3
Fore
SplineSet
100 1599 m 1,0,-1
 1499 1599 l 1,1,-1
 1499 0 l 1,2,-1
 100 0 l 1,3,-1
 100 1599 l 1,0,-1
1401 1499 m 1,4,-1
 201 1499 l 1,5,-1
 201 100 l 1,6,-1
 1401 100 l 1,7,-1
 1401 1499 l 1,4,-1
EndSplineSet
Validated: 1
EndChar

StartChar: exclam
Encoding: 33 33 4
Width: 424
GlyphClass: 2
Flags: W
LayerCount: 3
Fore
SplineSet
178 236 m 1,0,-1
 145 655 l 1,1,-1
 145 969 l 1,2,-1
 279 969 l 1,3,-1
 279 655 l 1,4,-1
 246 236 l 1,5,-1
 178 236 l 1,0,-1
145 127 m 1,6,-1
 279 127 l 1,7,-1
 279 0 l 1,8,-1
 145 0 l 1,9,-1
 145 127 l 1,6,-1
EndSplineSet
Validated: 1
EndChar

StartChar: quotedbl
Encoding: 34 34 5
Width: 307
GlyphClass: 2
Flags: W
LayerCount: 3
Fore
SplineSet
197 954 m 1,0,-1
 266 954 l 1,1,-1
 266 662 l 1,2,-1
 197 662 l 1,3,-1
 197 954 l 1,0,-1
41 954 m 1,4,-1
 113 954 l 1,5,-1
 113 662 l 1,6,-1
 41 662 l 1,7,-1
 41 954 l 1,4,-1
EndSplineSet
Validated: 1
EndChar

StartChar: numbersign
Encoding: 35 35 6
Width: 655
GlyphClass: 2
Flags: W
LayerCount: 3
Fore
SplineSet
438 406 m 1,0,-1
 596 406 l 1,1,-1
 567 330 l 1,2,-1
 412 330 l 1,3,-1
 303 0 l 1,4,-1
 225 0 l 1,5,-1
 334 330 l 1,6,-1
 211 330 l 1,7,-1
 102 0 l 1,8,-1
 25 0 l 1,9,-1
 133 330 l 1,10,-1
 -18 330 l 1,11,-1
 10 406 l 1,12,-1
 160 406 l 1,13,-1
 211 559 l 1,14,-1
 57 559 l 1,15,-1
 86 635 l 1,16,-1
 236 635 l 1,17,-1
 346 969 l 1,18,-1
 424 969 l 1,19,-1
 313 635 l 1,20,-1
 436 635 l 1,21,-1
 547 969 l 1,22,-1
 625 969 l 1,23,-1
 514 635 l 1,24,-1
 672 635 l 1,25,-1
 643 559 l 1,26,-1
 489 559 l 1,27,-1
 438 406 l 1,0,-1
360 406 m 1,28,-1
 412 559 l 1,29,-1
 289 559 l 1,30,-1
 238 406 l 1,31,-1
 360 406 l 1,28,-1
EndSplineSet
Validated: 1
EndChar

StartChar: dollar
Encoding: 36 36 7
Width: 655
GlyphClass: 2
Flags: W
LayerCount: 3
Fore
SplineSet
627 256 m 0,0,1
 627 1 627 1 356 -14 c 1,2,-1
 356 -152 l 1,3,-1
 293 -152 l 1,4,-1
 293 -14 l 1,5,6
 226 -11 226 -11 176.5 7.5 c 128,-1,7
 127 26 127 26 94 63.5 c 128,-1,8
 61 101 61 101 45 158.5 c 128,-1,9
 29 216 29 216 29 297 c 1,10,-1
 143 297 l 1,11,12
 143 235 143 235 151.5 194 c 128,-1,13
 160 153 160 153 178 128 c 128,-1,14
 196 103 196 103 224.5 91.5 c 128,-1,15
 253 80 253 80 293 78 c 1,16,-1
 293 444 l 1,17,18
 39 543 39 543 39 709 c 0,19,20
 39 826 39 826 115 895 c 0,21,22
 184 958 184 958 293 967 c 1,23,-1
 293 1100 l 1,24,-1
 356 1100 l 1,25,-1
 356 967 l 1,26,27
 466 958 466 958 530 897 c 0,28,29
 602 829 602 829 602 709 c 1,30,-1
 481 709 l 1,31,32
 481 862 481 862 356 879 c 1,33,-1
 356 537 l 1,34,35
 487 493 487 493 547 442 c 0,36,37
 627 371 627 371 627 256 c 0,0,1
293 879 m 1,38,39
 158 856 158 856 158 717 c 0,40,41
 158 605 158 605 293 559 c 1,42,-1
 293 879 l 1,38,39
510 236 m 0,43,44
 510 317 510 317 469 356 c 0,45,46
 454 372 454 372 426 387.5 c 128,-1,47
 398 403 398 403 356 420 c 1,48,-1
 356 80 l 1,49,50
 510 92 510 92 510 236 c 0,43,44
EndSplineSet
Validated: 1
EndChar

StartChar: percent
Encoding: 37 37 8
Width: 999
GlyphClass: 2
Flags: W
LayerCount: 3
Fore
SplineSet
948 231 m 0,0,1
 948 0 948 0 764 0 c 0,2,3
 582 0 582 0 582 231 c 0,4,5
 582 463 582 463 766 463 c 0,6,7
 948 463 948 463 948 231 c 0,0,1
231 -18 m 1,8,-1
 696 967 l 1,9,-1
 768 967 l 1,10,-1
 305 -18 l 1,11,-1
 231 -18 l 1,8,-1
418 717 m 0,12,13
 418 485 418 485 233 485 c 0,14,15
 51 485 51 485 51 717 c 0,16,17
 51 948 51 948 236 948 c 0,18,19
 418 948 418 948 418 717 c 0,12,13
864 227 m 0,20,21
 864 389 864 389 764 389 c 0,22,23
 666 389 666 389 666 227 c 0,24,25
 666 66 666 66 766 66 c 0,26,27
 864 66 864 66 864 227 c 0,20,21
334 713 m 0,28,29
 334 874 334 874 233 874 c 0,30,31
 135 874 135 874 135 713 c 0,32,33
 135 551 135 551 236 551 c 0,34,35
 334 551 334 551 334 713 c 0,28,29
EndSplineSet
Validated: 1
EndChar

StartChar: ampersand
Encoding: 38 38 9
Width: 889
GlyphClass: 2
Flags: W
LayerCount: 3
Fore
SplineSet
641 86 m 1,0,1
 538 -23 538 -23 403 -23 c 0,2,3
 332 -23 332 -23 274 -2.5 c 128,-1,4
 216 18 216 18 174 55 c 128,-1,5
 132 92 132 92 109 143 c 128,-1,6
 86 194 86 194 86 256 c 0,7,8
 86 356 86 356 152 434 c 0,9,10
 191 480 191 480 299 551 c 1,11,-1
 260 602 l 2,12,13
 197 683 197 683 197 780 c 0,14,15
 197 819 197 819 213.5 853.5 c 128,-1,16
 230 888 230 888 259 913.5 c 128,-1,17
 288 939 288 939 327.5 954 c 128,-1,18
 367 969 367 969 412 969 c 0,19,20
 455 969 455 969 492 955.5 c 128,-1,21
 529 942 529 942 556.5 918 c 128,-1,22
 584 894 584 894 600 860 c 128,-1,23
 616 826 616 826 616 786 c 0,24,25
 616 642 616 642 479 559 c 2,26,-1
 438 535 l 1,27,-1
 639 270 l 1,28,29
 659 321 659 321 668.5 363.5 c 128,-1,30
 678 406 678 406 678 444 c 1,31,-1
 780 444 l 1,32,33
 780 372 780 372 762 305.5 c 128,-1,34
 744 239 744 239 709 176 c 1,35,-1
 842 0 l 1,36,-1
 705 0 l 1,37,-1
 641 86 l 1,0,1
504 770 m 0,38,39
 504 818 504 818 477.5 848.5 c 128,-1,40
 451 879 451 879 408 879 c 0,41,42
 363 879 363 879 334 850 c 128,-1,43
 305 821 305 821 305 776 c 0,44,45
 305 703 305 703 383 606 c 1,46,47
 504 691 504 691 504 770 c 0,38,39
352 479 m 1,48,49
 203 381 203 381 203 258 c 0,50,51
 203 220 203 220 218 187 c 128,-1,52
 233 154 233 154 260 128.5 c 128,-1,53
 287 103 287 103 323 88.5 c 128,-1,54
 359 74 359 74 401 74 c 0,55,56
 502 74 502 74 580 170 c 1,57,-1
 352 479 l 1,48,49
EndSplineSet
Validated: 1
EndChar

StartChar: quotesingle
Encoding: 39 39 10
Width: 307
GlyphClass: 2
Flags: W
LayerCount: 3
Fore
SplineSet
117 954 m 1,0,-1
 190 954 l 1,1,-1
 190 662 l 1,2,-1
 117 662 l 1,3,-1
 117 954 l 1,0,-1
EndSplineSet
Validated: 1
EndChar

StartChar: parenleft
Encoding: 40 40 11
Width: 424
GlyphClass: 2
Flags: W
LayerCount: 3
Fore
SplineSet
303 -213 m 1,0,1
 194 -70 194 -70 139 83.5 c 128,-1,2
 84 237 84 237 84 410 c 0,3,4
 84 748 84 748 303 1032 c 1,5,-1
 373 1032 l 1,6,7
 203 760 203 760 203 410 c 0,8,9
 203 59 203 59 373 -213 c 1,10,-1
 303 -213 l 1,11,-1
 303 -213 l 1,0,1
EndSplineSet
Validated: 5
EndChar

StartChar: parenright
Encoding: 41 41 12
Width: 424
GlyphClass: 2
Flags: W
LayerCount: 3
Fore
SplineSet
336 410 m 0,0,1
 336 237 336 237 281 83.5 c 128,-1,2
 226 -70 226 -70 117 -213 c 1,3,-1
 47 -213 l 1,4,5
 217 59 217 59 217 410 c 0,6,7
 217 760 217 760 47 1032 c 1,8,-1
 117 1032 l 1,9,10
 336 748 336 748 336 410 c 0,0,1
EndSplineSet
Validated: 1
EndChar

StartChar: asterisk
Encoding: 42 42 13
Width: 655
GlyphClass: 2
Flags: W
LayerCount: 3
Fore
SplineSet
487 631 m 1,0,-1
 428 588 l 1,1,-1
 328 725 l 1,2,-1
 229 588 l 1,3,-1
 170 631 l 1,4,-1
 260 754 l 1,5,-1
 115 801 l 1,6,-1
 137 872 l 1,7,-1
 293 821 l 1,8,-1
 293 967 l 1,9,-1
 367 967 l 1,10,-1
 367 821 l 1,11,-1
 520 872 l 1,12,-1
 543 801 l 1,13,-1
 397 754 l 1,14,-1
 487 631 l 1,0,-1
EndSplineSet
Validated: 1
EndChar

StartChar: plus
Encoding: 43 43 14
Width: 688
GlyphClass: 2
Flags: W
LayerCount: 3
Fore
SplineSet
389 66 m 1,0,-1
 299 66 l 1,1,-1
 299 324 l 1,2,-1
 41 324 l 1,3,-1
 41 414 l 1,4,-1
 299 414 l 1,5,-1
 299 672 l 1,6,-1
 389 672 l 1,7,-1
 389 414 l 1,8,-1
 647 414 l 1,9,-1
 647 324 l 1,10,-1
 389 324 l 1,11,-1
 389 66 l 1,0,-1
EndSplineSet
Validated: 1
EndChar

StartChar: comma
Encoding: 44 44 15
Width: 307
GlyphClass: 2
Flags: W
LayerCount: 3
Fore
SplineSet
225 33 m 0,0,1
 225 6 225 6 217 -20.5 c 128,-1,2
 209 -47 209 -47 194 -69.5 c 128,-1,3
 179 -92 179 -92 157.5 -109 c 128,-1,4
 136 -126 136 -126 109 -135 c 1,5,-1
 94 -104 l 1,6,7
 177 -68 177 -68 174 -8 c 1,8,9
 166 -13 166 -13 159 -14.5 c 128,-1,10
 152 -16 152 -16 147 -16 c 0,11,12
 116 -16 116 -16 95 5 c 128,-1,13
 74 26 74 26 74 57 c 256,14,15
 74 88 74 88 95 109.5 c 128,-1,16
 116 131 116 131 147 131 c 0,17,18
 179 131 179 131 202 104.5 c 128,-1,19
 225 78 225 78 225 33 c 0,0,1
EndSplineSet
Validated: 33
EndChar

StartChar: hyphen
Encoding: 45 45 16
Width: 424
GlyphClass: 2
Flags: W
LayerCount: 3
Fore
SplineSet
61 414 m 1,0,-1
 362 414 l 1,1,-1
 362 324 l 1,2,-1
 61 324 l 1,3,-1
 61 414 l 1,0,-1
EndSplineSet
Validated: 1
EndChar

StartChar: period
Encoding: 46 46 17
Width: 307
GlyphClass: 2
Flags: W
LayerCount: 3
Fore
SplineSet
225 72 m 256,0,1
 225 43 225 43 204 21.5 c 128,-1,2
 183 0 183 0 154 0 c 256,3,4
 125 0 125 0 103.5 21.5 c 128,-1,5
 82 43 82 43 82 72 c 256,6,7
 82 101 82 101 103.5 122 c 128,-1,8
 125 143 125 143 154 143 c 256,9,10
 183 143 183 143 204 122 c 128,-1,11
 225 101 225 101 225 72 c 256,0,1
EndSplineSet
Validated: 1
EndChar

StartChar: slash
Encoding: 47 47 18
Width: 418
GlyphClass: 2
Flags: W
LayerCount: 3
Fore
SplineSet
-2 -35 m 1,0,-1
 338 967 l 1,1,-1
 422 967 l 1,2,-1
 82 -35 l 1,3,-1
 -2 -35 l 1,0,-1
EndSplineSet
Validated: 1
EndChar

StartChar: zero
Encoding: 48 48 19
Width: 696
GlyphClass: 2
Flags: W
LayerCount: 3
Fore
SplineSet
635 473 m 0,0,1
 635 -20 635 -20 350 -20 c 0,2,3
 61 -20 61 -20 61 473 c 0,4,5
 61 967 61 967 350 967 c 0,6,7
 635 967 635 967 635 473 c 0,0,1
510 473 m 0,8,9
 510 587 510 587 500.5 664 c 128,-1,10
 491 741 491 741 471 786 c 0,11,12
 438 866 438 866 348 866 c 0,13,14
 260 866 260 866 225 786 c 0,15,16
 186 697 186 697 186 473 c 0,17,18
 186 238 186 238 225 156 c 0,19,20
 259 80 259 80 348 80 c 0,21,22
 440 80 440 80 471 156 c 0,23,24
 491 198 491 198 500.5 276.5 c 128,-1,25
 510 355 510 355 510 473 c 0,8,9
EndSplineSet
Validated: 1
EndChar

StartChar: one
Encoding: 49 49 20
Width: 696
GlyphClass: 2
Flags: W
LayerCount: 3
Fore
SplineSet
328 705 m 1,0,-1
 104 705 l 1,1,-1
 104 791 l 1,2,3
 336 791 336 791 336 969 c 1,4,-1
 440 969 l 1,5,-1
 440 0 l 1,6,-1
 328 0 l 1,7,-1
 328 705 l 1,0,-1
EndSplineSet
Validated: 1
EndChar

StartChar: two
Encoding: 50 50 21
Width: 696
GlyphClass: 2
Flags: W
LayerCount: 3
Fore
SplineSet
59 0 m 1,0,1
 50 170 50 170 162 291 c 1,2,-1
 375 469 l 1,3,4
 489 571 489 571 489 698 c 0,5,6
 489 868 489 868 344 868 c 0,7,8
 258 868 258 868 222 812 c 128,-1,9
 186 756 186 756 186 635 c 1,10,-1
 68 635 l 1,11,12
 68 969 68 969 344 969 c 0,13,14
 402 969 402 969 451 951 c 128,-1,15
 500 933 500 933 536 898.5 c 128,-1,16
 572 864 572 864 592 814 c 128,-1,17
 612 764 612 764 612 700 c 0,18,19
 612 563 612 563 502 444 c 0,20,21
 500 442 500 442 450 398.5 c 128,-1,22
 400 355 400 355 297 270 c 0,23,24
 187 178 187 178 184 96 c 1,25,-1
 621 96 l 1,26,-1
 621 0 l 1,27,-1
 59 0 l 1,28,-1
 59 0 l 1,0,1
EndSplineSet
Validated: 37
EndChar

StartChar: three
Encoding: 51 51 22
Width: 696
GlyphClass: 2
Flags: W
LayerCount: 3
Fore
SplineSet
629 283 m 0,0,1
 629 145 629 145 559 66 c 0,2,3
 482 -20 482 -20 334 -20 c 0,4,5
 53 -20 53 -20 53 285 c 1,6,-1
 168 285 l 1,7,8
 168 78 168 78 334 78 c 0,9,10
 376 78 376 78 408.5 91 c 128,-1,11
 441 104 441 104 463 126.5 c 128,-1,12
 485 149 485 149 496.5 180.5 c 128,-1,13
 508 212 508 212 508 250 c 0,14,15
 508 307 508 307 495 345.5 c 128,-1,16
 482 384 482 384 452.5 407 c 128,-1,17
 423 430 423 430 375.5 439.5 c 128,-1,18
 328 449 328 449 260 449 c 1,19,-1
 260 545 l 1,20,21
 368 545 368 545 414 571 c 0,22,23
 475 608 475 608 475 713 c 0,24,25
 475 868 475 868 338 868 c 0,26,27
 295 868 295 868 265.5 857.5 c 128,-1,28
 236 847 236 847 218 824.5 c 128,-1,29
 200 802 200 802 192 766.5 c 128,-1,30
 184 731 184 731 184 682 c 1,31,-1
 72 682 l 1,32,33
 72 967 72 967 332 967 c 0,34,35
 393 967 393 967 442.5 949 c 128,-1,36
 492 931 492 931 526.5 899 c 128,-1,37
 561 867 561 867 579.5 823 c 128,-1,38
 598 779 598 779 598 727 c 0,39,40
 598 646 598 646 558.5 587.5 c 128,-1,41
 519 529 519 529 446 510 c 1,42,43
 629 469 629 469 629 283 c 0,0,1
EndSplineSet
Validated: 1
EndChar

StartChar: four
Encoding: 52 52 23
Width: 696
GlyphClass: 2
Flags: W
LayerCount: 3
Fore
SplineSet
537 0 m 1,0,-1
 418 0 l 1,1,-1
 418 244 l 1,2,-1
 39 244 l 1,3,-1
 39 342 l 1,4,-1
 428 967 l 1,5,-1
 535 967 l 1,6,-1
 535 338 l 1,7,-1
 627 338 l 1,8,-1
 627 240 l 1,9,-1
 537 240 l 1,10,-1
 537 0 l 1,0,-1
150 340 m 1,11,-1
 418 340 l 1,12,-1
 418 774 l 1,13,-1
 150 340 l 1,11,-1
EndSplineSet
Validated: 1
EndChar

StartChar: five
Encoding: 53 53 24
Width: 696
GlyphClass: 2
Flags: W
LayerCount: 3
Fore
SplineSet
621 311 m 0,0,1
 621 237 621 237 600.5 176 c 128,-1,2
 580 115 580 115 543 72 c 128,-1,3
 506 29 506 29 453 5.5 c 128,-1,4
 400 -18 400 -18 336 -18 c 0,5,6
 213 -18 213 -18 139 47 c 0,7,8
 97 82 97 82 76 134.5 c 128,-1,9
 55 187 55 187 57 256 c 1,10,-1
 176 256 l 1,11,12
 176 76 176 76 332 76 c 0,13,14
 414 76 414 76 461 145 c 0,15,16
 504 210 504 210 504 311 c 0,17,18
 504 404 504 404 467 465 c 0,19,20
 423 539 423 539 340 539 c 0,21,22
 222 539 222 539 182 451 c 1,23,-1
 82 451 l 1,24,-1
 139 948 l 1,25,-1
 582 948 l 1,26,-1
 582 852 l 1,27,-1
 231 852 l 1,28,-1
 199 569 l 1,29,30
 264 637 264 637 365 637 c 0,31,32
 425 637 425 637 472.5 614 c 128,-1,33
 520 591 520 591 553 548.5 c 128,-1,34
 586 506 586 506 603.5 446 c 128,-1,35
 621 386 621 386 621 311 c 0,0,1
EndSplineSet
Validated: 33
EndChar

StartChar: six
Encoding: 54 54 25
Width: 696
GlyphClass: 2
Flags: W
LayerCount: 3
Fore
SplineSet
641 322 m 0,0,1
 641 180 641 180 571 86 c 0,2,3
 494 -18 494 -18 352 -18 c 0,4,5
 180 -18 180 -18 109 131 c 0,6,7
 83 188 83 188 69 275.5 c 128,-1,8
 55 363 55 363 55 481 c 0,9,10
 55 590 55 590 73.5 675 c 128,-1,11
 92 760 92 760 127 823 c 0,12,13
 206 967 206 967 367 967 c 0,14,15
 483 967 483 967 553 897 c 0,16,17
 614 833 614 833 614 737 c 1,18,-1
 500 737 l 1,19,20
 500 870 500 870 365 870 c 0,21,22
 170 870 170 870 170 498 c 1,23,24
 234 612 234 612 373 612 c 0,25,26
 431 612 431 612 480.5 591 c 128,-1,27
 530 570 530 570 565.5 532 c 128,-1,28
 601 494 601 494 621 440.5 c 128,-1,29
 641 387 641 387 641 322 c 0,0,1
520 299 m 0,30,31
 520 520 520 520 354 520 c 256,32,33
 188 520 188 520 188 299 c 256,34,35
 188 78 188 78 354 78 c 0,36,37
 429 78 429 78 474.5 135.5 c 128,-1,38
 520 193 520 193 520 299 c 0,30,31
EndSplineSet
Validated: 1
EndChar

StartChar: seven
Encoding: 55 55 26
Width: 696
GlyphClass: 2
Flags: W
LayerCount: 3
Fore
SplineSet
635 856 m 1,0,1
 472 669 472 669 377 408 c 0,2,3
 335 293 335 293 314 192 c 128,-1,4
 293 91 293 91 293 0 c 1,5,-1
 160 0 l 1,6,7
 160 166 160 166 258 412 c 0,8,9
 312 547 312 547 377.5 655.5 c 128,-1,10
 443 764 443 764 524 852 c 1,11,-1
 61 852 l 1,12,-1
 61 948 l 1,13,-1
 635 948 l 1,14,-1
 635 856 l 1,15,-1
 635 856 l 1,0,1
EndSplineSet
Validated: 5
EndChar

StartChar: eight
Encoding: 56 56 27
Width: 696
GlyphClass: 2
Flags: W
LayerCount: 3
Fore
SplineSet
631 274 m 0,0,1
 631 206 631 206 609 151.5 c 128,-1,2
 587 97 587 97 548.5 59 c 128,-1,3
 510 21 510 21 457 0.5 c 128,-1,4
 404 -20 404 -20 342 -20 c 256,5,6
 280 -20 280 -20 228 0.5 c 128,-1,7
 176 21 176 21 139 59 c 128,-1,8
 102 97 102 97 81.5 151.5 c 128,-1,9
 61 206 61 206 61 274 c 0,10,11
 61 322 61 322 76 364.5 c 128,-1,12
 91 407 91 407 117 440 c 128,-1,13
 143 473 143 473 179.5 495.5 c 128,-1,14
 216 518 216 518 258 526 c 1,15,16
 177 538 177 538 134.5 593 c 128,-1,17
 92 648 92 648 92 729 c 0,18,19
 92 841 92 841 168 905 c 0,20,21
 240 965 240 965 346 965 c 256,22,23
 452 965 452 965 524 905 c 0,24,25
 600 841 600 841 600 729 c 0,26,27
 600 648 600 648 557.5 593 c 128,-1,28
 515 538 515 538 434 526 c 1,29,30
 476 518 476 518 512.5 495.5 c 128,-1,31
 549 473 549 473 575 440 c 128,-1,32
 601 407 601 407 616 364.5 c 128,-1,33
 631 322 631 322 631 274 c 0,0,1
487 719 m 256,34,35
 487 791 487 791 448 830.5 c 128,-1,36
 409 870 409 870 352 870 c 256,37,38
 295 870 295 870 256 830.5 c 128,-1,39
 217 791 217 791 217 719 c 256,40,41
 217 647 217 647 256 607 c 128,-1,42
 295 567 295 567 352 567 c 256,43,44
 409 567 409 567 448 607 c 128,-1,45
 487 647 487 647 487 719 c 256,34,35
524 270 m 0,46,47
 524 318 524 318 511 355.5 c 128,-1,48
 498 393 498 393 475 418 c 128,-1,49
 452 443 452 443 420 456 c 128,-1,50
 388 469 388 469 350 469 c 0,51,52
 275 469 275 469 227.5 417.5 c 128,-1,53
 180 366 180 366 180 272 c 0,54,55
 180 229 180 229 193.5 193 c 128,-1,56
 207 157 207 157 231 130.5 c 128,-1,57
 255 104 255 104 286.5 89 c 128,-1,58
 318 74 318 74 354 74 c 0,59,60
 391 74 391 74 422.5 88.5 c 128,-1,61
 454 103 454 103 476.5 129 c 128,-1,62
 499 155 499 155 511.5 191 c 128,-1,63
 524 227 524 227 524 270 c 0,46,47
EndSplineSet
Validated: 1
EndChar

StartChar: nine
Encoding: 57 57 28
Width: 696
GlyphClass: 2
Flags: W
LayerCount: 3
Fore
SplineSet
641 467 m 0,0,1
 641 358 641 358 622.5 273 c 128,-1,2
 604 188 604 188 569 125 c 0,3,4
 489 -18 489 -18 330 -18 c 0,5,6
 271 -18 271 -18 225 0 c 128,-1,7
 179 18 179 18 147.5 49.5 c 128,-1,8
 116 81 116 81 99 122.5 c 128,-1,9
 82 164 82 164 82 211 c 1,10,-1
 197 211 l 1,11,12
 197 78 197 78 332 78 c 0,13,14
 526 78 526 78 526 451 c 1,15,16
 462 336 462 336 324 336 c 0,17,18
 265 336 265 336 215.5 357 c 128,-1,19
 166 378 166 378 130.5 416 c 128,-1,20
 95 454 95 454 75 508 c 128,-1,21
 55 562 55 562 55 627 c 0,22,23
 55 768 55 768 125 862 c 0,24,25
 201 967 201 967 344 967 c 0,26,27
 517 967 517 967 588 817 c 0,28,29
 641 700 641 700 641 467 c 0,0,1
508 649 m 256,30,31
 508 870 508 870 342 870 c 0,32,33
 268 870 268 870 225 815 c 0,34,35
 176 756 176 756 176 649 c 0,36,37
 176 428 176 428 342 428 c 256,38,39
 508 428 508 428 508 649 c 256,30,31
EndSplineSet
Validated: 1
EndChar

StartChar: colon
Encoding: 58 58 29
Width: 307
GlyphClass: 2
Flags: W
LayerCount: 3
Fore
SplineSet
225 584 m 256,0,1
 225 555 225 555 204 533.5 c 128,-1,2
 183 512 183 512 154 512 c 256,3,4
 125 512 125 512 103.5 533.5 c 128,-1,5
 82 555 82 555 82 584 c 256,6,7
 82 613 82 613 103.5 634 c 128,-1,8
 125 655 125 655 154 655 c 256,9,10
 183 655 183 655 204 634 c 128,-1,11
 225 613 225 613 225 584 c 256,0,1
225 72 m 256,12,13
 225 43 225 43 204 21.5 c 128,-1,14
 183 0 183 0 154 0 c 256,15,16
 125 0 125 0 103.5 21.5 c 128,-1,17
 82 43 82 43 82 72 c 256,18,19
 82 101 82 101 103.5 122 c 128,-1,20
 125 143 125 143 154 143 c 256,21,22
 183 143 183 143 204 122 c 128,-1,23
 225 101 225 101 225 72 c 256,12,13
EndSplineSet
Validated: 1
EndChar

StartChar: semicolon
Encoding: 59 59 30
Width: 307
GlyphClass: 2
Flags: W
LayerCount: 3
Fore
SplineSet
217 584 m 256,0,1
 217 555 217 555 195.5 533.5 c 128,-1,2
 174 512 174 512 145 512 c 256,3,4
 116 512 116 512 95 533.5 c 128,-1,5
 74 555 74 555 74 584 c 256,6,7
 74 613 74 613 95 634 c 128,-1,8
 116 655 116 655 145 655 c 256,9,10
 174 655 174 655 195.5 634 c 128,-1,11
 217 613 217 613 217 584 c 256,0,1
225 33 m 0,12,13
 225 6 225 6 217 -20.5 c 128,-1,14
 209 -47 209 -47 194 -69.5 c 128,-1,15
 179 -92 179 -92 157.5 -109 c 128,-1,16
 136 -126 136 -126 109 -135 c 1,17,-1
 94 -104 l 1,18,19
 177 -68 177 -68 174 -8 c 1,20,21
 166 -13 166 -13 159 -14.5 c 128,-1,22
 152 -16 152 -16 147 -16 c 0,23,24
 116 -16 116 -16 95 5 c 128,-1,25
 74 26 74 26 74 57 c 256,26,27
 74 88 74 88 95 109.5 c 128,-1,28
 116 131 116 131 147 131 c 0,29,30
 179 131 179 131 202 104.5 c 128,-1,31
 225 78 225 78 225 33 c 0,12,13
EndSplineSet
Validated: 33
EndChar

StartChar: less
Encoding: 60 60 31
Width: 696
GlyphClass: 2
Flags: W
LayerCount: 3
Fore
SplineSet
82 410 m 1,0,-1
 621 709 l 1,1,-1
 621 614 l 1,2,-1
 184 369 l 1,3,-1
 621 123 l 1,4,-1
 621 29 l 1,5,-1
 82 328 l 1,6,-1
 82 410 l 1,0,-1
EndSplineSet
Validated: 1
EndChar

StartChar: equal
Encoding: 61 61 32
Width: 686
GlyphClass: 2
Flags: W
LayerCount: 3
Fore
SplineSet
41 537 m 1,0,-1
 645 537 l 1,1,-1
 645 446 l 1,2,-1
 41 446 l 1,3,-1
 41 537 l 1,0,-1
41 291 m 1,4,-1
 645 291 l 1,5,-1
 645 201 l 1,6,-1
 41 201 l 1,7,-1
 41 291 l 1,4,-1
EndSplineSet
Validated: 1
EndChar

StartChar: greater
Encoding: 62 62 33
Width: 696
GlyphClass: 2
Flags: W
LayerCount: 3
Fore
SplineSet
82 123 m 1,0,-1
 520 369 l 1,1,-1
 82 614 l 1,2,-1
 82 709 l 1,3,-1
 621 410 l 1,4,-1
 621 328 l 1,5,-1
 82 29 l 1,6,-1
 82 123 l 1,0,-1
EndSplineSet
Validated: 1
EndChar

StartChar: question
Encoding: 63 63 34
Width: 672
GlyphClass: 2
Flags: W
LayerCount: 3
Fore
SplineSet
612 723 m 0,0,1
 612 622 612 622 551 537 c 0,2,3
 523 503 523 503 495 469 c 128,-1,4
 467 435 467 435 438 401 c 1,5,6
 410 359 410 359 399 315.5 c 128,-1,7
 388 272 388 272 393 221 c 1,8,-1
 270 221 l 1,9,10
 264 345 264 345 319 434 c 1,11,-1
 426 567 l 2,12,13
 483 639 483 639 483 721 c 0,14,15
 483 877 483 877 326 877 c 0,16,17
 170 877 170 877 170 666 c 1,18,-1
 51 666 l 1,19,20
 51 734 51 734 69 790 c 128,-1,21
 87 846 87 846 122 885.5 c 128,-1,22
 157 925 157 925 209 947 c 128,-1,23
 261 969 261 969 330 969 c 0,24,25
 392 969 392 969 444 951 c 128,-1,26
 496 933 496 933 533.5 900.5 c 128,-1,27
 571 868 571 868 591.5 822.5 c 128,-1,28
 612 777 612 777 612 723 c 0,0,1
412 68 m 256,29,30
 412 36 412 36 389 13 c 128,-1,31
 366 -10 366 -10 334 -10 c 256,32,33
 302 -10 302 -10 279 13 c 128,-1,34
 256 36 256 36 256 68 c 256,35,36
 256 100 256 100 279 122.5 c 128,-1,37
 302 145 302 145 334 145 c 256,38,39
 366 145 366 145 389 122.5 c 128,-1,40
 412 100 412 100 412 68 c 256,29,30
EndSplineSet
Validated: 33
EndChar

StartChar: at
Encoding: 64 64 35
Width: 1032
GlyphClass: 2
Flags: W
LayerCount: 3
Fore
SplineSet
985 549 m 0,0,1
 985 419 985 419 893 297 c 0,2,3
 801 178 801 178 682 178 c 0,4,5
 596 178 596 178 567 246 c 1,6,7
 501 180 501 180 412 180 c 0,8,9
 370 180 370 180 336 194.5 c 128,-1,10
 302 209 302 209 279 236 c 128,-1,11
 256 263 256 263 243.5 300.5 c 128,-1,12
 231 338 231 338 231 383 c 0,13,14
 231 454 231 454 266 532 c 0,15,16
 371 768 371 768 555 768 c 0,17,18
 652 768 652 768 705 682 c 1,19,-1
 725 743 l 1,20,-1
 809 743 l 1,21,-1
 668 326 l 2,22,23
 659 297 659 297 659 281 c 0,24,25
 659 246 659 246 690 246 c 0,26,27
 778 246 778 246 848 346 c 0,28,29
 883 397 883 397 901.5 449 c 128,-1,30
 920 501 920 501 920 555 c 0,31,32
 920 708 920 708 809 807 c 0,33,34
 696 905 696 905 539 905 c 0,35,36
 365 905 365 905 238 778 c 0,37,38
 113 653 113 653 113 475 c 0,39,40
 113 293 113 293 238 168 c 256,41,42
 363 43 363 43 541 43 c 0,43,44
 654 43 654 43 748 98 c 0,45,46
 833 150 833 150 885 227 c 1,47,-1
 961 227 l 1,48,49
 932 173 932 173 891.5 130 c 128,-1,50
 851 87 851 87 797 55 c 0,51,52
 682 -18 682 -18 539 -18 c 0,53,54
 335 -18 335 -18 190 125 c 0,55,56
 47 268 47 268 47 477 c 0,57,58
 47 679 47 679 188 823 c 0,59,60
 332 967 332 967 535 967 c 0,61,62
 725 967 725 967 854 850 c 0,63,64
 985 734 985 734 985 549 c 0,0,1
614 459 m 0,65,66
 645 536 645 536 645 596 c 0,67,68
 645 692 645 692 559 692 c 0,69,70
 440 692 440 692 356 508 c 0,71,72
 332 449 332 449 332 391 c 0,73,74
 332 254 332 254 426 254 c 0,75,76
 535 254 535 254 614 459 c 0,65,66
EndSplineSet
Validated: 1
EndChar

StartChar: A
Encoding: 65 65 36
Width: 733
GlyphClass: 2
Flags: W
LayerCount: 3
Fore
SplineSet
528 281 m 1,0,-1
 203 281 l 1,1,-1
 123 0 l 1,2,-1
 0 0 l 1,3,-1
 293 967 l 1,4,-1
 449 967 l 1,5,-1
 743 0 l 1,6,-1
 612 0 l 1,7,-1
 528 281 l 1,0,-1
225 373 m 1,8,-1
 506 373 l 1,9,-1
 369 893 l 1,10,-1
 225 373 l 1,8,-1
EndSplineSet
Validated: 1
EndChar

StartChar: B
Encoding: 66 66 37
Width: 733
GlyphClass: 2
Flags: W
LayerCount: 3
Fore
SplineSet
680 289 m 0,0,1
 680 0 680 0 369 0 c 2,2,-1
 90 0 l 1,3,-1
 90 967 l 1,4,-1
 389 967 l 2,5,6
 505 967 505 967 575 909 c 0,7,8
 657 846 657 846 657 723 c 0,9,10
 657 562 657 562 498 510 c 1,11,12
 577 504 577 504 627 451 c 0,13,14
 680 392 680 392 680 289 c 0,0,1
532 717 m 0,15,16
 532 798 532 798 486 834 c 128,-1,17
 440 870 440 870 330 870 c 2,18,-1
 207 870 l 1,19,-1
 207 553 l 1,20,-1
 328 553 l 2,21,22
 532 553 532 553 532 717 c 0,15,16
563 274 m 0,23,24
 563 326 563 326 549 361 c 128,-1,25
 535 396 535 396 506.5 417.5 c 128,-1,26
 478 439 478 439 435 448 c 128,-1,27
 392 457 392 457 334 457 c 2,28,-1
 207 457 l 1,29,-1
 207 96 l 1,30,-1
 383 96 l 2,31,32
 563 96 563 96 563 274 c 0,23,24
EndSplineSet
Validated: 1
EndChar

StartChar: C
Encoding: 67 67 38
Width: 733
GlyphClass: 2
Flags: W
LayerCount: 3
Fore
SplineSet
682 350 m 1,0,1
 682 261 682 261 661.5 191.5 c 128,-1,2
 641 122 641 122 602.5 74.5 c 128,-1,3
 564 27 564 27 509.5 2 c 128,-1,4
 455 -23 455 -23 387 -23 c 0,5,6
 196 -23 196 -23 117 127 c 0,7,8
 53 246 53 246 53 498 c 0,9,10
 53 989 53 989 391 989 c 0,11,12
 455 989 455 989 508.5 965.5 c 128,-1,13
 562 942 562 942 600 900.5 c 128,-1,14
 638 859 638 859 659 801.5 c 128,-1,15
 680 744 680 744 680 676 c 1,16,-1
 565 676 l 1,17,18
 565 725 565 725 552.5 765 c 128,-1,19
 540 805 540 805 517 833 c 128,-1,20
 494 861 494 861 461 876 c 128,-1,21
 428 891 428 891 387 891 c 0,22,23
 174 891 174 891 174 500 c 0,24,25
 174 312 174 312 203 219 c 0,26,27
 248 76 248 76 377 76 c 0,28,29
 423 76 423 76 458 95.5 c 128,-1,30
 493 115 493 115 517 151 c 128,-1,31
 541 187 541 187 553 237.5 c 128,-1,32
 565 288 565 288 565 350 c 1,33,-1
 682 350 l 1,34,-1
 682 350 l 1,0,1
EndSplineSet
Validated: 5
EndChar

StartChar: D
Encoding: 68 68 39
Width: 811
GlyphClass: 2
Flags: W
LayerCount: 3
Fore
SplineSet
743 518 m 0,0,1
 743 280 743 280 664 147 c 0,2,3
 577 0 577 0 403 0 c 2,4,-1
 94 0 l 1,5,-1
 94 967 l 1,6,-1
 381 967 l 2,7,8
 743 967 743 967 743 518 c 0,0,1
625 514 m 0,9,10
 625 870 625 870 387 870 c 2,11,-1
 209 870 l 1,12,-1
 209 96 l 1,13,-1
 385 96 l 2,14,15
 520 96 520 96 575 205 c 0,16,17
 625 300 625 300 625 514 c 0,9,10
EndSplineSet
Validated: 1
EndChar

StartChar: E
Encoding: 69 69 40
Width: 645
GlyphClass: 2
Flags: W
LayerCount: 3
Fore
SplineSet
84 967 m 1,0,-1
 596 967 l 1,1,-1
 596 870 l 1,2,-1
 199 870 l 1,3,-1
 199 551 l 1,4,-1
 571 551 l 1,5,-1
 571 455 l 1,6,-1
 199 455 l 1,7,-1
 199 96 l 1,8,-1
 598 96 l 1,9,-1
 598 0 l 1,10,-1
 84 0 l 1,11,-1
 84 967 l 1,0,-1
EndSplineSet
Validated: 1
EndChar

StartChar: F
Encoding: 70 70 41
Width: 567
GlyphClass: 2
Flags: W
LayerCount: 3
Fore
SplineSet
199 553 m 1,0,-1
 535 553 l 1,1,-1
 535 457 l 1,2,-1
 199 457 l 1,3,-1
 199 0 l 1,4,-1
 84 0 l 1,5,-1
 84 967 l 1,6,-1
 561 967 l 1,7,-1
 561 870 l 1,8,-1
 199 870 l 1,9,-1
 199 553 l 1,0,-1
EndSplineSet
Validated: 1
EndChar

StartChar: G
Encoding: 71 71 42
Width: 811
GlyphClass: 2
Flags: W
LayerCount: 3
Fore
SplineSet
633 141 m 1,0,1
 562 -23 562 -23 387 -23 c 0,2,3
 196 -23 196 -23 117 127 c 0,4,5
 53 246 53 246 53 498 c 0,6,7
 53 989 53 989 403 989 c 0,8,9
 477 989 477 989 534.5 968 c 128,-1,10
 592 947 592 947 631 907.5 c 128,-1,11
 670 868 670 868 690.5 812 c 128,-1,12
 711 756 711 756 711 686 c 1,13,-1
 596 686 l 1,14,15
 596 891 596 891 399 891 c 0,16,17
 174 891 174 891 174 500 c 0,18,19
 174 312 174 312 203 219 c 0,20,21
 248 76 248 76 377 76 c 0,22,23
 503 76 503 76 557 164 c 0,24,25
 603 240 603 240 606 401 c 1,26,-1
 375 401 l 1,27,-1
 375 496 l 1,28,-1
 723 496 l 1,29,-1
 723 -8 l 1,30,-1
 633 -8 l 1,31,-1
 633 141 l 1,0,1
EndSplineSet
Validated: 1
EndChar

StartChar: H
Encoding: 72 72 43
Width: 801
GlyphClass: 2
Flags: W
LayerCount: 3
Fore
SplineSet
596 467 m 1,0,-1
 205 467 l 1,1,-1
 205 0 l 1,2,-1
 90 0 l 1,3,-1
 90 967 l 1,4,-1
 205 967 l 1,5,-1
 205 563 l 1,6,-1
 596 563 l 1,7,-1
 596 967 l 1,8,-1
 711 967 l 1,9,-1
 711 0 l 1,10,-1
 596 0 l 1,11,-1
 596 467 l 1,0,-1
EndSplineSet
Validated: 1
EndChar

StartChar: I
Encoding: 73 73 44
Width: 346
GlyphClass: 2
Flags: W
LayerCount: 3
Fore
SplineSet
117 967 m 1,0,-1
 231 967 l 1,1,-1
 231 0 l 1,2,-1
 117 0 l 1,3,-1
 117 967 l 1,0,-1
EndSplineSet
Validated: 1
EndChar

StartChar: J
Encoding: 74 74 45
Width: 578
GlyphClass: 2
Flags: W
LayerCount: 3
Fore
SplineSet
494 254 m 1,0,1
 494 -20 494 -20 250 -20 c 0,2,3
 10 -20 10 -20 10 262 c 2,4,-1
 10 303 l 1,5,-1
 125 303 l 1,6,-1
 125 240 l 2,7,8
 125 76 125 76 248 76 c 0,9,10
 377 76 377 76 377 244 c 2,11,-1
 377 967 l 1,12,-1
 494 967 l 1,13,-1
 494 254 l 1,14,-1
 494 254 l 1,0,1
EndSplineSet
Validated: 5
EndChar

StartChar: K
Encoding: 75 75 46
Width: 733
GlyphClass: 2
Flags: W
LayerCount: 3
Fore
SplineSet
315 467 m 1,0,-1
 207 336 l 1,1,-1
 207 0 l 1,2,-1
 90 0 l 1,3,-1
 90 967 l 1,4,-1
 205 967 l 1,5,-1
 205 473 l 1,6,-1
 584 967 l 1,7,-1
 725 967 l 1,8,-1
 401 563 l 1,9,-1
 733 0 l 1,10,-1
 594 0 l 1,11,-1
 315 467 l 1,0,-1
EndSplineSet
Validated: 1
EndChar

StartChar: L
Encoding: 76 76 47
Width: 635
GlyphClass: 2
Flags: W
LayerCount: 3
Fore
SplineSet
94 967 m 1,0,-1
 211 967 l 1,1,-1
 211 96 l 1,2,-1
 616 96 l 1,3,-1
 616 0 l 1,4,-1
 94 0 l 1,5,-1
 94 967 l 1,0,-1
EndSplineSet
Validated: 1
EndChar

StartChar: M
Encoding: 77 77 48
Width: 1042
GlyphClass: 2
Flags: W
LayerCount: 3
Fore
SplineSet
842 920 m 1,0,-1
 588 0 l 1,1,-1
 453 0 l 1,2,-1
 201 918 l 1,3,-1
 201 0 l 1,4,-1
 86 0 l 1,5,-1
 86 967 l 1,6,-1
 291 967 l 1,7,-1
 508 170 l 1,8,-1
 518 70 l 1,9,-1
 532 170 l 1,10,-1
 754 967 l 1,11,-1
 956 967 l 1,12,-1
 956 0 l 1,13,-1
 842 0 l 1,14,-1
 842 920 l 1,0,-1
EndSplineSet
Validated: 1
EndChar

StartChar: N
Encoding: 78 78 49
Width: 811
GlyphClass: 2
Flags: W
LayerCount: 3
Fore
SplineSet
217 844 m 1,0,-1
 201 915 l 1,1,-1
 201 0 l 1,2,-1
 88 0 l 1,3,-1
 88 967 l 1,4,-1
 274 967 l 1,5,-1
 610 68 l 1,6,-1
 610 967 l 1,7,-1
 725 967 l 1,8,-1
 725 0 l 1,9,-1
 535 0 l 1,10,-1
 217 844 l 1,0,-1
EndSplineSet
Validated: 1
EndChar

StartChar: O
Encoding: 79 79 50
Width: 811
GlyphClass: 2
Flags: W
LayerCount: 3
Fore
SplineSet
754 481 m 0,0,1
 754 212 754 212 664 88 c 0,2,3
 581 -25 581 -25 408 -25 c 256,4,5
 235 -25 235 -25 152 88 c 0,6,7
 59 211 59 211 59 481 c 0,8,9
 59 740 59 740 142.5 863.5 c 128,-1,10
 226 987 226 987 406 987 c 0,11,12
 585 987 585 987 669.5 863.5 c 128,-1,13
 754 740 754 740 754 481 c 0,0,1
633 481 m 0,14,15
 633 889 633 889 406 889 c 0,16,17
 180 889 180 889 180 481 c 0,18,19
 180 247 180 247 238 156 c 0,20,21
 262 114 262 114 305 94 c 128,-1,22
 348 74 348 74 408 74 c 0,23,24
 527 74 527 74 578 156 c 0,25,26
 633 245 633 245 633 481 c 0,14,15
EndSplineSet
Validated: 1
EndChar

StartChar: P
Encoding: 80 80 51
Width: 733
GlyphClass: 2
Flags: W
LayerCount: 3
Fore
SplineSet
700 696 m 0,0,1
 700 410 700 410 369 410 c 2,2,-1
 213 410 l 1,3,-1
 213 0 l 1,4,-1
 98 0 l 1,5,-1
 98 967 l 1,6,-1
 387 967 l 2,7,8
 700 967 700 967 700 696 c 0,0,1
586 688 m 0,9,10
 586 870 586 870 342 870 c 2,11,-1
 213 870 l 1,12,-1
 213 508 l 1,13,-1
 330 508 l 2,14,15
 586 508 586 508 586 688 c 0,9,10
EndSplineSet
Validated: 1
EndChar

StartChar: Q
Encoding: 81 81 52
Width: 811
GlyphClass: 2
Flags: W
LayerCount: 3
Fore
SplineSet
623 43 m 1,0,1
 537 -25 537 -25 408 -25 c 0,2,3
 235 -25 235 -25 152 88 c 0,4,5
 59 211 59 211 59 481 c 0,6,7
 59 740 59 740 142.5 863.5 c 128,-1,8
 226 987 226 987 406 987 c 0,9,10
 585 987 585 987 669.5 863.5 c 128,-1,11
 754 740 754 740 754 481 c 0,12,13
 754 232 754 232 678 111 c 1,14,-1
 791 20 l 1,15,-1
 733 -47 l 1,16,-1
 623 43 l 1,0,1
633 481 m 0,17,18
 633 889 633 889 406 889 c 0,19,20
 180 889 180 889 180 481 c 0,21,22
 180 247 180 247 238 156 c 0,23,24
 262 114 262 114 305 94 c 128,-1,25
 348 74 348 74 408 74 c 0,26,27
 490 74 490 74 539 111 c 1,28,-1
 438 190 l 1,29,-1
 496 258 l 1,30,-1
 590 182 l 1,31,32
 633 275 633 275 633 481 c 0,17,18
EndSplineSet
Validated: 1
EndChar

StartChar: R
Encoding: 82 82 53
Width: 811
GlyphClass: 2
Flags: W
LayerCount: 3
Fore
SplineSet
449 428 m 1,0,1
 442 426 442 426 432 426 c 128,-1,2
 422 426 422 426 408 426 c 2,3,-1
 213 426 l 1,4,-1
 213 0 l 1,5,-1
 98 0 l 1,6,-1
 98 967 l 1,7,-1
 401 967 l 2,8,9
 723 967 723 967 723 705 c 0,10,11
 723 530 723 530 561 457 c 1,12,-1
 754 0 l 1,13,-1
 629 0 l 1,14,-1
 449 428 l 1,0,1
598 702 m 0,15,16
 598 870 598 870 387 870 c 2,17,-1
 213 870 l 1,18,-1
 213 522 l 1,19,-1
 397 522 l 2,20,21
 598 522 598 522 598 702 c 0,15,16
EndSplineSet
Validated: 1
EndChar

StartChar: S
Encoding: 83 83 54
Width: 733
GlyphClass: 2
Flags: W
LayerCount: 3
Fore
SplineSet
680 258 m 0,0,1
 680 194 680 194 657.5 142 c 128,-1,2
 635 90 635 90 593.5 53 c 128,-1,3
 552 16 552 16 492.5 -4.5 c 128,-1,4
 433 -25 433 -25 358 -25 c 0,5,6
 285 -25 285 -25 228 -5.5 c 128,-1,7
 171 14 171 14 131.5 50.5 c 128,-1,8
 92 87 92 87 71.5 139 c 128,-1,9
 51 191 51 191 51 256 c 2,10,-1
 51 305 l 1,11,-1
 166 305 l 1,12,13
 166 74 166 74 356 74 c 0,14,15
 450 74 450 74 506.5 118.5 c 128,-1,16
 563 163 563 163 563 242 c 0,17,18
 563 340 563 340 500 385 c 0,19,20
 483 396 483 396 447 411 c 128,-1,21
 411 426 411 426 354 444 c 0,22,23
 270 470 270 470 218.5 491.5 c 128,-1,24
 167 513 167 513 147 528 c 0,25,26
 66 591 66 591 66 741 c 0,27,28
 66 794 66 794 86.5 839 c 128,-1,29
 107 884 107 884 144.5 916.5 c 128,-1,30
 182 949 182 949 235.5 967 c 128,-1,31
 289 985 289 985 356 985 c 0,32,33
 655 985 655 985 655 713 c 1,34,-1
 537 713 l 1,35,36
 537 891 537 891 356 891 c 0,37,38
 320 891 320 891 288.5 880 c 128,-1,39
 257 869 257 869 233 849 c 128,-1,40
 209 829 209 829 195.5 801 c 128,-1,41
 182 773 182 773 182 739 c 0,42,43
 182 659 182 659 238 612 c 0,44,45
 256 597 256 597 287.5 582 c 128,-1,46
 319 567 319 567 367 553 c 0,47,48
 452 527 452 527 508.5 502.5 c 128,-1,49
 565 478 565 478 594 455 c 0,50,51
 680 390 680 390 680 258 c 0,0,1
EndSplineSet
Validated: 1
EndChar

StartChar: T
Encoding: 84 84 55
Width: 635
GlyphClass: 2
Flags: W
LayerCount: 3
Fore
SplineSet
377 0 m 1,0,-1
 262 0 l 1,1,-1
 262 870 l 1,2,-1
 0 870 l 1,3,-1
 0 967 l 1,4,-1
 635 967 l 1,5,-1
 635 870 l 1,6,-1
 377 870 l 1,7,-1
 377 0 l 1,0,-1
EndSplineSet
Validated: 1
EndChar

StartChar: U
Encoding: 85 85 56
Width: 811
GlyphClass: 2
Flags: W
LayerCount: 3
Fore
SplineSet
719 272 m 1,0,1
 719 -20 719 -20 406 -20 c 0,2,3
 92 -20 92 -20 92 272 c 2,4,-1
 92 967 l 1,5,-1
 207 967 l 1,6,-1
 207 289 l 2,7,8
 207 74 207 74 406 74 c 0,9,10
 604 74 604 74 604 289 c 2,11,-1
 604 967 l 1,12,-1
 719 967 l 1,13,-1
 719 272 l 1,14,-1
 719 272 l 1,0,1
EndSplineSet
Validated: 5
EndChar

StartChar: V
Encoding: 86 86 57
Width: 725
GlyphClass: 2
Flags: W
LayerCount: 3
Fore
SplineSet
289 0 m 1,0,-1
 -4 967 l 1,1,-1
 123 967 l 1,2,-1
 360 78 l 1,3,-1
 362 78 l 1,4,-1
 602 967 l 1,5,-1
 729 967 l 1,6,-1
 434 0 l 1,7,-1
 289 0 l 1,0,-1
EndSplineSet
Validated: 1
EndChar

StartChar: W
Encoding: 87 87 58
Width: 1112
GlyphClass: 2
Flags: W
LayerCount: 3
Fore
SplineSet
743 0 m 1,0,-1
 565 782 l 1,1,-1
 555 889 l 1,2,-1
 547 782 l 1,3,-1
 369 0 l 1,4,-1
 229 0 l 1,5,-1
 0 967 l 1,6,-1
 135 967 l 1,7,-1
 301 76 l 1,8,-1
 313 166 l 1,9,-1
 487 967 l 1,10,-1
 625 967 l 1,11,-1
 811 76 l 1,12,-1
 823 166 l 1,13,-1
 977 967 l 1,14,-1
 1112 967 l 1,15,-1
 883 0 l 1,16,-1
 743 0 l 1,0,-1
EndSplineSet
Validated: 1
EndChar

StartChar: X
Encoding: 88 88 59
Width: 733
GlyphClass: 2
Flags: W
LayerCount: 3
Fore
SplineSet
367 408 m 1,0,-1
 147 0 l 1,1,-1
 0 0 l 1,2,-1
 303 498 l 1,3,-1
 10 967 l 1,4,-1
 145 967 l 1,5,-1
 367 586 l 1,6,-1
 588 967 l 1,7,-1
 723 967 l 1,8,-1
 430 498 l 1,9,-1
 733 0 l 1,10,-1
 586 0 l 1,11,-1
 367 408 l 1,0,-1
EndSplineSet
Validated: 1
EndChar

StartChar: Y
Encoding: 89 89 60
Width: 723
GlyphClass: 2
Flags: W
LayerCount: 3
Fore
SplineSet
414 0 m 1,0,-1
 299 0 l 1,1,-1
 299 375 l 1,2,-1
 -4 967 l 1,3,-1
 123 967 l 1,4,-1
 356 483 l 1,5,-1
 592 967 l 1,6,-1
 721 967 l 1,7,-1
 414 375 l 1,8,-1
 414 0 l 1,0,-1
EndSplineSet
Validated: 1
EndChar

StartChar: Z
Encoding: 90 90 61
Width: 655
GlyphClass: 2
Flags: W
LayerCount: 3
Fore
SplineSet
18 90 m 1,0,-1
 514 870 l 1,1,-1
 31 870 l 1,2,-1
 31 967 l 1,3,-1
 631 967 l 1,4,-1
 631 874 l 1,5,-1
 139 96 l 1,6,-1
 639 96 l 1,7,-1
 639 0 l 1,8,-1
 18 0 l 1,9,-1
 18 90 l 1,0,-1
EndSplineSet
Validated: 1
EndChar

StartChar: bracketleft
Encoding: 91 91 62
Width: 424
GlyphClass: 2
Flags: W
LayerCount: 3
Fore
SplineSet
119 1028 m 1,0,-1
 362 1028 l 1,1,-1
 362 952 l 1,2,-1
 227 952 l 1,3,-1
 227 -129 l 1,4,-1
 362 -129 l 1,5,-1
 362 -209 l 1,6,-1
 119 -209 l 1,7,-1
 119 1028 l 1,0,-1
EndSplineSet
Validated: 1
EndChar

StartChar: backslash
Encoding: 92 92 63
Width: 434
GlyphClass: 2
Flags: W
LayerCount: 3
Fore
SplineSet
-4 967 m 1,0,-1
 78 967 l 1,1,-1
 432 0 l 1,2,-1
 350 0 l 1,3,-1
 -4 967 l 1,0,-1
EndSplineSet
Validated: 1
EndChar

StartChar: bracketright
Encoding: 93 93 64
Width: 424
GlyphClass: 2
Flags: W
LayerCount: 3
Fore
SplineSet
61 -129 m 1,0,-1
 197 -129 l 1,1,-1
 197 952 l 1,2,-1
 61 952 l 1,3,-1
 61 1028 l 1,4,-1
 305 1028 l 1,5,-1
 305 -209 l 1,6,-1
 61 -209 l 1,7,-1
 61 -129 l 1,0,-1
EndSplineSet
Validated: 1
EndChar

StartChar: asciicircum
Encoding: 94 94 65
Width: 696
GlyphClass: 2
Flags: W
LayerCount: 3
Fore
SplineSet
348 866 m 1,0,-1
 170 430 l 1,1,-1
 98 430 l 1,2,-1
 313 967 l 1,3,-1
 383 967 l 1,4,-1
 602 430 l 1,5,-1
 526 430 l 1,6,-1
 348 866 l 1,0,-1
EndSplineSet
Validated: 1
EndChar

StartChar: underscore
Encoding: 95 95 66
Width: 696
GlyphClass: 2
Flags: W
LayerCount: 3
Fore
SplineSet
0 -102 m 1,0,-1
 696 -102 l 1,1,-1
 696 -178 l 1,2,-1
 0 -178 l 1,3,-1
 0 -102 l 1,0,-1
EndSplineSet
Validated: 1
EndChar

StartChar: grave
Encoding: 96 96 67
Width: 424
GlyphClass: 2
Flags: W
LayerCount: 3
Fore
SplineSet
29 987 m 1,0,-1
 180 987 l 1,1,-1
 305 805 l 1,2,-1
 211 805 l 1,3,-1
 29 987 l 1,0,-1
EndSplineSet
Validated: 1
EndChar

StartChar: a
Encoding: 97 97 68
Width: 578
GlyphClass: 2
Flags: W
LayerCount: 3
Fore
SplineSet
559 0 m 1,0,1
 545 -5 545 -5 531.5 -6.5 c 128,-1,2
 518 -8 518 -8 506 -8 c 0,3,4
 405 -8 405 -8 393 94 c 1,5,6
 344 -18 344 -18 217 -18 c 0,7,8
 25 -18 25 -18 25 182 c 0,9,10
 25 324 25 324 162 377 c 2,11,-1
 348 446 l 2,12,13
 391 462 391 462 391 537 c 0,14,15
 391 651 391 651 268 651 c 0,16,17
 152 651 152 651 152 524 c 1,18,-1
 51 524 l 1,19,20
 51 735 51 735 279 735 c 0,21,22
 494 735 494 735 494 526 c 2,23,-1
 494 133 l 2,24,25
 494 72 494 72 535 72 c 0,26,27
 544 72 544 72 559 76 c 1,28,-1
 559 0 l 1,0,1
209 311 m 2,29,30
 137 276 137 276 137 180 c 0,31,32
 137 68 137 68 229 68 c 0,33,34
 379 68 379 68 379 236 c 2,35,-1
 379 387 l 1,36,-1
 209 311 l 2,29,30
EndSplineSet
Validated: 1
Substitution2: "Single Substitution lookup 26 subtable" uni0E38
Substitution2: "Single Substitution lookup 25 subtable" uni0E38
Substitution2: "Single Substitution lookup 24 subtable" uni0E38
Substitution2: "Single Substitution lookup 23 subtable" uni0E38
Substitution2: "Single Substitution lookup 18 subtable" uni0E38
Substitution2: "Single Substitution lookup 17 subtable" uni0E38
Substitution2: "Single Substitution lookup 15 subtable" uni0E38
Substitution2: "Single Substitution lookup 14 subtable" uni0E38
Substitution2: "Single Substitution lookup 13 subtable" uni0E38
Substitution2: "Single Substitution lookup 12 subtable" uni0E38
Substitution2: "Single Substitution lookup 10 subtable" uni0E38
Substitution2: "Single Substitution lookup 9 subtable" uni0E38
Substitution2: "Single Substitution lookup 8 subtable" uni0E38
Substitution2: "Single Substitution lookup 7 subtable" uni0E38
Substitution2: "Single Substitution lookup 4 subtable" uni0E38
Substitution2: "Single Substitution lookup 3 subtable" uni0E38
Substitution2: "Single Substitution lookup 2 subtable" uni0E38
Substitution2: "Single Substitution lookup 1 subtable" uni0E38
Substitution2: "Single Substitution lookup 0 subtable" uni0E38
EndChar

StartChar: b
Encoding: 98 98 69
Width: 655
GlyphClass: 2
Flags: W
LayerCount: 3
Fore
SplineSet
606 397 m 0,0,1
 606 228 606 228 559 119 c 0,2,3
 498 -20 498 -20 369 -20 c 0,4,5
 241 -20 241 -20 184 86 c 1,6,-1
 184 0 l 1,7,-1
 84 0 l 1,8,-1
 84 965 l 1,9,-1
 195 965 l 1,10,-1
 195 643 l 1,11,12
 241 737 241 737 356 737 c 0,13,14
 484 737 484 737 549 633 c 0,15,16
 606 544 606 544 606 397 c 0,0,1
489 358 m 0,17,18
 489 437 489 437 481 492.5 c 128,-1,19
 473 548 473 548 455.5 582.5 c 128,-1,20
 438 617 438 617 409.5 633 c 128,-1,21
 381 649 381 649 340 649 c 0,22,23
 190 649 190 649 190 358 c 0,24,25
 190 281 190 281 198.5 226 c 128,-1,26
 207 171 207 171 225 136 c 128,-1,27
 243 101 243 101 271.5 84.5 c 128,-1,28
 300 68 300 68 340 68 c 0,29,30
 489 68 489 68 489 358 c 0,17,18
EndSplineSet
Validated: 1
Substitution2: "Single Substitution lookup 26 subtable" uni0E39
Substitution2: "Single Substitution lookup 25 subtable" uni0E39
Substitution2: "Single Substitution lookup 24 subtable" uni0E39
Substitution2: "Single Substitution lookup 23 subtable" uni0E39
Substitution2: "Single Substitution lookup 18 subtable" uni0E39
Substitution2: "Single Substitution lookup 17 subtable" uni0E39
Substitution2: "Single Substitution lookup 15 subtable" uni0E39
Substitution2: "Single Substitution lookup 14 subtable" uni0E39
Substitution2: "Single Substitution lookup 13 subtable" uni0E39
Substitution2: "Single Substitution lookup 12 subtable" uni0E39
Substitution2: "Single Substitution lookup 10 subtable" uni0E39
Substitution2: "Single Substitution lookup 9 subtable" uni0E39
Substitution2: "Single Substitution lookup 8 subtable" uni0E39
Substitution2: "Single Substitution lookup 7 subtable" uni0E39
Substitution2: "Single Substitution lookup 4 subtable" uni0E39
Substitution2: "Single Substitution lookup 3 subtable" uni0E39
Substitution2: "Single Substitution lookup 2 subtable" uni0E39
Substitution2: "Single Substitution lookup 1 subtable" uni0E39
Substitution2: "Single Substitution lookup 0 subtable" uni0E39
EndChar

StartChar: c
Encoding: 99 99 70
Width: 578
GlyphClass: 2
Flags: W
LayerCount: 3
Fore
SplineSet
543 250 m 1,0,1
 543 127 543 127 481.5 55.5 c 128,-1,2
 420 -16 420 -16 303 -16 c 0,3,4
 43 -16 43 -16 43 348 c 0,5,6
 43 737 43 737 301 737 c 0,7,8
 356 737 356 737 400.5 719.5 c 128,-1,9
 445 702 445 702 475.5 669.5 c 128,-1,10
 506 637 506 637 522.5 592 c 128,-1,11
 539 547 539 547 539 492 c 1,12,-1
 436 492 l 1,13,14
 436 647 436 647 301 647 c 0,15,16
 212 647 212 647 178 551 c 0,17,18
 154 483 154 483 154 342 c 0,19,20
 154 68 154 68 301 68 c 0,21,22
 440 68 440 68 440 250 c 1,23,-1
 543 250 l 1,24,-1
 543 250 l 1,0,1
EndSplineSet
Validated: 5
Substitution2: "Single Substitution lookup 26 subtable" uni0E3A
Substitution2: "Single Substitution lookup 25 subtable" uni0E3A
Substitution2: "Single Substitution lookup 24 subtable" uni0E3A
Substitution2: "Single Substitution lookup 23 subtable" uni0E3A
Substitution2: "Single Substitution lookup 18 subtable" uni0E3A
Substitution2: "Single Substitution lookup 17 subtable" uni0E3A
Substitution2: "Single Substitution lookup 15 subtable" uni0E3A
Substitution2: "Single Substitution lookup 14 subtable" uni0E3A
Substitution2: "Single Substitution lookup 13 subtable" uni0E3A
Substitution2: "Single Substitution lookup 12 subtable" uni0E3A
Substitution2: "Single Substitution lookup 10 subtable" uni0E3A
Substitution2: "Single Substitution lookup 9 subtable" uni0E3A
Substitution2: "Single Substitution lookup 8 subtable" uni0E3A
Substitution2: "Single Substitution lookup 7 subtable" uni0E3A
Substitution2: "Single Substitution lookup 4 subtable" uni0E3A
Substitution2: "Single Substitution lookup 3 subtable" uni0E3A
Substitution2: "Single Substitution lookup 2 subtable" uni0E3A
Substitution2: "Single Substitution lookup 1 subtable" uni0E3A
Substitution2: "Single Substitution lookup 0 subtable" uni0E3A
EndChar

StartChar: d
Encoding: 100 100 71
Width: 655
GlyphClass: 2
Flags: W
LayerCount: 3
Fore
SplineSet
469 86 m 1,0,1
 412 -20 412 -20 285 -20 c 0,2,3
 154 -20 154 -20 96 119 c 1,4,5
 47 226 47 226 47 397 c 0,6,7
 47 543 47 543 104 633 c 0,8,9
 169 737 169 737 297 737 c 0,10,11
 413 737 413 737 459 643 c 1,12,-1
 459 965 l 1,13,-1
 569 965 l 1,14,-1
 569 0 l 1,15,-1
 469 0 l 1,16,-1
 469 86 l 1,0,1
463 358 m 0,17,18
 463 649 463 649 313 649 c 0,19,20
 272 649 272 649 244 633 c 128,-1,21
 216 617 216 617 198 582.5 c 128,-1,22
 180 548 180 548 172 492.5 c 128,-1,23
 164 437 164 437 164 358 c 0,24,25
 164 68 164 68 313 68 c 0,26,27
 353 68 353 68 381.5 84.5 c 128,-1,28
 410 101 410 101 428 136 c 128,-1,29
 446 171 446 171 454.5 226 c 128,-1,30
 463 281 463 281 463 358 c 0,17,18
EndSplineSet
Validated: 1
EndChar

StartChar: e
Encoding: 101 101 72
Width: 578
GlyphClass: 2
Flags: W
LayerCount: 3
Fore
SplineSet
152 350 m 1,0,1
 152 284 152 284 156.5 235.5 c 128,-1,2
 161 187 161 187 172 158 c 0,3,4
 189 110 189 110 218.5 88 c 128,-1,5
 248 66 248 66 293 66 c 0,6,7
 422 66 422 66 422 240 c 1,8,-1
 526 240 l 1,9,10
 526 -16 526 -16 287 -16 c 0,11,12
 39 -16 39 -16 39 371 c 0,13,14
 39 737 39 737 291 737 c 0,15,16
 546 737 546 737 530 350 c 1,17,-1
 152 350 l 1,0,1
416 434 m 1,18,19
 416 649 416 649 289 649 c 0,20,21
 152 649 152 649 152 434 c 1,22,-1
 416 434 l 1,18,19
EndSplineSet
Validated: 33
EndChar

StartChar: f
Encoding: 102 102 73
Width: 346
GlyphClass: 2
Flags: W
LayerCount: 3
Fore
SplineSet
219 0 m 1,0,-1
 111 0 l 1,1,-1
 111 631 l 1,2,-1
 0 631 l 1,3,-1
 0 717 l 1,4,-1
 111 717 l 1,5,-1
 111 797 l 2,6,7
 111 874 111 874 166 926 c 0,8,9
 218 971 218 971 289 971 c 0,10,11
 314 971 314 971 338 965 c 1,12,-1
 338 881 l 1,13,14
 329 883 329 883 319.5 884 c 128,-1,15
 310 885 310 885 301 885 c 0,16,17
 219 885 219 885 219 791 c 2,18,-1
 219 717 l 1,19,-1
 338 717 l 1,20,-1
 338 631 l 1,21,-1
 219 631 l 1,22,-1
 219 0 l 1,0,-1
EndSplineSet
Validated: 1
EndChar

StartChar: g
Encoding: 103 103 74
Width: 655
GlyphClass: 2
Flags: W
LayerCount: 3
Fore
SplineSet
571 100 m 2,0,1
 571 -244 571 -244 297 -244 c 0,2,3
 206 -244 206 -244 141 -201 c 0,4,5
 70 -151 70 -151 70 -70 c 1,6,-1
 172 -70 l 1,7,8
 172 -106 172 -106 208 -132 c 128,-1,9
 244 -158 244 -158 301 -158 c 0,10,11
 347 -158 347 -158 378 -144 c 128,-1,12
 409 -130 409 -130 427.5 -100.5 c 128,-1,13
 446 -71 446 -71 453.5 -25.5 c 128,-1,14
 461 20 461 20 461 84 c 1,15,16
 390 -18 390 -18 287 -18 c 0,17,18
 39 -18 39 -18 39 365 c 0,19,20
 39 440 39 440 53 502 c 128,-1,21
 67 564 67 564 96 616 c 0,22,23
 160 737 160 737 281 737 c 0,24,25
 414 737 414 737 465 637 c 1,26,-1
 465 717 l 1,27,-1
 571 717 l 1,28,-1
 571 100 l 2,0,1
463 358 m 0,29,30
 463 651 463 651 309 651 c 0,31,32
 156 651 156 651 156 358 c 0,33,34
 156 66 156 66 309 66 c 0,35,36
 463 66 463 66 463 358 c 0,29,30
EndSplineSet
Validated: 1
EndChar

StartChar: h
Encoding: 104 104 75
Width: 655
GlyphClass: 2
Flags: W
LayerCount: 3
Fore
SplineSet
467 514 m 2,0,1
 467 649 467 649 350 649 c 0,2,3
 315 649 315 649 286.5 637 c 128,-1,4
 258 625 258 625 237 605.5 c 128,-1,5
 216 586 216 586 204.5 561.5 c 128,-1,6
 193 537 193 537 193 512 c 2,7,-1
 193 0 l 1,8,-1
 82 0 l 1,9,-1
 82 967 l 1,10,-1
 193 967 l 1,11,-1
 193 637 l 1,12,13
 268 737 268 737 389 737 c 0,14,15
 578 737 578 737 578 537 c 2,16,-1
 578 0 l 1,17,-1
 467 0 l 1,18,-1
 467 514 l 2,0,1
EndSplineSet
Validated: 1
EndChar

StartChar: i
Encoding: 105 105 76
Width: 268
GlyphClass: 2
Flags: W
LayerCount: 3
Fore
SplineSet
80 967 m 1,0,-1
 190 967 l 1,1,-1
 190 838 l 1,2,-1
 80 838 l 1,3,-1
 80 967 l 1,0,-1
80 717 m 1,4,-1
 190 717 l 1,5,-1
 190 0 l 1,6,-1
 80 0 l 1,7,-1
 80 717 l 1,4,-1
EndSplineSet
Validated: 1
EndChar

StartChar: j
Encoding: 106 106 77
Width: 268
GlyphClass: 2
Flags: W
LayerCount: 3
Fore
SplineSet
84 967 m 1,0,-1
 195 967 l 1,1,-1
 195 838 l 1,2,-1
 84 838 l 1,3,-1
 84 967 l 1,0,-1
195 0 m 2,4,5
 195 -246 195 -246 33 -246 c 0,6,7
 25 -246 25 -246 16.5 -246 c 128,-1,8
 8 -246 8 -246 0 -244 c 1,9,-1
 0 -150 l 1,10,11
 5 -152 5 -152 9 -152 c 128,-1,12
 13 -152 13 -152 18 -152 c 0,13,14
 84 -152 84 -152 84 0 c 2,15,-1
 84 717 l 1,16,-1
 195 717 l 1,17,-1
 195 0 l 2,4,5
EndSplineSet
Validated: 1
EndChar

StartChar: k
Encoding: 107 107 78
Width: 578
GlyphClass: 2
Flags: W
LayerCount: 3
Fore
SplineSet
270 354 m 1,0,-1
 184 254 l 1,1,-1
 184 0 l 1,2,-1
 74 0 l 1,3,-1
 74 967 l 1,4,-1
 184 967 l 1,5,-1
 184 385 l 1,6,-1
 453 717 l 1,7,-1
 580 717 l 1,8,-1
 342 438 l 1,9,-1
 596 0 l 1,10,-1
 465 0 l 1,11,-1
 270 354 l 1,0,-1
EndSplineSet
Validated: 1
EndChar

StartChar: l
Encoding: 108 108 79
Width: 268
GlyphClass: 2
Flags: W
LayerCount: 3
Fore
SplineSet
80 967 m 1,0,-1
 190 967 l 1,1,-1
 190 0 l 1,2,-1
 80 0 l 1,3,-1
 80 967 l 1,0,-1
EndSplineSet
Validated: 1
EndChar

StartChar: m
Encoding: 109 109 80
Width: 1042
GlyphClass: 2
Flags: W
LayerCount: 3
Fore
SplineSet
848 522 m 2,0,1
 848 651 848 651 741 651 c 0,2,3
 708 651 708 651 678.5 641 c 128,-1,4
 649 631 649 631 626.5 612.5 c 128,-1,5
 604 594 604 594 591 568.5 c 128,-1,6
 578 543 578 543 578 512 c 2,7,-1
 578 0 l 1,8,-1
 467 0 l 1,9,-1
 467 514 l 2,10,11
 467 651 467 651 354 651 c 0,12,13
 322 651 322 651 294 641 c 128,-1,14
 266 631 266 631 244 612.5 c 128,-1,15
 222 594 222 594 209.5 569 c 128,-1,16
 197 544 197 544 197 514 c 2,17,-1
 197 0 l 1,18,-1
 86 0 l 1,19,-1
 86 717 l 1,20,-1
 193 717 l 1,21,-1
 193 627 l 1,22,23
 253 737 253 737 377 737 c 0,24,25
 505 737 505 737 561 623 c 1,26,27
 613 737 613 737 766 737 c 0,28,29
 806 737 806 737 841 724 c 128,-1,30
 876 711 876 711 902 687 c 128,-1,31
 928 663 928 663 943 630 c 128,-1,32
 958 597 958 597 958 557 c 2,33,-1
 958 0 l 1,34,-1
 848 0 l 1,35,-1
 848 522 l 2,0,1
EndSplineSet
Validated: 1
EndChar

StartChar: n
Encoding: 110 110 81
Width: 655
GlyphClass: 2
Flags: W
LayerCount: 3
Fore
SplineSet
467 514 m 2,0,1
 467 649 467 649 350 649 c 0,2,3
 315 649 315 649 286.5 637 c 128,-1,4
 258 625 258 625 237 605.5 c 128,-1,5
 216 586 216 586 204.5 561.5 c 128,-1,6
 193 537 193 537 193 512 c 2,7,-1
 193 0 l 1,8,-1
 82 0 l 1,9,-1
 82 717 l 1,10,-1
 193 717 l 1,11,-1
 193 637 l 1,12,13
 268 737 268 737 389 737 c 0,14,15
 578 737 578 737 578 537 c 2,16,-1
 578 0 l 1,17,-1
 467 0 l 1,18,-1
 467 514 l 2,0,1
EndSplineSet
Validated: 1
EndChar

StartChar: o
Encoding: 111 111 82
Width: 655
GlyphClass: 2
Flags: W
LayerCount: 3
Fore
SplineSet
600 360 m 0,0,1
 600 -18 600 -18 322 -18 c 0,2,3
 49 -18 49 -18 49 358 c 0,4,5
 49 737 49 737 328 737 c 0,6,7
 600 737 600 737 600 360 c 0,0,1
485 358 m 0,8,9
 485 651 485 651 326 651 c 0,10,11
 164 651 164 651 164 358 c 0,12,13
 164 66 164 66 324 66 c 0,14,15
 485 66 485 66 485 358 c 0,8,9
EndSplineSet
Validated: 1
EndChar

StartChar: p
Encoding: 112 112 83
Width: 655
GlyphClass: 2
Flags: W
LayerCount: 3
Fore
SplineSet
602 360 m 0,0,1
 602 276 602 276 588 210.5 c 128,-1,2
 574 145 574 145 545 94 c 0,3,4
 480 -20 480 -20 352 -20 c 0,5,6
 236 -20 236 -20 190 74 c 1,7,-1
 190 -242 l 1,8,-1
 80 -242 l 1,9,-1
 80 717 l 1,10,-1
 180 717 l 1,11,-1
 180 631 l 1,12,13
 238 737 238 737 365 737 c 0,14,15
 602 737 602 737 602 360 c 0,0,1
485 358 m 0,16,17
 485 649 485 649 336 649 c 0,18,19
 256 649 256 649 221 581 c 128,-1,20
 186 513 186 513 186 358 c 0,21,22
 186 68 186 68 336 68 c 0,23,24
 376 68 376 68 404.5 83.5 c 128,-1,25
 433 99 433 99 451 133.5 c 128,-1,26
 469 168 469 168 477 223 c 128,-1,27
 485 278 485 278 485 358 c 0,16,17
EndSplineSet
Validated: 1
EndChar

StartChar: q
Encoding: 113 113 84
Width: 655
GlyphClass: 2
Flags: W
LayerCount: 3
Fore
SplineSet
461 74 m 1,0,1
 415 -20 415 -20 299 -20 c 0,2,3
 172 -20 172 -20 106 94 c 0,4,5
 49 196 49 196 49 360 c 0,6,7
 49 737 49 737 287 737 c 0,8,9
 413 737 413 737 471 631 c 1,10,-1
 471 717 l 1,11,-1
 571 717 l 1,12,-1
 571 -242 l 1,13,-1
 461 -242 l 1,14,-1
 461 74 l 1,0,1
465 358 m 0,15,16
 465 513 465 513 430 581 c 128,-1,17
 395 649 395 649 315 649 c 0,18,19
 166 649 166 649 166 358 c 0,20,21
 166 278 166 278 174 223 c 128,-1,22
 182 168 182 168 200 133.5 c 128,-1,23
 218 99 218 99 246 83.5 c 128,-1,24
 274 68 274 68 315 68 c 0,25,26
 465 68 465 68 465 358 c 0,15,16
EndSplineSet
Validated: 1
EndChar

StartChar: r
Encoding: 114 114 85
Width: 424
GlyphClass: 2
Flags: W
LayerCount: 3
Fore
SplineSet
424 623 m 1,0,1
 413 628 413 628 401 629.5 c 128,-1,2
 389 631 389 631 377 631 c 0,3,4
 343 631 343 631 311.5 615.5 c 128,-1,5
 280 600 280 600 256 573 c 128,-1,6
 232 546 232 546 217.5 510 c 128,-1,7
 203 474 203 474 203 434 c 2,8,-1
 203 0 l 1,9,-1
 92 0 l 1,10,-1
 92 717 l 1,11,-1
 199 717 l 1,12,-1
 199 598 l 1,13,14
 263 740 263 740 424 725 c 1,15,-1
 424 623 l 1,16,-1
 424 623 l 1,0,1
EndSplineSet
Validated: 37
EndChar

StartChar: s
Encoding: 115 115 86
Width: 578
GlyphClass: 2
Flags: W
LayerCount: 3
Fore
SplineSet
539 199 m 0,0,1
 539 147 539 147 518 106.5 c 128,-1,2
 497 66 497 66 460.5 38 c 128,-1,3
 424 10 424 10 375.5 -5 c 128,-1,4
 327 -20 327 -20 272 -20 c 0,5,6
 160 -20 160 -20 99.5 39 c 128,-1,7
 39 98 39 98 39 209 c 1,8,-1
 141 209 l 1,9,10
 141 68 141 68 276 68 c 0,11,12
 424 68 424 68 424 182 c 0,13,14
 424 244 424 244 375 274 c 0,15,16
 364 282 364 282 333.5 294.5 c 128,-1,17
 303 307 303 307 254 324 c 0,18,19
 149 358 149 358 111 387 c 0,20,21
 41 438 41 438 41 530 c 0,22,23
 41 578 41 578 58.5 616.5 c 128,-1,24
 76 655 76 655 106.5 682 c 128,-1,25
 137 709 137 709 178.5 723 c 128,-1,26
 220 737 220 737 268 737 c 0,27,28
 508 737 508 737 508 524 c 1,29,-1
 403 524 l 1,30,31
 403 651 403 651 276 651 c 0,32,33
 156 651 156 651 156 547 c 0,34,35
 156 486 156 486 203 453 c 0,36,37
 211 448 211 448 233 438 c 128,-1,38
 255 428 255 428 293 414 c 0,39,40
 362 388 362 388 403.5 370.5 c 128,-1,41
 445 353 445 353 461 342 c 0,42,43
 539 288 539 288 539 199 c 0,0,1
EndSplineSet
Validated: 1
EndChar

StartChar: t
Encoding: 116 116 87
Width: 346
GlyphClass: 2
Flags: W
LayerCount: 3
Fore
SplineSet
209 137 m 6,0,1
 209 86 209 86 262 86 c 6,2,-1
 336 86 l 5,3,-1
 336 0 l 5,4,-1
 219 0 l 6,5,6
 98 0 98 0 98 137 c 6,7,-1
 98 631 l 5,8,-1
 -8 631 l 5,9,-1
 -8 717 l 5,10,-1
 98 717 l 5,11,-1
 98 911 l 5,12,-1
 209 911 l 5,13,-1
 209 717 l 5,14,-1
 338 717 l 5,15,-1
 338 631 l 5,16,-1
 209 631 l 5,17,-1
 209 137 l 6,0,1
EndSplineSet
Validated: 1
EndChar

StartChar: u
Encoding: 117 117 88
Width: 655
GlyphClass: 2
Flags: W
LayerCount: 3
Fore
SplineSet
459 80 m 1,0,1
 384 -20 384 -20 270 -20 c 0,2,3
 88 -20 88 -20 88 180 c 2,4,-1
 88 717 l 1,5,-1
 199 717 l 1,6,-1
 199 203 l 2,7,8
 199 162 199 162 204 136 c 128,-1,9
 209 110 209 110 221 95 c 128,-1,10
 233 80 233 80 254.5 74 c 128,-1,11
 276 68 276 68 309 68 c 0,12,13
 378 68 378 68 422 121 c 0,14,15
 459 168 459 168 459 219 c 2,16,-1
 459 717 l 1,17,-1
 569 717 l 1,18,-1
 569 0 l 1,19,-1
 459 0 l 1,20,-1
 459 80 l 1,0,1
EndSplineSet
Validated: 1
EndChar

StartChar: v
Encoding: 118 118 89
Width: 578
GlyphClass: 2
Flags: W
LayerCount: 3
Fore
SplineSet
225 0 m 1,0,-1
 0 717 l 1,1,-1
 115 717 l 1,2,-1
 289 86 l 1,3,-1
 463 717 l 1,4,-1
 578 717 l 1,5,-1
 352 0 l 1,6,-1
 225 0 l 1,0,-1
EndSplineSet
Validated: 1
EndChar

StartChar: w
Encoding: 119 119 90
Width: 889
GlyphClass: 2
Flags: W
LayerCount: 3
Fore
SplineSet
571 0 m 1,0,-1
 442 633 l 1,1,-1
 319 0 l 1,2,-1
 205 0 l 1,3,-1
 8 717 l 1,4,-1
 121 717 l 1,5,-1
 262 84 l 1,6,-1
 387 717 l 1,7,-1
 504 717 l 1,8,-1
 629 84 l 1,9,-1
 770 717 l 1,10,-1
 883 717 l 1,11,-1
 686 0 l 1,12,-1
 571 0 l 1,0,-1
EndSplineSet
Validated: 1
EndChar

StartChar: x
Encoding: 120 120 91
Width: 578
GlyphClass: 2
Flags: W
LayerCount: 3
Fore
SplineSet
291 281 m 1,0,-1
 109 0 l 1,1,-1
 -8 0 l 1,2,-1
 233 369 l 1,3,-1
 6 717 l 1,4,-1
 121 717 l 1,5,-1
 291 457 l 1,6,-1
 461 717 l 1,7,-1
 575 717 l 1,8,-1
 348 369 l 1,9,-1
 590 0 l 1,10,-1
 473 0 l 1,11,-1
 291 281 l 1,0,-1
EndSplineSet
Validated: 1
EndChar

StartChar: y
Encoding: 121 121 92
Width: 578
GlyphClass: 2
Flags: W
LayerCount: 3
Fore
SplineSet
315 -80 m 1,0,1
 303 -118 303 -118 281.5 -148 c 128,-1,2
 260 -178 260 -178 231.5 -199 c 128,-1,3
 203 -220 203 -220 170 -231 c 128,-1,4
 137 -242 137 -242 102 -242 c 0,5,6
 82 -242 82 -242 63.5 -238.5 c 128,-1,7
 45 -235 45 -235 27 -227 c 1,8,-1
 27 -143 l 1,9,10
 54 -156 54 -156 88 -156 c 0,11,12
 200 -156 200 -156 233 -53 c 2,13,-1
 246 -14 l 1,14,-1
 -2 717 l 1,15,-1
 113 717 l 1,16,-1
 289 94 l 1,17,-1
 471 717 l 1,18,-1
 582 717 l 1,19,-1
 315 -80 l 1,20,-1
 315 -80 l 1,0,1
EndSplineSet
Validated: 5
EndChar

StartChar: z
Encoding: 122 122 93
Width: 522
GlyphClass: 2
Flags: W
LayerCount: 3
Fore
SplineSet
23 82 m 1,0,-1
 385 633 l 1,1,-1
 39 633 l 1,2,-1
 39 717 l 1,3,-1
 496 717 l 1,4,-1
 496 635 l 1,5,-1
 139 84 l 1,6,-1
 500 84 l 1,7,-1
 500 0 l 1,8,-1
 23 0 l 1,9,-1
 23 82 l 1,0,-1
EndSplineSet
Validated: 1
EndChar

StartChar: braceleft
Encoding: 123 123 94
Width: 383
GlyphClass: 2
Flags: W
LayerCount: 3
Fore
SplineSet
362 -199 m 1,0,1
 135 -199 135 -199 135 -45 c 2,2,-1
 135 279 l 2,3,4
 135 374 135 374 10 412 c 1,5,6
 135 448 135 448 135 545 c 2,7,-1
 135 868 l 2,8,9
 135 1022 135 1022 362 1022 c 1,10,-1
 362 1008 l 1,11,12
 248 1008 248 1008 248 877 c 2,13,-1
 248 573 l 2,14,15
 248 430 248 430 111 412 c 1,16,17
 248 392 248 392 248 250 c 2,18,-1
 248 -53 l 2,19,20
 248 -184 248 -184 362 -184 c 1,21,-1
 362 -199 l 1,22,-1
 362 -199 l 1,0,1
EndSplineSet
Validated: 5
EndChar

StartChar: bar
Encoding: 124 124 95
Width: 307
GlyphClass: 2
Flags: W
LayerCount: 3
Fore
SplineSet
111 967 m 1,0,-1
 199 967 l 1,1,-1
 199 0 l 1,2,-1
 111 0 l 1,3,-1
 111 967 l 1,0,-1
EndSplineSet
Validated: 1
EndChar

StartChar: braceright
Encoding: 125 125 96
Width: 383
GlyphClass: 2
Flags: W
LayerCount: 3
Fore
SplineSet
362 412 m 1,0,1
 238 375 238 375 238 279 c 2,2,-1
 238 -45 l 2,3,4
 238 -199 238 -199 10 -199 c 1,5,-1
 10 -184 l 1,6,7
 125 -184 125 -184 125 -53 c 2,8,-1
 125 250 l 2,9,10
 125 392 125 392 262 412 c 1,11,12
 125 430 125 430 125 573 c 2,13,-1
 125 877 l 2,14,15
 125 1008 125 1008 10 1008 c 1,16,-1
 10 1022 l 1,17,18
 238 1022 238 1022 238 868 c 2,19,-1
 238 545 l 2,20,21
 238 448 238 448 362 412 c 1,0,1
EndSplineSet
Validated: 1
EndChar

StartChar: asciitilde
Encoding: 126 126 97
Width: 655
GlyphClass: 2
Flags: W
LayerCount: 3
Fore
SplineSet
621 385 m 1,0,1
 559 244 559 244 461 244 c 0,2,3
 405 244 405 244 328 285 c 0,4,5
 254 328 254 328 207 328 c 0,6,7
 138 328 138 328 86 217 c 1,8,-1
 37 276 l 1,9,10
 89 430 89 430 199 430 c 0,11,12
 257 430 257 430 334 383 c 0,13,14
 372 360 372 360 404 349 c 128,-1,15
 436 338 436 338 459 338 c 0,16,17
 515 338 515 338 567 438 c 1,18,-1
 621 385 l 1,19,-1
 621 385 l 1,0,1
EndSplineSet
Validated: 5
EndChar

StartChar: currency
Encoding: 164 164 98
Width: 840
GlyphClass: 2
Flags: W
LayerCount: 3
Fore
SplineSet
422 729 m 0,0,1
 326 729 326 729 262 662 c 0,2,3
 197 588 197 588 197 502 c 0,4,5
 197 408 197 408 260 338 c 0,6,7
 325 270 325 270 422 270 c 0,8,9
 514 270 514 270 580 338 c 0,10,11
 643 401 643 401 643 502 c 0,12,13
 643 548 643 548 626.5 589 c 128,-1,14
 610 630 610 630 581 661 c 128,-1,15
 552 692 552 692 511 710.5 c 128,-1,16
 470 729 470 729 422 729 c 0,0,1
156 309 m 1,17,18
 94 392 94 392 94 502 c 0,19,20
 94 616 94 616 156 690 c 1,21,-1
 8 840 l 1,22,-1
 84 911 l 1,23,-1
 229 766 l 1,24,25
 309 825 309 825 422 825 c 0,26,27
 477 825 477 825 527.5 809 c 128,-1,28
 578 793 578 793 610 766 c 1,29,-1
 760 911 l 1,30,-1
 831 840 l 1,31,-1
 686 690 l 1,32,33
 745 610 745 610 745 502 c 0,34,35
 745 389 745 389 686 309 c 1,36,-1
 831 164 l 1,37,-1
 760 88 l 1,38,-1
 610 236 l 1,39,40
 595 223 595 223 574 212.5 c 128,-1,41
 553 202 553 202 527 192 c 0,42,43
 474 174 474 174 422 174 c 0,44,45
 312 174 312 174 229 236 c 1,46,-1
 84 88 l 1,47,-1
 8 164 l 1,48,-1
 156 309 l 1,17,18
EndSplineSet
Validated: 1
EndChar

StartChar: copyright
Encoding: 169 169 99
Width: 1032
GlyphClass: 2
Flags: W
LayerCount: 3
Fore
SplineSet
1020 483 m 256,0,1
 1020 274 1020 274 872 127 c 0,2,3
 725 -20 725 -20 516 -20 c 256,4,5
 307 -20 307 -20 160 127 c 0,6,7
 12 274 12 274 12 483 c 256,8,9
 12 692 12 692 160 840 c 0,10,11
 307 987 307 987 516 987 c 256,12,13
 725 987 725 987 872 840 c 0,14,15
 1020 692 1020 692 1020 483 c 256,0,1
948 483 m 0,16,17
 948 664 948 664 821 788 c 1,18,19
 694 918 694 918 516 918 c 256,20,21
 338 918 338 918 211 788 c 1,22,23
 84 664 84 664 84 483 c 0,24,25
 84 306 84 306 211 176 c 0,26,27
 338 49 338 49 516 49 c 256,28,29
 694 49 694 49 821 176 c 0,30,31
 948 306 948 306 948 483 c 0,16,17
739 393 m 1,32,33
 739 304 739 304 690 246 c 0,34,35
 632 182 632 182 524 182 c 0,36,37
 291 182 291 182 291 473 c 0,38,39
 291 784 291 784 522 784 c 0,40,41
 726 784 726 784 735 594 c 1,42,-1
 668 594 l 1,43,44
 659 727 659 727 522 727 c 0,45,46
 362 727 362 727 362 469 c 0,47,48
 362 240 362 240 522 240 c 0,49,50
 663 240 663 240 672 393 c 1,51,-1
 739 393 l 1,32,33
EndSplineSet
Validated: 1
EndChar

StartChar: guillemotleft
Encoding: 171 171 100
Width: 655
GlyphClass: 2
Flags: W
LayerCount: 3
Fore
SplineSet
344 440 m 1,0,-1
 539 639 l 1,1,-1
 539 532 l 1,2,-1
 410 399 l 1,3,-1
 539 268 l 1,4,-1
 539 162 l 1,5,-1
 344 362 l 1,6,-1
 344 440 l 1,0,-1
115 440 m 1,7,-1
 309 639 l 1,8,-1
 309 532 l 1,9,-1
 180 399 l 1,10,-1
 309 268 l 1,11,-1
 309 162 l 1,12,-1
 115 362 l 1,13,-1
 115 440 l 1,7,-1
EndSplineSet
Validated: 1
EndChar

StartChar: logicalnot
Encoding: 172 172 101
Width: 707
GlyphClass: 2
Flags: W
LayerCount: 3
Fore
SplineSet
579 297 m 1,0,-1
 45 297 l 1,1,-1
 45 387 l 1,2,-1
 661 387 l 1,3,-1
 661 119 l 1,4,-1
 579 119 l 1,5,-1
 579 297 l 1,0,-1
EndSplineSet
Validated: 1
EndChar

StartChar: uni00AD
Encoding: 173 173 102
Width: 696
GlyphClass: 2
Flags: W
LayerCount: 3
Fore
SplineSet
41 414 m 1,0,-1
 655 414 l 1,1,-1
 655 324 l 1,2,-1
 41 324 l 1,3,-1
 41 414 l 1,0,-1
EndSplineSet
Validated: 1
EndChar

StartChar: registered
Encoding: 174 174 103
Width: 1032
GlyphClass: 2
Flags: W
LayerCount: 3
Fore
SplineSet
1020 483 m 256,0,1
 1020 274 1020 274 872 127 c 0,2,3
 725 -20 725 -20 516 -20 c 256,4,5
 307 -20 307 -20 160 127 c 0,6,7
 12 274 12 274 12 483 c 256,8,9
 12 692 12 692 160 840 c 0,10,11
 307 987 307 987 516 987 c 256,12,13
 725 987 725 987 872 840 c 0,14,15
 1020 692 1020 692 1020 483 c 256,0,1
948 483 m 0,16,17
 948 664 948 664 821 788 c 1,18,19
 694 918 694 918 516 918 c 256,20,21
 338 918 338 918 211 788 c 1,22,23
 84 664 84 664 84 483 c 0,24,25
 84 306 84 306 211 176 c 0,26,27
 338 49 338 49 516 49 c 256,28,29
 694 49 694 49 821 176 c 0,30,31
 948 306 948 306 948 483 c 0,16,17
522 461 m 1,32,-1
 395 461 l 1,33,-1
 395 201 l 1,34,-1
 326 201 l 1,35,-1
 326 768 l 1,36,-1
 557 768 l 2,37,38
 758 768 758 768 758 616 c 0,39,40
 758 583 758 583 746.5 555 c 128,-1,41
 735 527 735 527 714 506.5 c 128,-1,42
 693 486 693 486 663.5 474 c 128,-1,43
 634 462 634 462 598 461 c 1,44,-1
 762 201 l 1,45,-1
 680 201 l 1,46,-1
 522 461 l 1,32,-1
686 618 m 0,47,48
 686 713 686 713 549 713 c 2,49,-1
 395 713 l 1,50,-1
 395 514 l 1,51,-1
 565 514 l 2,52,53
 686 514 686 514 686 618 c 0,47,48
EndSplineSet
Validated: 1
EndChar

StartChar: degree
Encoding: 176 176 104
Width: 541
GlyphClass: 2
Flags: W
LayerCount: 3
Fore
SplineSet
266 915 m 0,0,1
 309 915 309 915 346.5 899 c 128,-1,2
 384 883 384 883 411.5 856 c 128,-1,3
 439 829 439 829 455 792 c 128,-1,4
 471 755 471 755 471 713 c 256,5,6
 471 671 471 671 455 634 c 128,-1,7
 439 597 439 597 411.5 569.5 c 128,-1,8
 384 542 384 542 346.5 526 c 128,-1,9
 309 510 309 510 266 510 c 0,10,11
 225 510 225 510 189 525.5 c 128,-1,12
 153 541 153 541 125.5 568.5 c 128,-1,13
 98 596 98 596 82 633 c 128,-1,14
 66 670 66 670 66 713 c 0,15,16
 66 753 66 753 81.5 790 c 128,-1,17
 97 827 97 827 124 854.5 c 128,-1,18
 151 882 151 882 187.5 898.5 c 128,-1,19
 224 915 224 915 266 915 c 0,0,1
266 858 m 256,20,21
 235 858 235 858 208.5 847 c 128,-1,22
 182 836 182 836 162.5 816.5 c 128,-1,23
 143 797 143 797 132 770.5 c 128,-1,24
 121 744 121 744 121 713 c 0,25,26
 121 683 121 683 132.5 656 c 128,-1,27
 144 629 144 629 163.5 609 c 128,-1,28
 183 589 183 589 209.5 577 c 128,-1,29
 236 565 236 565 266 565 c 0,30,31
 328 565 328 565 371 608 c 0,32,33
 416 654 416 654 416 713 c 0,34,35
 416 743 416 743 404 769.5 c 128,-1,36
 392 796 392 796 371.5 815.5 c 128,-1,37
 351 835 351 835 324 846.5 c 128,-1,38
 297 858 297 858 266 858 c 256,20,21
EndSplineSet
Validated: 1
EndChar

StartChar: paragraph
Encoding: 182 182 105
Width: 727
GlyphClass: 2
Flags: W
LayerCount: 3
Fore
SplineSet
567 -244 m 1,0,-1
 567 1112 l 1,1,-1
 422 1112 l 1,2,-1
 422 -244 l 1,3,-1
 367 -244 l 1,4,-1
 367 561 l 1,5,6
 199 561 199 561 104 623 c 1,7,8
 0 697 0 697 0 858 c 0,9,10
 0 1011 0 1011 94 1087 c 1,11,12
 184 1153 184 1153 342 1153 c 2,13,-1
 731 1153 l 1,14,-1
 731 1112 l 1,15,-1
 629 1112 l 1,16,-1
 629 -244 l 1,17,-1
 567 -244 l 1,0,-1
EndSplineSet
Validated: 1
EndChar

StartChar: periodcentered
Encoding: 183 183 106
AltUni2: 002219.ffffffff.0
Width: 338
GlyphClass: 2
Flags: W
LayerCount: 3
Fore
SplineSet
170 520 m 0,0,1
 201 520 201 520 221.5 498.5 c 128,-1,2
 242 477 242 477 242 449 c 0,3,4
 242 418 242 418 220.5 396.5 c 128,-1,5
 199 375 199 375 170 375 c 0,6,7
 137 375 137 375 116.5 395.5 c 128,-1,8
 96 416 96 416 96 449 c 0,9,10
 96 479 96 479 116.5 499.5 c 128,-1,11
 137 520 137 520 170 520 c 0,0,1
EndSplineSet
Validated: 1
EndChar

StartChar: guillemotright
Encoding: 187 187 107
Width: 655
GlyphClass: 2
Flags: W
LayerCount: 3
Fore
SplineSet
344 268 m 1,0,-1
 473 399 l 1,1,-1
 344 532 l 1,2,-1
 344 639 l 1,3,-1
 539 438 l 1,4,-1
 539 358 l 1,5,-1
 344 162 l 1,6,-1
 344 268 l 1,0,-1
115 268 m 1,7,-1
 244 399 l 1,8,-1
 115 532 l 1,9,-1
 115 639 l 1,10,-1
 309 438 l 1,11,-1
 309 358 l 1,12,-1
 115 162 l 1,13,-1
 115 268 l 1,7,-1
EndSplineSet
Validated: 1
EndChar

StartChar: multiply
Encoding: 215 215 108
Width: 696
GlyphClass: 2
Flags: W
LayerCount: 3
Fore
SplineSet
348 305 m 1,0,-1
 119 76 l 1,1,-1
 55 139 l 1,2,-1
 285 369 l 1,3,-1
 55 598 l 1,4,-1
 119 662 l 1,5,-1
 348 432 l 1,6,-1
 578 662 l 1,7,-1
 641 598 l 1,8,-1
 412 369 l 1,9,-1
 641 139 l 1,10,-1
 578 76 l 1,11,-1
 348 305 l 1,0,-1
EndSplineSet
Validated: 1
EndChar

StartChar: divide
Encoding: 247 247 109
Width: 696
GlyphClass: 2
Flags: W
LayerCount: 3
Fore
SplineSet
420 604 m 256,0,1
 420 575 420 575 398.5 553.5 c 128,-1,2
 377 532 377 532 348 532 c 256,3,4
 319 532 319 532 297.5 553.5 c 128,-1,5
 276 575 276 575 276 604 c 256,6,7
 276 633 276 633 297.5 654.5 c 128,-1,8
 319 676 319 676 348 676 c 256,9,10
 377 676 377 676 398.5 654.5 c 128,-1,11
 420 633 420 633 420 604 c 256,0,1
41 414 m 1,12,-1
 655 414 l 1,13,-1
 655 324 l 1,14,-1
 41 324 l 1,15,-1
 41 414 l 1,12,-1
420 133 m 256,16,17
 420 104 420 104 398.5 82.5 c 128,-1,18
 377 61 377 61 348 61 c 256,19,20
 319 61 319 61 297.5 82.5 c 128,-1,21
 276 104 276 104 276 133 c 256,22,23
 276 162 276 162 297.5 183.5 c 128,-1,24
 319 205 319 205 348 205 c 256,25,26
 377 205 377 205 398.5 183.5 c 128,-1,27
 420 162 420 162 420 133 c 256,16,17
EndSplineSet
Validated: 1
EndChar

StartChar: uni0E01
Encoding: 3585 3585 111
Width: 745
GlyphClass: 2
Flags: W
LayerCount: 3
Fore
SplineSet
365 748 m 128,-1,1
 325 748 325 748 292 735 c 128,-1,2
 259 722 259 722 235 699.5 c 128,-1,3
 211 677 211 677 198 646 c 128,-1,4
 185 615 185 615 185 578 c 2,5,-1
 185 0 l 1,6,-1
 77 0 l 1,7,-1
 77 586 l 2,8,9
 77 641 77 641 98 686 c 128,-1,10
 119 731 119 731 156.5 762.5 c 128,-1,11
 194 794 194 794 247.5 811.5 c 128,-1,12
 301 829 301 829 365 829 c 128,-1,13
 429 829 429 829 482.5 811.5 c 128,-1,14
 536 794 536 794 573.5 762.5 c 128,-1,15
 611 731 611 731 632 686 c 128,-1,16
 653 641 653 641 653 586 c 2,17,-1
 653 0 l 1,18,-1
 545 0 l 1,19,-1
 545 578 l 2,20,21
 545 615 545 615 532 646 c 128,-1,22
 519 677 519 677 495 699.5 c 128,-1,23
 471 722 471 722 438 735 c 128,-1,0
 405 748 405 748 365 748 c 128,-1,1
EndSplineSet
Validated: 1
EndChar

StartChar: uni0E02
Encoding: 3586 3586 112
Width: 702
GlyphClass: 2
Flags: W
LayerCount: 3
Fore
SplineSet
610 215 m 1,0,1
 610 162 610 162 591 120.5 c 128,-1,2
 572 79 572 79 537 50 c 128,-1,3
 502 21 502 21 452.5 5.5 c 128,-1,4
 403 -10 403 -10 342 -10 c 256,5,6
 281 -10 281 -10 231.5 5.5 c 128,-1,7
 182 21 182 21 146.5 50.5 c 128,-1,8
 111 80 111 80 91.5 121.5 c 128,-1,9
 72 163 72 163 72 215 c 2,10,-1
 72 510 l 2,11,12
 72 571 72 571 139 598 c 0,13,14
 207 625 207 625 207 666 c 2,15,-1
 207 676 l 2,16,17
 207 737 207 737 131 737 c 2,18,-1
 68 737 l 1,19,-1
 102 819 l 1,20,-1
 188 819 l 2,21,22
 313 819 313 819 313 702 c 2,23,-1
 313 659 l 2,24,25
 313 599 313 599 246 565 c 0,26,27
 180 530 180 530 180 494 c 2,28,-1
 180 223 l 2,29,30
 180 72 180 72 342 72 c 0,31,32
 502 72 502 72 502 223 c 2,33,-1
 502 819 l 1,34,-1
 610 819 l 1,35,-1
 610 215 l 1,36,-1
 610 215 l 1,0,1
EndSplineSet
Validated: 5
EndChar

StartChar: uni0E03
Encoding: 3587 3587 113
Width: 712
GlyphClass: 2
Flags: W
LayerCount: 3
Fore
SplineSet
621 215 m 1,0,1
 621 162 621 162 601.5 120.5 c 128,-1,2
 582 79 582 79 547 50 c 128,-1,3
 512 21 512 21 462.5 5.5 c 128,-1,4
 413 -10 413 -10 352 -10 c 0,5,6
 293 -10 293 -10 244 5.5 c 128,-1,7
 195 21 195 21 159.5 50.5 c 128,-1,8
 124 80 124 80 104 121.5 c 128,-1,9
 84 163 84 163 84 215 c 2,10,-1
 84 553 l 2,11,12
 84 631 84 631 162 694 c 1,13,14
 149 689 149 689 136 687.5 c 128,-1,15
 123 686 123 686 109 686 c 0,16,17
 20 686 20 686 -20 758 c 1,18,-1
 47 829 l 1,19,20
 68 774 68 774 152 774 c 0,21,22
 230 774 230 774 258 829 c 1,23,-1
 336 756 l 1,24,-1
 244 670 l 1,25,26
 190 610 190 610 190 553 c 2,27,-1
 190 223 l 2,28,29
 190 72 190 72 352 72 c 256,30,31
 514 72 514 72 514 223 c 2,32,-1
 514 819 l 1,33,-1
 621 819 l 1,34,-1
 621 215 l 1,35,-1
 621 215 l 1,0,1
EndSplineSet
Validated: 5
EndChar

StartChar: uni0E04
Encoding: 3588 3588 114
Width: 745
GlyphClass: 2
Flags: W
LayerCount: 3
Fore
SplineSet
545 578 m 2,0,1
 545 656 545 656 497.5 702 c 128,-1,2
 450 748 450 748 362 748 c 0,3,4
 278 748 278 748 229 702 c 128,-1,5
 180 656 180 656 180 578 c 2,6,-1
 180 467 l 1,7,-1
 397 467 l 1,8,-1
 397 375 l 1,9,-1
 180 375 l 1,10,-1
 180 0 l 1,11,-1
 72 0 l 1,12,-1
 72 584 l 2,13,14
 72 639 72 639 93.5 684.5 c 128,-1,15
 115 730 115 730 153.5 762 c 128,-1,16
 192 794 192 794 245.5 811.5 c 128,-1,17
 299 829 299 829 362 829 c 0,18,19
 426 829 426 829 479.5 811.5 c 128,-1,20
 533 794 533 794 571.5 762 c 128,-1,21
 610 730 610 730 631.5 684.5 c 128,-1,22
 653 639 653 639 653 584 c 2,23,-1
 653 0 l 1,24,-1
 545 0 l 1,25,-1
 545 578 l 2,0,1
EndSplineSet
Validated: 1
EndChar

StartChar: uni0E05
Encoding: 3589 3589 115
Width: 765
GlyphClass: 2
Flags: W
LayerCount: 3
Fore
SplineSet
567 616 m 2,0,1
 567 713 567 713 506 731 c 1,2,3
 465 651 465 651 373 651 c 256,4,5
 281 651 281 651 242 731 c 1,6,7
 180 713 180 713 180 616 c 2,8,-1
 180 467 l 1,9,-1
 397 467 l 1,10,-1
 397 375 l 1,11,-1
 180 375 l 1,12,-1
 180 0 l 1,13,-1
 72 0 l 1,14,-1
 72 635 l 2,15,16
 72 677 72 677 86.5 713 c 128,-1,17
 101 749 101 749 128 774.5 c 128,-1,18
 155 800 155 800 192.5 814.5 c 128,-1,19
 230 829 230 829 276 829 c 1,20,21
 276 812 276 812 283 796.5 c 128,-1,22
 290 781 290 781 302.5 768.5 c 128,-1,23
 315 756 315 756 333 748.5 c 128,-1,24
 351 741 351 741 373 741 c 256,25,26
 395 741 395 741 413 748.5 c 128,-1,27
 431 756 431 756 444 768.5 c 128,-1,28
 457 781 457 781 464 796.5 c 128,-1,29
 471 812 471 812 471 829 c 1,30,31
 517 829 517 829 554.5 814.5 c 128,-1,32
 592 800 592 800 618.5 774.5 c 128,-1,33
 645 749 645 749 659.5 713 c 128,-1,34
 674 677 674 677 674 635 c 2,35,-1
 674 0 l 1,36,-1
 567 0 l 1,37,-1
 567 616 l 2,0,1
EndSplineSet
Validated: 1
EndChar

StartChar: uni0E06
Encoding: 3590 3590 116
Width: 776
GlyphClass: 2
Flags: W
LayerCount: 3
Fore
SplineSet
684 223 m 1,0,1
 684 171 684 171 665.5 128 c 128,-1,2
 647 85 647 85 614 54.5 c 128,-1,3
 581 24 581 24 536.5 7 c 128,-1,4
 492 -10 492 -10 440 -10 c 0,5,6
 365 -10 365 -10 307 21 c 128,-1,7
 249 52 249 52 211 115 c 1,8,-1
 211 0 l 1,9,-1
 82 0 l 1,10,11
 93 26 93 26 97.5 50.5 c 128,-1,12
 102 75 102 75 102 98 c 2,13,-1
 102 594 l 2,14,15
 102 659 102 659 137 694 c 1,16,17
 119 688 119 688 98 688 c 0,18,19
 17 688 17 688 -23 758 c 1,20,-1
 45 829 l 1,21,22
 66 774 66 774 137 774 c 0,23,24
 205 774 205 774 236 829 c 1,25,-1
 313 754 l 1,26,27
 211 695 211 695 211 610 c 2,28,-1
 211 266 l 2,29,30
 211 188 211 188 279 129 c 0,31,32
 345 72 345 72 414 72 c 0,33,34
 486 72 486 72 530.5 117.5 c 128,-1,35
 575 163 575 163 575 242 c 2,36,-1
 575 819 l 1,37,-1
 684 819 l 1,38,-1
 684 223 l 1,39,-1
 684 223 l 1,0,1
EndSplineSet
Validated: 5
EndChar

StartChar: uni0E07
Encoding: 3591 3591 117
Width: 706
GlyphClass: 2
Flags: W
LayerCount: 3
Fore
SplineSet
631 436 m 0,0,1
 631 320 631 320 619 237.5 c 128,-1,2
 607 155 607 155 580 102 c 128,-1,3
 553 49 553 49 510.5 24.5 c 128,-1,4
 468 0 468 0 408 0 c 2,5,-1
 268 0 l 1,6,-1
 10 819 l 1,7,-1
 123 819 l 1,8,-1
 366 82 l 1,9,-1
 367 82 l 2,10,11
 410 82 410 82 439.5 99.5 c 128,-1,12
 469 117 469 117 487 158 c 128,-1,13
 505 199 505 199 512.5 266 c 128,-1,14
 520 333 520 333 520 432 c 0,15,16
 520 526 520 526 510.5 588.5 c 128,-1,17
 501 651 501 651 481 682 c 0,18,19
 445 737 445 737 344 737 c 2,20,-1
 283 737 l 1,21,-1
 336 819 l 1,22,-1
 403 819 l 2,23,24
 541 819 541 819 590 725 c 0,25,26
 631 645 631 645 631 436 c 0,0,1
EndSplineSet
Validated: 1
EndChar

StartChar: uni0E08
Encoding: 3592 3592 118
Width: 702
GlyphClass: 2
Flags: W
LayerCount: 3
Fore
SplineSet
633 436 m 0,0,1
 633 237 633 237 545 119 c 0,2,3
 456 0 456 0 330 0 c 2,4,-1
 258 0 l 1,5,-1
 122 354 l 1,6,7
 112 408 112 408 38 411 c 1,8,-1
 38 503 l 1,9,10
 183 514 183 514 220 419 c 2,11,-1
 354 82 l 1,12,13
 382 88 382 88 446 166 c 0,14,15
 482 211 482 211 500 274.5 c 128,-1,16
 518 338 518 338 520 420 c 0,17,18
 522 490 522 490 508 550.5 c 128,-1,19
 494 611 494 611 466 654.5 c 128,-1,20
 438 698 438 698 396.5 723 c 128,-1,21
 355 748 355 748 303 748 c 0,22,23
 229 748 229 748 174 702 c 0,24,25
 128 666 128 666 113 614 c 1,26,-1
 -10 614 l 1,27,28
 17 703 17 703 94 762 c 0,29,30
 182 829 182 829 311 829 c 0,31,32
 384 829 384 829 443.5 802 c 128,-1,33
 503 775 503 775 545 724 c 128,-1,34
 587 673 587 673 610 600 c 128,-1,35
 633 527 633 527 633 436 c 0,0,1
EndSplineSet
Validated: 33
EndChar

StartChar: uni0E09
Encoding: 3593 3593 119
Width: 743
GlyphClass: 2
Flags: W
LayerCount: 3
Fore
SplineSet
545 113 m 1,0,1
 483 -10 483 -10 326 -10 c 0,2,3
 273 -10 273 -10 226.5 6.5 c 128,-1,4
 180 23 180 23 145.5 54 c 128,-1,5
 111 85 111 85 91.5 129 c 128,-1,6
 72 173 72 173 72 227 c 2,7,-1
 72 373 l 2,8,9
 72 396 72 396 67 420.5 c 128,-1,10
 62 445 62 445 51 471 c 1,11,-1
 178 471 l 1,12,-1
 178 252 l 2,13,14
 178 69 178 69 360 72 c 0,15,16
 401 73 401 73 435 87.5 c 128,-1,17
 469 102 469 102 493.5 127.5 c 128,-1,18
 518 153 518 153 531.5 188.5 c 128,-1,19
 545 224 545 224 545 266 c 2,20,-1
 545 563 l 2,21,22
 545 605 545 605 531.5 639.5 c 128,-1,23
 518 674 518 674 493 698 c 128,-1,24
 468 722 468 722 433 735 c 128,-1,25
 398 748 398 748 356 748 c 0,26,27
 318 748 318 748 286 737.5 c 128,-1,28
 254 727 254 727 229.5 709 c 128,-1,29
 205 691 205 691 189 666.5 c 128,-1,30
 173 642 173 642 168 614 c 1,31,-1
 45 614 l 1,32,33
 60 700 60 700 145 764 c 0,34,35
 237 829 237 829 354 829 c 0,36,37
 418 829 418 829 472 812 c 128,-1,38
 526 795 526 795 566 763 c 128,-1,39
 606 731 606 731 628.5 685 c 128,-1,40
 651 639 651 639 651 582 c 2,41,-1
 651 98 l 2,42,43
 651 75 651 75 656 50.5 c 128,-1,44
 661 26 661 26 672 0 c 1,45,-1
 545 0 l 1,46,-1
 545 113 l 1,0,1
EndSplineSet
Validated: 33
EndChar

StartChar: uni0E0A
Encoding: 3594 3594 120
Width: 714
GlyphClass: 2
Flags: W
LayerCount: 3
Fore
SplineSet
623 215 m 1,0,1
 623 162 623 162 603 120.5 c 128,-1,2
 583 79 583 79 547 50 c 128,-1,3
 511 21 511 21 460 5.5 c 128,-1,4
 409 -10 409 -10 348 -10 c 0,5,6
 286 -10 286 -10 235 5.5 c 128,-1,7
 184 21 184 21 148 50 c 128,-1,8
 112 79 112 79 92 120.5 c 128,-1,9
 72 162 72 162 72 215 c 2,10,-1
 72 819 l 1,11,-1
 180 819 l 1,12,-1
 180 223 l 2,13,14
 180 72 180 72 348 72 c 0,15,16
 514 72 514 72 514 223 c 2,17,-1
 514 438 l 2,18,19
 514 468 514 468 502 493 c 128,-1,20
 490 518 490 518 467.5 535.5 c 128,-1,21
 445 553 445 553 414 563 c 128,-1,22
 383 573 383 573 346 573 c 2,23,-1
 279 573 l 1,24,-1
 279 655 l 1,25,-1
 346 655 l 2,26,27
 514 655 514 655 514 768 c 2,28,-1
 514 819 l 1,29,-1
 623 819 l 1,30,-1
 623 762 l 2,31,32
 623 634 623 634 444 614 c 1,33,34
 484 614 484 614 517 602 c 128,-1,35
 550 590 550 590 573.5 568.5 c 128,-1,36
 597 547 597 547 610 518 c 128,-1,37
 623 489 623 489 623 455 c 2,38,-1
 623 215 l 1,39,-1
 623 215 l 1,0,1
EndSplineSet
Validated: 5
EndChar

StartChar: uni0E0B
Encoding: 3595 3595 121
Width: 705
GlyphClass: 2
Flags: W
LayerCount: 3
Fore
SplineSet
633 215 m 1,0,1
 633 109 633 109 560 49.5 c 128,-1,2
 487 -10 487 -10 358 -10 c 0,3,4
 297 -10 297 -10 246.5 5.5 c 128,-1,5
 196 21 196 21 160 50 c 128,-1,6
 124 79 124 79 104 120.5 c 128,-1,7
 84 162 84 162 84 215 c 2,8,-1
 84 553 l 2,9,10
 84 631 84 631 162 694 c 1,11,12
 149 689 149 689 136 687.5 c 128,-1,13
 123 686 123 686 109 686 c 0,14,15
 20 686 20 686 -20 758 c 1,16,-1
 47 829 l 1,17,18
 68 774 68 774 152 774 c 0,19,20
 230 774 230 774 258 829 c 1,21,-1
 336 756 l 1,22,-1
 244 670 l 1,23,24
 190 610 190 610 190 553 c 2,25,-1
 190 223 l 2,26,27
 190 72 190 72 358 72 c 256,28,29
 526 72 526 72 526 223 c 2,30,-1
 526 438 l 2,31,32
 526 468 526 468 513.5 493 c 128,-1,33
 501 518 501 518 478.5 535.5 c 128,-1,34
 456 553 456 553 424.5 563 c 128,-1,35
 393 573 393 573 356 573 c 2,36,-1
 311 573 l 1,37,-1
 311 655 l 1,38,-1
 356 655 l 2,39,40
 526 655 526 655 526 768 c 2,41,-1
 526 819 l 1,42,-1
 633 819 l 1,43,-1
 633 762 l 2,44,45
 633 633 633 633 455 614 c 1,46,47
 495 614 495 614 527.5 602 c 128,-1,48
 560 590 560 590 583.5 568.5 c 128,-1,49
 607 547 607 547 620 518 c 128,-1,50
 633 489 633 489 633 455 c 2,51,-1
 633 215 l 1,52,-1
 633 215 l 1,0,1
EndSplineSet
Validated: 5
EndChar

StartChar: uni0E0C
Encoding: 3596 3596 122
Width: 1175
GlyphClass: 2
Flags: W
LayerCount: 3
Fore
SplineSet
77.05859375 491.34765625 m 1,0,-1
 77.05859375 491.34765625 l 1,1,-1
 77 586 l 2,2,3
 77 642 77 642 97.9829989049 685.963569082 c 0,4,5
 119 731 119 731 156.5 762.5 c 128,-1,6
 194 794 194 794 247.5 811.5 c 128,-1,7
 301 829 301 829 365 829 c 128,-1,8
 429 829 429 829 482.5 811.5 c 128,-1,9
 536 794 536 794 573.5 762.5 c 128,-1,10
 611 731 611 731 632 686 c 128,-1,11
 653 641 653 641 653 586 c 2,12,-1
 653 246 l 2,13,14
 653 171 653 171 713 117 c 0,15,16
 764 72 764 72 834 72 c 0,17,18
 975 72 975 72 975 221 c 2,19,-1
 975 819 l 1,20,-1
 1083 819 l 1,21,-1
 1083 203 l 1,22,-1
 1083 203 l 1,23,24
 1083 152 1083 152 1067 112 c 128,-1,25
 1051 72 1051 72 1021.5 45 c 128,-1,26
 992 18 992 18 951.5 4 c 128,-1,27
 911 -10 911 -10 862 -10 c 0,28,29
 734 -10 734 -10 653 94 c 1,30,-1
 653 0 l 1,31,-1
 524 0 l 1,32,33
 535 26 535 26 540 50.5 c 128,-1,34
 545 75 545 75 545 98 c 2,35,-1
 545 578 l 2,36,37
 545 615 545 615 532 646 c 128,-1,38
 519 677 519 677 495 699.5 c 128,-1,39
 471 722 471 722 438 735 c 128,-1,40
 405 748 405 748 365 748 c 128,-1,41
 325 748 325 748 292 735 c 128,-1,42
 259 722 259 722 235 699.5 c 0,43,44
 212 677 212 677 201 646 c 0,45,46
 188 612 188 612 188 578 c 2,47,-1
 188 490 l 1,48,-1
 188.578125 137 l 2,49,50
 189 86 189 86 241.578125 86 c 2,51,-1
 315.578125 86 l 1,52,-1
 315.578125 0 l 1,53,-1
 198.578125 0 l 2,54,55
 77.7789892642 -2.77555756156e-17 77.7789892642 -2.77555756156e-17 77.578125 137 c 2,56,-1
 77.05859375 491.34765625 l 1025,57,-1
185 499.485714286 m 1025,58,-1
EndSplineSet
Validated: 524291
EndChar

StartChar: uni0E0D
Encoding: 3597 3597 123
Width: 1175
GlyphClass: 2
Flags: W
LayerCount: 3
Fore
SplineSet
93 546 m 1029,0,-1
276 448 m 1025,1,-1
822 -184 m 1,2,-1
 792 -184 l 1,3,4
 596 -188 596 -188 568 -29 c 1,5,-1
 675 -29 l 1,6,7
 685 -108 685 -108 805 -105 c 2,8,-1
 821 -105 l 2,9,10
 890 -105 890 -105 912 -65 c 1,11,-1
 1018 -65 l 1,12,13
 956 -176 956 -176 822 -184 c 1,2,-1
77 528.693121693 m 1025,14,-1
77 528.693121693 m 1,15,-1
 77 586 l 2,16,17
 77 641 77 641 98 686 c 128,-1,18
 119 731 119 731 156.5 762.5 c 128,-1,19
 194 794 194 794 247.5 811.5 c 128,-1,20
 301 829 301 829 365 829 c 128,-1,21
 429 829 429 829 482.5 811.5 c 128,-1,22
 536 794 536 794 573.5 762.5 c 128,-1,23
 611 731 611 731 632 686 c 128,-1,24
 653 641 653 641 653 586 c 2,25,-1
 653 207 l 2,26,27
 653 137 653 137 705 102 c 0,28,29
 750 72 750 72 815 72 c 0,30,31
 975 72 975 72 975 207 c 2,32,-1
 975 819 l 1,33,-1
 1083 819 l 1,34,-1
 1083 203 l 1,35,-1
 1083 203 l 1,36,37
 1083 152 1083 152 1067 112 c 0,38,39
 1050 69 1050 69 1022 45 c 0,40,41
 999 25 999 25 943 5 c 0,42,43
 899 -10 899 -10 824 -10 c 2,44,-1
 801 -10 l 2,45,46
 698 -10 698 -10 627 37 c 0,47,48
 545 91 545 91 545 195 c 2,49,-1
 545 578 l 2,50,51
 545 615 545 615 532 646 c 128,-1,52
 519 677 519 677 495 699.5 c 128,-1,53
 471 722 471 722 438 735 c 128,-1,54
 405 748 405 748 365 748 c 128,-1,55
 325 748 325 748 292 735 c 0,56,57
 271.923076923 727.192307692 271.923076923 727.192307692 235 699.5 c 0,58,59
 234.621052632 699.263157895 234.621052632 699.263157895 200 646 c 0,60,61
 186 624 186 624 187 578 c 2,62,-1
 188 532 l 1,63,-1
 188.578125 137 l 2,64,65
 189 86 189 86 241.578125 86 c 2,66,-1
 315.578125 86 l 1,67,-1
 315.578125 0 l 1,68,-1
 198.578125 0 l 2,69,70
 77.778977947 -1.99840144433e-15 77.778977947 -1.99840144433e-15 77.578125 137 c 2,71,-1
 76.9990234375 532 l 1025,72,-1
EndSplineSet
Validated: 524323
Substitution2: "Single Substitution lookup 26 subtable" yoyingnobasethai
Substitution2: "Single Substitution lookup 25 subtable" yoyingnobasethai
Substitution2: "Single Substitution lookup 24 subtable" yoyingnobasethai
Substitution2: "Single Substitution lookup 23 subtable" yoyingnobasethai
Substitution2: "Single Substitution lookup 18 subtable" yoyingnobasethai
Substitution2: "Single Substitution lookup 17 subtable" yoyingnobasethai
Substitution2: "Single Substitution lookup 15 subtable" yoyingnobasethai
Substitution2: "Single Substitution lookup 14 subtable" yoyingnobasethai
Substitution2: "Single Substitution lookup 13 subtable" yoyingnobasethai
Substitution2: "Single Substitution lookup 12 subtable" yoyingnobasethai
Substitution2: "Single Substitution lookup 10 subtable" yoyingnobasethai
Substitution2: "Single Substitution lookup 9 subtable" yoyingnobasethai
Substitution2: "Single Substitution lookup 8 subtable" yoyingnobasethai
Substitution2: "Single Substitution lookup 7 subtable" yoyingnobasethai
Substitution2: "Single Substitution lookup 4 subtable" yoyingnobasethai
Substitution2: "Single Substitution lookup 3 subtable" yoyingnobasethai
Substitution2: "Single Substitution lookup 2 subtable" yoyingnobasethai
Substitution2: "Single Substitution lookup 1 subtable" yoyingnobasethai
Substitution2: "Single Substitution lookup 0 subtable" yoyingnobasethai
EndChar

StartChar: uni0E0E
Encoding: 3598 3598 124
Width: 755
GlyphClass: 2
Flags: W
LayerCount: 3
Fore
SplineSet
554 646 m 1024,0,-1
504 811.5 m 128,-1,2
 557 794 557 794 595 762.5 c 128,-1,3
 633 731 633 731 653.5 686 c 128,-1,4
 674 641 674 641 674 586 c 2,5,-1
 674 -287 l 1,6,-1
 565 -287 l 1,7,-1
 565 -287 l 1,8,9
 522 -221 522 -221 430 -193 c 1,10,11
 363 -276 363 -276 260 -287 c 256,12,13
 157 -298 157 -298 94 -252 c 1,14,-1
 94 -147 l 1,15,16
 157 -218 157 -218 252 -209 c 0,17,18
 359 -200 359 -200 397 -96 c 1,19,20
 503 -111 503 -111 567 -172 c 1,21,-1
 567 578 l 2,22,23
 567 615 567 615 555 646.5 c 128,-1,24
 543 678 543 678 518.5 700 c 128,-1,25
 494 722 494 722 460 735 c 0,26,27
 388 764 388 764 294 735 c 0,28,29
 261 724 261 724 235 700 c 0,30,31
 211 677 211 677 198 646 c 128,-1,32
 185 615 185 615 185 578 c 2,33,-1
 185 0 l 1,34,-1
 35 0 l 1,35,-1
 2 82 l 1,36,-1
 77 82 l 1,37,-1
 77 586 l 2,38,39
 77 641 77 641 98 686 c 128,-1,40
 119 731 119 731 156.5 762.5 c 128,-1,41
 194 794 194 794 258.5 811.5 c 128,-1,42
 323 829 323 829 387 829 c 128,-1,1
 451 829 451 829 504 811.5 c 128,-1,2
EndSplineSet
Validated: 37
Substitution2: "Single Substitution lookup 26 subtable" uni0E0E
Substitution2: "Single Substitution lookup 25 subtable" uni0E0E
Substitution2: "Single Substitution lookup 24 subtable" uni0E0E
Substitution2: "Single Substitution lookup 23 subtable" uni0E0E
Substitution2: "Single Substitution lookup 18 subtable" uni0E0E
Substitution2: "Single Substitution lookup 17 subtable" uni0E0E
Substitution2: "Single Substitution lookup 15 subtable" uni0E0E
Substitution2: "Single Substitution lookup 14 subtable" uni0E0E
Substitution2: "Single Substitution lookup 13 subtable" uni0E0E
Substitution2: "Single Substitution lookup 12 subtable" uni0E0E
Substitution2: "Single Substitution lookup 10 subtable" uni0E0E
Substitution2: "Single Substitution lookup 9 subtable" uni0E0E
Substitution2: "Single Substitution lookup 8 subtable" uni0E0E
Substitution2: "Single Substitution lookup 7 subtable" uni0E0E
Substitution2: "Single Substitution lookup 4 subtable" uni0E0E
Substitution2: "Single Substitution lookup 3 subtable" uni0E0E
Substitution2: "Single Substitution lookup 2 subtable" uni0E0E
Substitution2: "Single Substitution lookup 1 subtable" uni0E0E
Substitution2: "Single Substitution lookup 0 subtable" uni0E0E
EndChar

StartChar: uni0E0F
Encoding: 3599 3599 125
Width: 755
GlyphClass: 2
Flags: W
LayerCount: 3
Fore
SplineSet
462 735 m 0,0,1
 496 723 496 723 519.5 700.5 c 128,-1,2
 543 678 543 678 555 646.5 c 128,-1,3
 567 615 567 615 567 578 c 2,4,-1
 567 -201 l 1,5,-1
 479 -201 l 1,6,7
 458 -129 458 -129 367 -129 c 0,8,9
 273 -129 273 -129 248 -201 c 1,10,-1
 53 -201 l 1,11,-1
 53 -287 l 1,12,-1
 276 -287 l 1,13,14
 281 -256 281 -256 306 -233.5 c 128,-1,15
 331 -211 331 -211 367 -211 c 256,16,17
 403 -211 403 -211 428 -233.5 c 128,-1,18
 453 -256 453 -256 455 -287 c 1,19,-1
 455 -287 l 1,20,-1
 674 -287 l 1,21,-1
 674 586 l 2,22,23
 674 641 674 641 653.5 686 c 128,-1,24
 633 731 633 731 595 762.5 c 128,-1,25
 557 794 557 794 504 811.5 c 128,-1,26
 451 829 451 829 387 829 c 128,-1,27
 323 829 323 829 258.5 811.5 c 128,-1,28
 194 794 194 794 156.5 762.5 c 128,-1,29
 119 731 119 731 98 686 c 128,-1,30
 77 641 77 641 77 586 c 2,31,-1
 77 82 l 1,32,-1
 2 82 l 1,33,-1
 35 0 l 1,34,-1
 185 0 l 1,35,-1
 185 578 l 2,36,37
 185 615 185 615 198 646 c 128,-1,38
 211 677 211 677 235 700 c 0,39,40
 261 724 261 724 294 735 c 0,41,42
 390 764 390 764 462 735 c 0,0,1
554 646 m 1024,43,-1
EndSplineSet
Validated: 37
Substitution2: "Single Substitution lookup 26 subtable" uni0E0F
Substitution2: "Single Substitution lookup 25 subtable" uni0E0F
Substitution2: "Single Substitution lookup 24 subtable" uni0E0F
Substitution2: "Single Substitution lookup 23 subtable" uni0E0F
Substitution2: "Single Substitution lookup 18 subtable" uni0E0F
Substitution2: "Single Substitution lookup 17 subtable" uni0E0F
Substitution2: "Single Substitution lookup 15 subtable" uni0E0F
Substitution2: "Single Substitution lookup 14 subtable" uni0E0F
Substitution2: "Single Substitution lookup 13 subtable" uni0E0F
Substitution2: "Single Substitution lookup 12 subtable" uni0E0F
Substitution2: "Single Substitution lookup 10 subtable" uni0E0F
Substitution2: "Single Substitution lookup 9 subtable" uni0E0F
Substitution2: "Single Substitution lookup 8 subtable" uni0E0F
Substitution2: "Single Substitution lookup 7 subtable" uni0E0F
Substitution2: "Single Substitution lookup 4 subtable" uni0E0F
Substitution2: "Single Substitution lookup 3 subtable" uni0E0F
Substitution2: "Single Substitution lookup 2 subtable" uni0E0F
Substitution2: "Single Substitution lookup 1 subtable" uni0E0F
Substitution2: "Single Substitution lookup 0 subtable" uni0E0F
EndChar

StartChar: uni0E10
Encoding: 3600 3600 126
Width: 714
GlyphClass: 2
Flags: W
LayerCount: 3
Fore
SplineSet
682 881 m 1,0,1
 673 760 673 760 537 735 c 1,2,3
 633 627 633 627 633 436 c 0,4,5
 633 237 633 237 545 119 c 0,6,7
 456 0 456 0 330 0 c 2,8,-1
 203 0 l 1,9,-1
 154 376 l 2,10,11
 145 430 145 430 70 433 c 1,12,-1
 70 527 l 1,13,14
 241 527 241 527 252 441 c 2,15,-1
 299 82 l 1,16,17
 387 88 387 88 446 166 c 0,18,19
 482 211 482 211 500 274.5 c 128,-1,20
 518 338 518 338 520 420 c 0,21,22
 522 490 522 490 508 550.5 c 128,-1,23
 494 611 494 611 466 654.5 c 128,-1,24
 438 698 438 698 396.5 723 c 128,-1,25
 355 748 355 748 303 748 c 0,26,27
 229 748 229 748 174 702 c 0,28,29
 128 666 128 666 113 614 c 1,30,-1
 -10 614 l 1,31,32
 17 703 17 703 94 762 c 0,33,34
 182 829 182 829 311 829 c 0,35,36
 349 829 349 829 408 811 c 0,37,38
 465 793 465 793 492 793 c 0,39,40
 507 793 507 793 520 800 c 128,-1,41
 533 807 533 807 541.5 819 c 128,-1,42
 550 831 550 831 553.5 847 c 128,-1,43
 557 863 557 863 553 881 c 1,44,-1
 682 881 l 1,0,1
383 -246 m 1,45,46
 381 -215 381 -215 356 -192.5 c 128,-1,47
 331 -170 331 -170 295 -170 c 0,48,49
 260 -170 260 -170 235 -192.5 c 128,-1,50
 210 -215 210 -215 205 -246 c 1,51,-1
 33 -246 l 1,52,-1
 33 -160 l 1,53,-1
 176 -160 l 1,54,55
 189 -125 189 -125 218 -106.5 c 128,-1,56
 247 -88 247 -88 295 -88 c 0,57,58
 385 -88 385 -88 408 -160 c 1,59,-1
 485 -160 l 1,60,-1
 485 -61 l 1,61,-1
 592 -61 l 1,62,-1
 592 -246 l 1,63,-1
 383 -246 l 1,45,46
EndSplineSet
Validated: 33
Substitution2: "Single Substitution lookup 26 subtable" thothannobasethai
Substitution2: "Single Substitution lookup 25 subtable" thothannobasethai
Substitution2: "Single Substitution lookup 24 subtable" thothannobasethai
Substitution2: "Single Substitution lookup 23 subtable" thothannobasethai
Substitution2: "Single Substitution lookup 18 subtable" thothannobasethai
Substitution2: "Single Substitution lookup 17 subtable" thothannobasethai
Substitution2: "Single Substitution lookup 15 subtable" thothannobasethai
Substitution2: "Single Substitution lookup 14 subtable" thothannobasethai
Substitution2: "Single Substitution lookup 13 subtable" thothannobasethai
Substitution2: "Single Substitution lookup 12 subtable" thothannobasethai
Substitution2: "Single Substitution lookup 10 subtable" thothannobasethai
Substitution2: "Single Substitution lookup 9 subtable" thothannobasethai
Substitution2: "Single Substitution lookup 8 subtable" thothannobasethai
Substitution2: "Single Substitution lookup 7 subtable" thothannobasethai
Substitution2: "Single Substitution lookup 4 subtable" thothannobasethai
Substitution2: "Single Substitution lookup 3 subtable" thothannobasethai
Substitution2: "Single Substitution lookup 2 subtable" thothannobasethai
Substitution2: "Single Substitution lookup 1 subtable" thothannobasethai
Substitution2: "Single Substitution lookup 0 subtable" thothannobasethai
EndChar

StartChar: uni0E11
Encoding: 3601 3601 127
Width: 776
GlyphClass: 2
Flags: W
LayerCount: 3
Fore
SplineSet
596 582 m 2,0,1
 596 735 596 735 524 735 c 0,2,3
 442 735 442 735 334 451 c 0,4,5
 286 328 286 328 256 215.5 c 128,-1,6
 226 103 226 103 211 0 c 1,7,-1
 102 0 l 1,8,-1
 102 553 l 2,9,10
 102 664 102 664 137 694 c 1,11,12
 126 689 126 689 114.5 687.5 c 128,-1,13
 103 686 103 686 92 686 c 0,14,15
 17 686 17 686 -23 758 c 1,16,-1
 45 829 l 1,17,18
 66 774 66 774 137 774 c 0,19,20
 205 774 205 774 236 829 c 1,21,-1
 311 756 l 1,22,-1
 242 686 l 1,23,24
 211 640 211 640 211 553 c 2,25,-1
 211 307 l 1,26,27
 231 395 231 395 258.5 475 c 128,-1,28
 286 555 286 555 324 631 c 0,29,30
 424 829 424 829 528 829 c 0,31,32
 705 829 705 829 705 612 c 2,33,-1
 705 0 l 1,34,-1
 596 0 l 1,35,-1
 596 582 l 2,0,1
EndSplineSet
Validated: 1
EndChar

StartChar: uni0E12
Encoding: 3602 3602 128
Width: 1174
GlyphClass: 2
Flags: W
LayerCount: 3
Fore
SplineSet
298 821 m 1024,0,1
286 732 m 1024,2,3
694 584 m 2,4,5
 694 639 694 639 671.5 684.5 c 128,-1,6
 649 730 649 730 608 762 c 128,-1,7
 567 794 567 794 510 812 c 0,8,9
 478 821 478 821 443 826 c 1,10,-1
 373 719 l 1,11,-1
 298 821 l 1,12,13
 60 771 60 771 60 409 c 0,14,15
 60 -11 60 -11 357 -11 c 0,16,17
 417 -11 417 -11 441 -2 c 128,-1,18
 465 7 465 7 499 27 c 1,19,-1
 477 110 l 1,20,21
 435 71 435 71 357 71 c 0,22,23
 168 71 168 71 168 409 c 0,24,25
 168 676 168 676 286 732 c 1,26,-1
 381 579 l 1,27,-1
 466 736 l 1,28,-1
 466 736 l 1,29,30
 504 724 504 724 531 702 c 128,-1,31
 558 680 558 680 573 648.5 c 128,-1,32
 588 617 588 617 588 578 c 2,33,-1
 588 98 l 2,34,35
 588 75 588 75 583 50.5 c 128,-1,36
 578 26 578 26 567 0 c 1,37,-1
 694 0 l 1,38,-1
 694 94 l 1,39,40
 778 -10 778 -10 903 -10 c 0,41,42
 952 -10 952 -10 992.5 4 c 128,-1,43
 1033 18 1033 18 1062.5 45 c 128,-1,44
 1092 72 1092 72 1108 112 c 128,-1,45
 1124 152 1124 152 1124 203 c 1,46,-1
 1124 203 l 1,47,-1
 1124 819 l 1,48,-1
 1018 819 l 1,49,-1
 1018 221 l 2,50,51
 1018 72 1018 72 877 72 c 0,52,53
 803 72 803 72 754 117 c 0,54,55
 694 171 694 171 694 246 c 2,56,-1
 694 584 l 2,4,5
EndSplineSet
Validated: 5
EndChar

StartChar: uni0E13
Encoding: 3603 3603 129
Width: 1175
GlyphClass: 2
Flags: W
LayerCount: 3
Fore
SplineSet
188.578125 137 m 2,0,1
 188.652768987 86 188.652768987 86 241.578125 86 c 2,2,-1
 315.578125 86 l 1,3,-1
 315.578125 0 l 1,4,-1
 198.578125 0 l 2,5,6
 77.778977947 -1.99840144433e-15 77.778977947 -1.99840144433e-15 77.578125 137 c 2,7,-1
 77 586 l 2,8,9
 77 641 77 641 98 686 c 128,-1,10
 119 731 119 731 156.5 762.5 c 128,-1,11
 194 794 194 794 247.5 811.5 c 128,-1,12
 301 829 301 829 365 829 c 128,-1,13
 429 829 429 829 482.5 811.5 c 128,-1,14
 536 794 536 794 573.5 762.5 c 128,-1,15
 611 731 611 731 632 686 c 128,-1,16
 653 641 653 641 653 586 c 2,17,-1
 653 229 l 2,18,19
 653 72 653 72 809 72 c 0,20,21
 842 72 842 72 872 84.5 c 128,-1,22
 902 97 902 97 925 119.5 c 128,-1,23
 948 142 948 142 961.5 174.5 c 128,-1,24
 975 207 975 207 975 246 c 2,25,-1
 975 819 l 1,26,-1
 1083 819 l 1,27,-1
 1083 98 l 2,28,29
 1083 52 1083 52 1104 0 c 1,30,-1
 975 0 l 1,31,-1
 975 92 l 1,32,33
 931 -10 931 -10 778 -10 c 0,34,35
 681 -10 681 -10 616 43 c 0,36,37
 581 72 581 72 563 112.5 c 128,-1,38
 545 153 545 153 545 207 c 2,39,-1
 545 578 l 2,40,41
 545 615 545 615 532 646 c 128,-1,42
 519 677 519 677 495 699.5 c 128,-1,43
 471 722 471 722 438 735 c 128,-1,44
 405 748 405 748 365 748 c 128,-1,45
 325 748 325 748 292 735 c 128,-1,46
 259 722 259 722 237 699 c 0,47,48
 213.045370295 673.95652349 213.045370295 673.95652349 200 645 c 0,49,50
 186.148484848 615.318181818 186.148484848 615.318181818 187 577 c 2,51,-1
 188.578125 137 l 2,0,1
194 407 m 1029,52,-1
EndSplineSet
Validated: 524321
EndChar

StartChar: uni0E14
Encoding: 3604 3604 130
Width: 786
GlyphClass: 2
Flags: W
LayerCount: 3
Fore
SplineSet
357 828 m 0,0,1
 370 829 370 829 383 829 c 0,2,3
 453 829 453 829 510 811.5 c 128,-1,4
 567 794 567 794 608 762 c 128,-1,5
 649 730 649 730 671.5 684.5 c 128,-1,6
 694 639 694 639 694 584 c 2,7,-1
 694 0 l 1,8,-1
 588 0 l 1,9,-1
 588 578 l 2,10,11
 588 617 588 617 573 648.5 c 128,-1,12
 558 680 558 680 531 702 c 128,-1,13
 504 724 504 724 466 736 c 128,-1,14
 428 748 428 748 383 748 c 0,15,16
 370 748 370 748 357 747 c 0,17,18
 168 747 168 747 168 409 c 256,19,20
 168 71 168 71 357 71 c 0,21,22
 435 71 435 71 477 110 c 1,23,-1
 499 27 l 1,24,25
 465 7 465 7 441 -2 c 128,-1,26
 417 -11 417 -11 357 -11 c 0,27,28
 60 -11 60 -11 60 409 c 0,29,30
 60 813 60 813 357 828 c 0,0,1
EndSplineSet
Validated: 1
EndChar

StartChar: uni0E15
Encoding: 3605 3605 131
Width: 786
GlyphClass: 2
Flags: W
LayerCount: 3
Fore
SplineSet
466 736 m 1,0,1
 466 736 466 736 466 736 c 1,2,3
 504 724 504 724 531 702 c 128,-1,4
 558 680 558 680 573 648.5 c 128,-1,5
 588 617 588 617 588 578 c 2,6,-1
 588 0 l 1,7,-1
 694 0 l 1,8,-1
 694 584 l 2,9,10
 694 639 694 639 671.5 684.5 c 128,-1,11
 649 730 649 730 608 762 c 0,12,13
 563 797 563 797 510 812 c 0,14,15
 478 821 478 821 443 826 c 1,16,-1
 373 719 l 1,17,-1
 298 823 l 1,18,19
 60 773 60 773 60 409 c 0,20,21
 60 -11 60 -11 357 -11 c 0,22,23
 417 -11 417 -11 441 -2 c 128,-1,24
 465 7 465 7 499 27 c 1,25,-1
 477 110 l 1,26,27
 435 71 435 71 357 71 c 0,28,29
 168 71 168 71 168 409 c 0,30,31
 168 668 168 668 289 727 c 1,32,-1
 381 579 l 1,33,-1
 466 736 l 1,0,1
EndSplineSet
Validated: 5
EndChar

StartChar: uni0E16
Encoding: 3606 3606 132
Width: 745
GlyphClass: 2
Flags: W
LayerCount: 3
Fore
SplineSet
188.17578125 396 m 1,0,-1
 188.5546875 137 l 2,1,2
 189 86 189 86 241.5546875 86 c 2,3,-1
 315.5546875 86 l 1,4,-1
 315.5546875 0 l 1,5,-1
 198.5546875 0 l 2,6,7
 77.755859375 0 77.755859375 0 77.5546875 137 c 2,8,-1
 77.1748046875 396 l 1025,9,-1
77.1748046875 396 m 1,10,-1
 77 494.546875 l 1,11,-1
 77 586 l 2,12,13
 77 641 77 641 98 686 c 128,-1,14
 119 731 119 731 156.5 762.5 c 128,-1,15
 194 794 194 794 247.5 811.5 c 128,-1,16
 301 829 301 829 365 829 c 128,-1,17
 429 829 429 829 482.5 811.5 c 128,-1,18
 536 794 536 794 573.5 762.5 c 128,-1,19
 611 731 611 731 632 686 c 128,-1,20
 653 641 653 641 653 586 c 2,21,-1
 653 0 l 1,22,-1
 545 0 l 1,23,-1
 545 578 l 2,24,25
 545 615 545 615 532 646 c 128,-1,26
 519 677 519 677 495 699.5 c 128,-1,27
 471 722 471 722 438 735 c 128,-1,28
 405 748 405 748 365 748 c 128,-1,29
 325 748 325 748 292 735 c 128,-1,30
 259 722 259 722 235 699.5 c 0,31,32
 217 682 217 682 201 649 c 0,33,34
 188 624 188 624 188 581 c 2,35,-1
 188 515.733398438 l 1,36,-1
 188.17578125 396 l 1025,37,-1
76.998046875 516.811523438 m 1025,38,-1
77 494.546666667 m 1025,39,-1
185 495.986666667 m 1025,40,-1
EndSplineSet
Validated: 524291
EndChar

StartChar: uni0E17
Encoding: 3607 3607 133
Width: 745
GlyphClass: 2
Flags: W
LayerCount: 3
Fore
SplineSet
545 557 m 2,0,1
 545 748 545 748 385 748 c 0,2,3
 344 748 344 748 307 733 c 128,-1,4
 270 718 270 718 241.5 691.5 c 128,-1,5
 213 665 213 665 196.5 629.5 c 128,-1,6
 180 594 180 594 180 553 c 2,7,-1
 180 0 l 1,8,-1
 72 0 l 1,9,-1
 72 721 l 2,10,11
 72 744 72 744 67 768.5 c 128,-1,12
 62 793 62 793 51 819 c 1,13,-1
 180 819 l 1,14,-1
 180 707 l 1,15,16
 257 829 257 829 422 829 c 0,17,18
 653 829 653 829 653 582 c 2,19,-1
 653 0 l 1,20,-1
 545 0 l 1,21,-1
 545 557 l 2,0,1
EndSplineSet
Validated: 1
EndChar

StartChar: uni0E18
Encoding: 3608 3608 134
Width: 733
GlyphClass: 2
Flags: W
LayerCount: 3
Fore
SplineSet
647 215 m 1,0,1
 647 163 647 163 625.5 121.5 c 128,-1,2
 604 80 604 80 565.5 50.5 c 128,-1,3
 527 21 527 21 473.5 5.5 c 128,-1,4
 420 -10 420 -10 356 -10 c 0,5,6
 294 -10 294 -10 241 5.5 c 128,-1,7
 188 21 188 21 149 50.5 c 128,-1,8
 110 80 110 80 88 121.5 c 128,-1,9
 66 163 66 163 66 215 c 2,10,-1
 66 410 l 1,11,-1
 174 410 l 1,12,-1
 174 223 l 2,13,14
 174 146 174 146 231 106 c 0,15,16
 281 72 281 72 356 72 c 0,17,18
 432 72 432 72 481 106 c 0,19,20
 539 146 539 146 539 223 c 2,21,-1
 539 317 l 2,22,23
 539 453 539 453 350 471 c 0,24,25
 61 498 61 498 61 633 c 0,26,27
 61 715 61 715 145 772 c 0,28,29
 227 829 227 829 346 829 c 0,30,31
 407 829 407 829 458.5 814 c 128,-1,32
 510 799 510 799 549 771 c 128,-1,33
 588 743 588 743 613.5 703 c 128,-1,34
 639 663 639 663 647 614 c 1,35,-1
 535 614 l 1,36,37
 531 642 531 642 515 666.5 c 128,-1,38
 499 691 499 691 474.5 708.5 c 128,-1,39
 450 726 450 726 418 736.5 c 128,-1,40
 386 747 386 747 350 748 c 0,41,42
 316 749 316 749 285 741 c 128,-1,43
 254 733 254 733 230 718 c 128,-1,44
 206 703 206 703 192.5 683 c 128,-1,45
 179 663 179 663 180 641 c 0,46,47
 183 572 183 572 399 551 c 0,48,49
 647 527 647 527 647 350 c 2,50,-1
 647 215 l 1,51,-1
 647 215 l 1,0,1
EndSplineSet
Validated: 37
EndChar

StartChar: uni0E19
Encoding: 3609 3609 135
Width: 745
GlyphClass: 2
Flags: W
LayerCount: 3
Fore
SplineSet
545 113 m 1,0,1
 486 -10 486 -10 326 -10 c 0,2,3
 217 -10 217 -10 147 57 c 0,4,5
 72 126 72 126 72 248 c 2,6,-1
 72 819 l 1,7,-1
 180 819 l 1,8,-1
 180 272 l 2,9,10
 180 72 180 72 362 72 c 0,11,12
 402 72 402 72 436 86.5 c 128,-1,13
 470 101 470 101 494 127 c 128,-1,14
 518 153 518 153 531.5 188.5 c 128,-1,15
 545 224 545 224 545 266 c 2,16,-1
 545 819 l 1,17,-1
 653 819 l 1,18,-1
 653 98 l 2,19,20
 653 75 653 75 658 50.5 c 128,-1,21
 663 26 663 26 674 0 c 1,22,-1
 545 0 l 1,23,-1
 545 113 l 1,0,1
EndSplineSet
Validated: 1
EndChar

StartChar: uni0E1A
Encoding: 3610 3610 136
Width: 745
GlyphClass: 2
Flags: W
LayerCount: 3
Fore
SplineSet
653 236 m 1,0,1
 653 180 653 180 631.5 134.5 c 128,-1,2
 610 89 610 89 571.5 57 c 128,-1,3
 533 25 533 25 479.5 7.5 c 128,-1,4
 426 -10 426 -10 362 -10 c 0,5,6
 299 -10 299 -10 245.5 7.5 c 128,-1,7
 192 25 192 25 153.5 57 c 128,-1,8
 115 89 115 89 93.5 134.5 c 128,-1,9
 72 180 72 180 72 236 c 2,10,-1
 72 819 l 1,11,-1
 180 819 l 1,12,-1
 180 242 l 2,13,14
 180 163 180 163 228.5 117.5 c 128,-1,15
 277 72 277 72 362 72 c 0,16,17
 450 72 450 72 497.5 117.5 c 128,-1,18
 545 163 545 163 545 242 c 2,19,-1
 545 819 l 1,20,-1
 653 819 l 1,21,-1
 653 236 l 1,22,-1
 653 236 l 1,0,1
EndSplineSet
Validated: 5
EndChar

StartChar: uni0E1B
Encoding: 3611 3611 137
Width: 745
GlyphClass: 2
Flags: W
LayerCount: 3
Fore
SplineSet
653 236 m 1,0,1
 653 180 653 180 631.5 134.5 c 128,-1,2
 610 89 610 89 571.5 57 c 128,-1,3
 533 25 533 25 479.5 7.5 c 128,-1,4
 426 -10 426 -10 362 -10 c 0,5,6
 299 -10 299 -10 245.5 7.5 c 128,-1,7
 192 25 192 25 153.5 57 c 128,-1,8
 115 89 115 89 93.5 134.5 c 128,-1,9
 72 180 72 180 72 236 c 2,10,-1
 72 819 l 1,11,-1
 180 819 l 1,12,-1
 180 242 l 2,13,14
 180 163 180 163 228.5 117.5 c 128,-1,15
 277 72 277 72 362 72 c 0,16,17
 450 72 450 72 497.5 117.5 c 128,-1,18
 545 163 545 163 545 242 c 2,19,-1
 545 1065 l 1,20,-1
 653 1065 l 1,21,-1
 653 236 l 1,22,-1
 653 236 l 1,0,1
EndSplineSet
Validated: 5
EndChar

StartChar: uni0E1C
Encoding: 3612 3612 138
Width: 890
GlyphClass: 2
Flags: W
LayerCount: 3
Fore
SplineSet
67 821 m 1,0,-1
 185 0 l 1,1,-1
 299 0 l 1,2,-1
 426 735 l 1,3,-1
 558 0 l 1,4,-1
 673 0 l 1,5,-1
 778 819 l 1,6,-1
 665 819 l 1,7,-1
 613 186 l 1,8,-1
 488 819 l 1,9,-1
 371 819 l 1,10,-1
 246 186 l 1,11,-1
 175 729 l 1,12,-1
 271 729 l 1,13,-1
 241 821 l 1,14,-1
 67 821 l 1,0,-1
EndSplineSet
Validated: 9
EndChar

StartChar: uni0E1D
Encoding: 3613 3613 139
Width: 870
GlyphClass: 2
Flags: W
LayerCount: 3
Fore
SplineSet
67 820 m 1,0,-1
 185 0 l 1,1,-1
 299 0 l 1,2,-1
 426 735 l 1,3,-1
 558 0 l 1,4,-1
 673 0 l 1,5,-1
 778 1065 l 1,6,-1
 665 1065 l 1,7,-1
 613 186 l 1,8,-1
 488 819 l 1,9,-1
 371 819 l 1,10,-1
 246 186 l 1,11,-1
 175 728 l 1,12,-1
 271 728 l 1,13,-1
 241 820 l 1,14,-1
 67 820 l 1,0,-1
EndSplineSet
Validated: 9
EndChar

StartChar: uni0E1E
Encoding: 3614 3614 140
Width: 890
GlyphClass: 2
Flags: W
LayerCount: 3
Fore
SplineSet
558 0 m 1,0,-1
 426 735 l 1,1,-1
 299 0 l 1,2,-1
 185 0 l 1,3,-1
 67 819 l 1,4,-1
 180 819 l 1,5,-1
 246 186 l 1,6,-1
 371 819 l 1,7,-1
 488 819 l 1,8,-1
 613 186 l 1,9,-1
 665 819 l 1,10,-1
 778 819 l 1,11,-1
 673 0 l 1,12,-1
 558 0 l 1,0,-1
EndSplineSet
Validated: 1
EndChar

StartChar: uni0E1F
Encoding: 3615 3615 141
Width: 890
GlyphClass: 2
Flags: W
LayerCount: 3
Fore
SplineSet
558 0 m 1,0,-1
 426 735 l 1,1,-1
 299 0 l 1,2,-1
 185 0 l 1,3,-1
 67 819 l 1,4,-1
 180 819 l 1,5,-1
 246 186 l 1,6,-1
 371 819 l 1,7,-1
 488 819 l 1,8,-1
 613 186 l 1,9,-1
 665 1065 l 1,10,-1
 778 1065 l 1,11,-1
 673 0 l 1,12,-1
 558 0 l 1,0,-1
EndSplineSet
Validated: 1
EndChar

StartChar: uni0E20
Encoding: 3616 3616 142
Width: 765
GlyphClass: 2
Flags: W
LayerCount: 3
Fore
SplineSet
460 735 m 0,0,1
 493 722 493 722 517 699.5 c 128,-1,2
 541 677 541 677 554 646 c 128,-1,3
 567 615 567 615 567 578 c 2,4,-1
 567 0 l 1,5,-1
 674 0 l 1,6,-1
 674 586 l 2,7,8
 674 641 674 641 653.5 686 c 128,-1,9
 633 731 633 731 595 762.5 c 128,-1,10
 557 794 557 794 504 811.5 c 128,-1,11
 451 829 451 829 387 829 c 128,-1,12
 323 829 323 829 258.5 811.5 c 128,-1,13
 194 794 194 794 156.5 762.5 c 128,-1,14
 119 731 119 731 98 686 c 128,-1,15
 77 641 77 641 77 586 c 2,16,-1
 77 82 l 1,17,-1
 2 82 l 1,18,-1
 35 0 l 1,19,-1
 185 0 l 1,20,-1
 185 578 l 2,21,22
 185 615 185 615 198 646 c 128,-1,23
 211 677 211 677 235 700 c 0,24,25
 261 724 261 724 294 735 c 0,26,27
 388 764 388 764 460 735 c 0,0,1
EndSplineSet
Validated: 41
EndChar

StartChar: uni0E21
Encoding: 3617 3617 143
Width: 745
GlyphClass: 2
Flags: W
LayerCount: 3
Fore
SplineSet
653 223 m 1,0,1
 653 171 653 171 634.5 128 c 128,-1,2
 616 85 616 85 583 54.5 c 128,-1,3
 550 24 550 24 505.5 7 c 128,-1,4
 461 -10 461 -10 410 -10 c 0,5,6
 257 -10 257 -10 180 115 c 1,7,-1
 180 0 l 1,8,-1
 51 0 l 1,9,10
 62 26 62 26 67 50.5 c 128,-1,11
 72 75 72 75 72 98 c 2,12,-1
 72 819 l 1,13,-1
 180 819 l 1,14,-1
 180 266 l 2,15,16
 180 188 180 188 248 129 c 0,17,18
 314 72 314 72 383 72 c 0,19,20
 455 72 455 72 500 117.5 c 128,-1,21
 545 163 545 163 545 242 c 2,22,-1
 545 819 l 1,23,-1
 653 819 l 1,24,-1
 653 223 l 1,25,-1
 653 223 l 1,0,1
EndSplineSet
Validated: 5
EndChar

StartChar: uni0E22
Encoding: 3618 3618 144
Width: 735
GlyphClass: 2
Flags: W
LayerCount: 3
Fore
SplineSet
643 236 m 1,0,1
 643 180 643 180 621.5 134.5 c 128,-1,2
 600 89 600 89 562 57 c 128,-1,3
 524 25 524 25 470 7.5 c 128,-1,4
 416 -10 416 -10 352 -10 c 0,5,6
 287 -10 287 -10 233.5 7.5 c 128,-1,7
 180 25 180 25 142 57 c 128,-1,8
 104 89 104 89 82.5 134.5 c 128,-1,9
 61 180 61 180 61 236 c 2,10,-1
 61 297 l 2,11,12
 61 331 61 331 72.5 361.5 c 128,-1,13
 84 392 84 392 105 416 c 128,-1,14
 126 440 126 440 155 454.5 c 128,-1,15
 184 469 184 469 219 471 c 1,16,17
 185 474 185 474 156.5 486 c 128,-1,18
 128 498 128 498 107 518.5 c 128,-1,19
 86 539 86 539 74 567 c 128,-1,20
 62 595 62 595 61 629 c 0,21,22
 60 668 60 668 75 702.5 c 128,-1,23
 90 737 90 737 117.5 763 c 128,-1,24
 145 789 145 789 183 804 c 128,-1,25
 221 819 221 819 266 819 c 2,26,-1
 354 819 l 1,27,-1
 412 733 l 1,28,-1
 301 733 l 2,29,30
 167 733 167 733 170 623 c 0,31,32
 173 564 173 564 227 532 c 0,33,34
 275 507 275 507 340 512 c 2,35,-1
 406 516 l 1,36,-1
 406 430 l 1,37,-1
 340 430 l 2,38,39
 302 430 302 430 271 420 c 128,-1,40
 240 410 240 410 217.5 392.5 c 128,-1,41
 195 375 195 375 182.5 350 c 128,-1,42
 170 325 170 325 170 295 c 2,43,-1
 170 242 l 2,44,45
 170 163 170 163 218.5 117.5 c 128,-1,46
 267 72 267 72 352 72 c 0,47,48
 440 72 440 72 487.5 117.5 c 128,-1,49
 535 163 535 163 535 242 c 2,50,-1
 535 819 l 1,51,-1
 643 819 l 1,52,-1
 643 236 l 1,53,-1
 643 236 l 1,0,1
EndSplineSet
Validated: 37
EndChar

StartChar: uni0E23
Encoding: 3619 3619 145
Width: 682
GlyphClass: 2
Flags: W
LayerCount: 3
Fore
SplineSet
618 240 m 0,0,1
 618 181 618 181 598 134.5 c 128,-1,2
 578 88 578 88 540.5 56 c 128,-1,3
 503 24 503 24 450.5 7 c 128,-1,4
 398 -10 398 -10 334 -10 c 0,5,6
 267 -10 267 -10 212 7.5 c 128,-1,7
 157 25 157 25 118 58.5 c 128,-1,8
 79 92 79 92 58.5 140 c 128,-1,9
 38 188 38 188 39 250 c 1,10,-1
 158 250 l 1,11,12
 154 212 154 212 166 180 c 128,-1,13
 178 148 178 148 202 124.5 c 128,-1,14
 226 101 226 101 259 87.5 c 128,-1,15
 292 74 292 74 330 74 c 0,16,17
 367 74 367 74 399 85 c 128,-1,18
 431 96 431 96 455 115.5 c 128,-1,19
 479 135 479 135 492.5 162.5 c 128,-1,20
 506 190 506 190 506 223 c 0,21,22
 506 353 506 353 311 395 c 0,23,24
 61 450 61 450 61 606 c 0,25,26
 61 704 61 704 143 768 c 0,27,28
 219 829 219 829 330 829 c 0,29,30
 384 829 384 829 431.5 813.5 c 128,-1,31
 479 798 479 798 514.5 770 c 128,-1,32
 550 742 550 742 572 702 c 128,-1,33
 594 662 594 662 598 614 c 1,34,-1
 487 614 l 1,35,36
 486 642 486 642 473 666.5 c 128,-1,37
 460 691 460 691 438.5 709 c 128,-1,38
 417 727 417 727 389 737.5 c 128,-1,39
 361 748 361 748 330 748 c 0,40,41
 298 748 298 748 270 738 c 128,-1,42
 242 728 242 728 220.5 710.5 c 128,-1,43
 199 693 199 693 186.5 669.5 c 128,-1,44
 174 646 174 646 174 618 c 0,45,46
 174 556 174 556 233 520 c 0,47,48
 274 495 274 495 383 471 c 0,49,50
 618 419 618 419 618 240 c 0,0,1
EndSplineSet
Validated: 33
EndChar

StartChar: uni0E24
Encoding: 3620 3620 146
Width: 745
GlyphClass: 2
Flags: W
LayerCount: 3
Fore
SplineSet
77 550 m 1025,0,-1
367 541 m 1029,1,-1
77 513 m 1025,2,-1
77 500 m 1,3,-1
 77 586 l 2,4,5
 77 641 77 641 98 686 c 128,-1,6
 119 731 119 731 156.5 762.5 c 128,-1,7
 194 794 194 794 247.5 811.5 c 128,-1,8
 301 829 301 829 365 829 c 128,-1,9
 429 829 429 829 482.5 811.5 c 128,-1,10
 536 794 536 794 573.5 762.5 c 128,-1,11
 611 731 611 731 632 686 c 128,-1,12
 653 641 653 641 653 586 c 2,13,-1
 653 -287 l 1,14,-1
 545 -287 l 1,15,-1
 545 578 l 2,16,17
 545 615 545 615 532 646 c 128,-1,18
 519 677 519 677 495 699.5 c 128,-1,19
 471 722 471 722 438 735 c 128,-1,20
 405 748 405 748 365 748 c 128,-1,21
 325 748 325 748 292 735 c 128,-1,22
 259 722 259 722 235 699.5 c 0,23,24
 217 682 217 682 202.0078125 647.015625 c 0,25,26
 188 615 188 615 188 576 c 2,27,-1
 188 532 l 1,28,-1
 188.578125 137 l 2,29,30
 188.652768987 86 188.652768987 86 241.578125 86 c 2,31,-1
 315.578125 86 l 1,32,-1
 315.578125 0 l 1,33,-1
 198.578125 0 l 2,34,35
 77.778977947 -1.99840144433e-15 77.778977947 -1.99840144433e-15 77.578125 137 c 2,36,-1
 76.9990234375 532 l 1025,37,-1
EndSplineSet
Validated: 524291
EndChar

StartChar: uni0E25
Encoding: 3621 3621 147
Width: 741
GlyphClass: 2
Flags: W
LayerCount: 3
Fore
SplineSet
34 241 m 0,0,1
 27 544 27 544 338 538 c 0,2,3
 480 535 480 535 548 433 c 1,4,-1
 548 571 l 2,5,6
 549 618 549 618 548 620 c 0,7,8
 548 644 548 644 538 662 c 0,9,10
 522 688 522 688 491 712 c 0,11,12
 469 728 469 728 438 738 c 0,13,14
 406 748 406 748 367 748 c 0,15,16
 295 748 295 748 260 736 c 0,17,18
 228 726 228 726 205 708 c 128,-1,19
 182 690 182 690 163 665.5 c 128,-1,20
 144 641 144 641 140 613 c 1,21,-1
 28 613 l 1,22,23
 34 659 34 659 58.5 699.5 c 128,-1,24
 83 740 83 740 121 768 c 0,25,26
 163 800 163 800 212 814 c 0,27,28
 272 832 272 832 347.5 830.5 c 128,-1,29
 423 829 423 829 476 813.5 c 128,-1,30
 529 798 529 798 567 769 c 128,-1,31
 605 740 605 740 627 698.5 c 128,-1,32
 649 657 649 657 649 606 c 2,33,-1
 649 0 l 1,34,-1
 541 0 l 1,35,-1
 541 246 l 2,36,37
 541 315 541 315 484 382 c 1,38,39
 412 456 412 456 330 451 c 0,40,41
 132 437 132 437 132 252 c 0,42,43
 132 169 132 169 200 121 c 0,44,45
 260 80 260 80 336 80 c 0,46,47
 378 80 378 80 422 92 c 1,48,-1
 362 0 l 1,49,50
 347 -2 347 -2 332 -3 c 128,-1,51
 317 -4 317 -4 303 -4 c 0,52,53
 186 -4 186 -4 117 53 c 0,54,55
 37 120 37 120 34 241 c 0,0,1
EndSplineSet
Validated: 33
EndChar

StartChar: uni0E26
Encoding: 3622 3622 148
Width: 745
GlyphClass: 2
Flags: W
LayerCount: 3
Fore
SplineSet
387 829 m 128,-1,1
 451 829 451 829 504 811.5 c 128,-1,2
 557 794 557 794 595 762.5 c 128,-1,3
 633 731 633 731 653.5 686 c 128,-1,4
 674 641 674 641 674 586 c 2,5,-1
 674 -287 l 1,6,-1
 567 -287 l 1,7,-1
 567 578 l 2,8,9
 567 615 567 615 554 646 c 128,-1,10
 541 677 541 677 517 699.5 c 128,-1,11
 493 722 493 722 460 735 c 0,12,13
 426 748 426 748 387 748 c 0,14,15
 341 750 341 750 294 735 c 0,16,17
 261 724 261 724 235 700 c 0,18,19
 211 677 211 677 198 646 c 128,-1,20
 185 615 185 615 185 578 c 2,21,-1
 185 0 l 1,22,-1
 35 0 l 1,23,-1
 2 82 l 1,24,-1
 77 82 l 1,25,-1
 77 586 l 2,26,27
 77 641 77 641 98 686 c 128,-1,28
 119 731 119 731 156.5 762.5 c 128,-1,29
 194 794 194 794 258.5 811.5 c 128,-1,0
 323 829 323 829 387 829 c 128,-1,1
EndSplineSet
Validated: 33
EndChar

StartChar: uni0E27
Encoding: 3623 3623 149
Width: 686
GlyphClass: 2
Flags: W
LayerCount: 3
Fore
SplineSet
614 410 m 0,0,1
 614 -10 614 -10 317 -10 c 0,2,3
 257 -10 257 -10 206.5 6.5 c 128,-1,4
 156 23 156 23 119.5 53.5 c 128,-1,5
 83 84 83 84 61 127.5 c 128,-1,6
 39 171 39 171 35 225 c 1,7,-1
 147 225 l 1,8,9
 163 72 163 72 317 72 c 0,10,11
 506 72 506 72 506 410 c 256,12,13
 506 748 506 748 317 748 c 0,14,15
 189 748 189 748 156 614 c 1,16,-1
 41 614 l 1,17,18
 49 661 49 661 73.5 700.5 c 128,-1,19
 98 740 98 740 134.5 768.5 c 128,-1,20
 171 797 171 797 218 813 c 128,-1,21
 265 829 265 829 317 829 c 0,22,23
 614 829 614 829 614 410 c 0,0,1
EndSplineSet
Validated: 1
EndChar

StartChar: uni0E28
Encoding: 3624 3624 150
Width: 755
GlyphClass: 2
Flags: W
LayerCount: 3
Fore
SplineSet
733 881 m 1,0,1
 733 782 733 782 584 752 c 1,2,3
 653 683 653 683 653 584 c 2,4,-1
 653 0 l 1,5,-1
 545 0 l 1,6,-1
 545 578 l 2,7,8
 545 656 545 656 497.5 702 c 128,-1,9
 450 748 450 748 362 748 c 0,10,11
 278 748 278 748 229 702 c 128,-1,12
 180 656 180 656 180 578 c 2,13,-1
 180 467 l 1,14,-1
 397 467 l 1,15,-1
 397 375 l 1,16,-1
 180 375 l 1,17,-1
 180 0 l 1,18,-1
 72 0 l 1,19,-1
 72 584 l 2,20,21
 72 639 72 639 93.5 684.5 c 128,-1,22
 115 730 115 730 153.5 762 c 128,-1,23
 192 794 192 794 245.5 811.5 c 128,-1,24
 299 829 299 829 362 829 c 0,25,26
 387 829 387 829 413.5 825 c 128,-1,27
 440 821 440 821 462.5 816.5 c 128,-1,28
 485 812 485 812 501.5 808.5 c 128,-1,29
 518 805 518 805 524 805 c 0,30,31
 601 805 601 805 604 881 c 1,32,-1
 733 881 l 1,33,-1
 733 881 l 1,0,1
EndSplineSet
Validated: 5
EndChar

StartChar: uni0E29
Encoding: 3625 3625 151
Width: 765
GlyphClass: 2
Flags: W
LayerCount: 3
Fore
SplineSet
653 389 m 1,0,-1
 653 236 l 2,1,2
 653 180 653 180 631.5 134.5 c 128,-1,3
 610 89 610 89 571.5 57 c 128,-1,4
 533 25 533 25 479.5 7.5 c 128,-1,5
 426 -10 426 -10 362 -10 c 0,6,7
 299 -10 299 -10 245.5 7.5 c 128,-1,8
 192 25 192 25 153.5 57 c 128,-1,9
 115 89 115 89 93.5 134.5 c 128,-1,10
 72 180 72 180 72 236 c 2,11,-1
 72 819 l 1,12,-1
 180 819 l 1,13,-1
 180 242 l 2,14,15
 180 163 180 163 228.5 117.5 c 128,-1,16
 277 72 277 72 362 72 c 0,17,18
 450 72 450 72 497.5 117.5 c 128,-1,19
 545 163 545 163 545 242 c 2,20,-1
 545 389 l 1,21,-1
 330 389 l 1,22,-1
 330 545 l 1,23,-1
 438 545 l 1,24,-1
 438 471 l 1,25,-1
 545 471 l 1,26,-1
 545 819 l 1,27,-1
 653 819 l 1,28,-1
 653 471 l 1,29,-1
 758 471 l 1,30,-1
 705 389 l 1,31,-1
 653 389 l 1,0,-1
EndSplineSet
Validated: 1
EndChar

StartChar: uni0E2A
Encoding: 3626 3626 152
Width: 761
GlyphClass: 2
Flags: W
LayerCount: 3
Fore
SplineSet
760 881 m 1,0,1
 750 758 750 758 604 735 c 1,2,3
 649 684 649 684 649 606 c 2,4,-1
 649 0 l 1,5,-1
 541 0 l 1,6,-1
 541 461 l 1,7,8
 504 430 504 430 299 383 c 0,9,10
 156 348 156 348 156 229 c 0,11,12
 156 156 156 156 211 117 c 0,13,14
 260 80 260 80 336 80 c 0,15,16
 378 80 378 80 422 92 c 1,17,-1
 362 0 l 1,18,19
 347 -2 347 -2 332 -3 c 128,-1,20
 317 -4 317 -4 303 -4 c 0,21,22
 186 -4 186 -4 117 53 c 0,23,24
 41 114 41 114 41 225 c 0,25,26
 41 313 41 313 106 381 c 0,27,28
 139 412 139 412 179 433.5 c 128,-1,29
 219 455 219 455 270 467 c 0,30,31
 350 486 350 486 392.5 497 c 128,-1,32
 435 508 435 508 442 510 c 0,33,34
 537 548 537 548 537 616 c 0,35,36
 537 644 537 644 525 668.5 c 128,-1,37
 513 693 513 693 491 710.5 c 128,-1,38
 469 728 469 728 437.5 738 c 128,-1,39
 406 748 406 748 367 748 c 0,40,41
 329 748 329 748 297.5 737.5 c 128,-1,42
 266 727 266 727 242.5 709 c 128,-1,43
 219 691 219 691 205 666.5 c 128,-1,44
 191 642 191 642 188 614 c 1,45,-1
 66 614 l 1,46,47
 72 660 72 660 96.5 699.5 c 128,-1,48
 121 739 121 739 160 767.5 c 128,-1,49
 199 796 199 796 250.5 812.5 c 128,-1,50
 302 829 302 829 362 829 c 0,51,52
 442 829 442 829 543 795 c 0,53,54
 548 793 548 793 551 793 c 128,-1,55
 554 793 554 793 559 793 c 0,56,57
 586 793 586 793 609.5 812 c 128,-1,58
 633 831 633 831 633 862 c 0,59,60
 633 867 633 867 633 871.5 c 128,-1,61
 633 876 633 876 631 881 c 1,62,-1
 760 881 l 1,63,-1
 760 881 l 1,0,1
EndSplineSet
Validated: 5
EndChar

StartChar: uni0E2B
Encoding: 3627 3627 153
Width: 765
GlyphClass: 2
Flags: W
LayerCount: 3
Fore
SplineSet
175 248 m 1,0,-1
 176 0 l 1,1,-1
 72 0 l 1,2,-1
 72 721 l 2,3,4
 72 744 72 744 67 768.5 c 128,-1,5
 62 793 62 793 51 819 c 1,6,-1
 176 819 l 1,7,-1
 174 491 l 1,8,-1
 525 819 l 1,9,-1
 674 819 l 1,10,-1
 486 658 l 1,11,-1
 542 662 l 1,12,13
 674 657 674 657 674 561 c 2,14,-1
 674 0 l 1,15,-1
 569 0 l 1,16,-1
 569 559 l 2,17,18
 569 593 569 593 518 602 c 0,19,20
 498 606 498 606 428 604 c 1,21,-1
 175 374 l 1,22,-1
 175 248 l 1,0,-1
EndSplineSet
Validated: 33
EndChar

StartChar: uni0E2C
Encoding: 3628 3628 154
Width: 870
GlyphClass: 2
Flags: W
LayerCount: 3
Fore
SplineSet
768 679 m 1,0,-1
 673 0 l 1,1,-1
 558 0 l 1,2,-1
 418 697 l 1,3,-1
 299 0 l 1,4,-1
 185 0 l 1,5,-1
 67 819 l 1,6,-1
 180 819 l 1,7,-1
 246 186 l 1,8,-1
 364 781 l 1,9,-1
 480 781 l 1,10,-1
 613 186 l 1,11,-1
 660 679 l 1,12,-1
 660 684 l 2,13,14
 660 714 660 714 648 739 c 128,-1,15
 636 764 636 764 614 781.5 c 128,-1,16
 592 799 592 799 561 809 c 128,-1,17
 530 819 530 819 492 819 c 2,18,-1
 424 819 l 1,19,-1
 424 901 l 1,20,-1
 492 901 l 2,21,22
 682 901 682 901 682 1012 c 2,23,-1
 682 1040 l 1,24,-1
 790 1040 l 1,25,-1
 790 1004 l 1,26,-1
 790 1004 l 1,27,28
 790 934 790 934 716 893 c 0,29,30
 688 877 688 877 657 869.5 c 128,-1,31
 626 862 626 862 590 860 c 1,32,33
 630 860 630 860 663 848 c 128,-1,34
 696 836 696 836 719 814.5 c 128,-1,35
 742 793 742 793 755 763.5 c 128,-1,36
 768 734 768 734 768 700 c 2,37,-1
 768 679 l 1,0,-1
EndSplineSet
Validated: 5
EndChar

StartChar: uni0E2D
Encoding: 3629 3629 155
Width: 725
GlyphClass: 2
Flags: WO
LayerCount: 3
Fore
SplineSet
61 407.25 m 5,0,1
 56 470 56 470 132.538461538 492 c 24,2,-1
 352 492 l 1,3,-1
 352 399 l 1,4,-1
 170 399 l 1,5,-1
 170 283 l 2,6,7
 170 183 170 183 217.5 127.5 c 128,-1,8
 265 72 265 72 352 72 c 0,9,10
 440 72 440 72 487.5 127.5 c 128,-1,11
 535 183 535 183 535 283 c 2,12,-1
 535 557 l 2,13,14
 535 748 535 748 352 748 c 0,15,16
 265 748 265 748 217.5 702 c 128,-1,17
 170 656 170 656 170 578 c 1,18,-1
 61 578 l 1,19,-1
 61 584 l 2,20,21
 61 639 61 639 82 684 c 128,-1,22
 103 729 103 729 141 761.5 c 128,-1,23
 179 794 179 794 233 811.5 c 128,-1,24
 287 829 287 829 352 829 c 0,25,26
 419 829 419 829 472.5 811 c 128,-1,27
 526 793 526 793 564 758.5 c 128,-1,28
 602 724 602 724 622.5 674.5 c 128,-1,29
 643 625 643 625 643 563 c 2,30,-1
 643 276 l 1,31,-1
 643 276 l 1,32,33
 643 208 643 208 623 154.5 c 128,-1,34
 603 101 603 101 565 64.5 c 128,-1,35
 527 28 527 28 473 9 c 128,-1,36
 419 -10 419 -10 352 -10 c 0,37,38
 284 -10 284 -10 230.5 9 c 128,-1,39
 177 28 177 28 139 64.5 c 128,-1,40
 101 101 101 101 81 154.5 c 128,-1,41
 61 208 61 208 61 276 c 2,42,-1
 61 407.5 l 1029,43,-1
61 407.5 m 1029,44,-1
132.538461538 492 m 1025,45,-1
EndSplineSet
EndChar

StartChar: uni0E2E
Encoding: 3630 3630 156
Width: 735
GlyphClass: 2
Flags: W
LayerCount: 3
Fore
SplineSet
711 881 m 1,0,1
 705 779 705 779 571 758 c 1,2,3
 643 692 643 692 643 584 c 2,4,-1
 643 276 l 2,5,6
 643 208 643 208 623 154.5 c 128,-1,7
 603 101 603 101 565 64.5 c 128,-1,8
 527 28 527 28 473 9 c 128,-1,9
 419 -10 419 -10 352 -10 c 0,10,11
 284 -10 284 -10 230.5 9 c 128,-1,12
 177 28 177 28 139 64.5 c 128,-1,13
 101 101 101 101 81 154.5 c 128,-1,14
 61 208 61 208 61 276 c 2,15,-1
 61 492 l 1,16,-1
 352 492 l 1,17,-1
 352 399 l 1,18,-1
 170 399 l 1,19,-1
 170 283 l 2,20,21
 170 183 170 183 217.5 127.5 c 128,-1,22
 265 72 265 72 352 72 c 0,23,24
 440 72 440 72 487.5 127.5 c 128,-1,25
 535 183 535 183 535 283 c 2,26,-1
 535 557 l 2,27,28
 535 748 535 748 352 748 c 0,29,30
 265 748 265 748 217.5 702 c 128,-1,31
 170 656 170 656 170 578 c 1,32,-1
 61 578 l 1,33,-1
 61 584 l 2,34,35
 61 639 61 639 82 684 c 128,-1,36
 103 729 103 729 141 761.5 c 128,-1,37
 179 794 179 794 233 811.5 c 128,-1,38
 287 829 287 829 352 829 c 0,39,40
 374 829 374 829 500 811 c 0,41,42
 579 799 579 799 582 881 c 1,43,-1
 711 881 l 1,44,-1
 711 881 l 1,0,1
EndSplineSet
Validated: 37
EndChar

StartChar: uni0E2F
Encoding: 3631 3631 157
Width: 618
GlyphClass: 2
Flags: W
LayerCount: 3
Fore
SplineSet
438 639 m 1,0,1
 421 604 421 604 369 573 c 0,2,3
 307 537 307 537 242 537 c 0,4,5
 193 537 193 537 149 550.5 c 128,-1,6
 105 564 105 564 72 588 c 128,-1,7
 39 612 39 612 19.5 644.5 c 128,-1,8
 0 677 0 677 0 715 c 0,9,10
 0 772 0 772 41 819 c 1,11,-1
 158 819 l 1,12,13
 117 780 117 780 117 729 c 0,14,15
 117 675 117 675 164 643 c 0,16,17
 204 615 204 615 264 618 c 0,18,19
 298 621 298 621 329.5 634.5 c 128,-1,20
 361 648 361 648 385 671 c 128,-1,21
 409 694 409 694 423.5 724.5 c 128,-1,22
 438 755 438 755 438 793 c 2,23,-1
 438 819 l 1,24,-1
 547 819 l 1,25,-1
 547 0 l 1,26,-1
 438 0 l 1,27,-1
 438 639 l 1,0,1
EndSplineSet
Validated: 33
EndChar

StartChar: uni0E30
Encoding: 3632 3632 158
Width: 350
GlyphClass: 2
Flags: W
LayerCount: 3
Fore
SplineSet
51 561 m 1,0,-1
 51 717 l 1,1,-1
 160 717 l 1,2,-1
 160 643 l 1,3,-1
 330 643 l 1,4,-1
 285 561 l 1,5,-1
 51 561 l 1,0,-1
51 102 m 1,6,-1
 51 258 l 1,7,-1
 160 258 l 1,8,-1
 160 184 l 1,9,-1
 330 184 l 1,10,-1
 285 102 l 1,11,-1
 51 102 l 1,6,-1
EndSplineSet
Validated: 1
EndChar

StartChar: uni0E31
Encoding: 3633 3633 159
Width: 0
GlyphClass: 2
Flags: W
LayerCount: 3
Fore
SplineSet
-394 960.00390625 m 0,0,1
 -395 1077 l 1,2,-1
 -287 1077 l 1,3,-1
 -287 993 l 1,4,-1
 55 993 l 1,5,-1
 55 911 l 1,6,-1
 -345 911 l 1,7,-1
 -345 911 l 0,8,9
 -388 915 -388 915 -394 960.00390625 c 0,0,1
-345 911 m 1025,10,-1
-395 972.508196721 m 1025,11,-1
EndSplineSet
Validated: 524293
Substitution2: "Single Substitution lookup 26 subtable" maihanakatleftthai
Substitution2: "Single Substitution lookup 25 subtable" maihanakatleftthai
Substitution2: "Single Substitution lookup 24 subtable" maihanakatleftthai
Substitution2: "Single Substitution lookup 23 subtable" maihanakatleftthai
Substitution2: "Single Substitution lookup 18 subtable" maihanakatleftthai
Substitution2: "Single Substitution lookup 17 subtable" maihanakatleftthai
Substitution2: "Single Substitution lookup 15 subtable" maihanakatleftthai
Substitution2: "Single Substitution lookup 14 subtable" maihanakatleftthai
Substitution2: "Single Substitution lookup 13 subtable" maihanakatleftthai
Substitution2: "Single Substitution lookup 12 subtable" maihanakatleftthai
Substitution2: "Single Substitution lookup 10 subtable" maihanakatleftthai
Substitution2: "Single Substitution lookup 9 subtable" maihanakatleftthai
Substitution2: "Single Substitution lookup 8 subtable" maihanakatleftthai
Substitution2: "Single Substitution lookup 7 subtable" maihanakatleftthai
Substitution2: "Single Substitution lookup 4 subtable" maihanakatleftthai
Substitution2: "Single Substitution lookup 3 subtable" maihanakatleftthai
Substitution2: "Single Substitution lookup 2 subtable" maihanakatleftthai
Substitution2: "Single Substitution lookup 1 subtable" maihanakatleftthai
Substitution2: "Single Substitution lookup 0 subtable" maihanakatleftthai
EndChar

StartChar: uni0E32
Encoding: 3634 3634 160
Width: 608
GlyphClass: 2
Flags: W
LayerCount: 3
Fore
SplineSet
408 563 m 2,0,1
 408 748 408 748 260 748 c 0,2,3
 227 748 227 748 199.5 736.5 c 128,-1,4
 172 725 172 725 152.5 706.5 c 128,-1,5
 133 688 133 688 122 663.5 c 128,-1,6
 111 639 111 639 111 614 c 1,7,-1
 0 614 l 1,8,9
 6 700 6 700 74 762 c 0,10,11
 150 829 150 829 258 829 c 0,12,13
 516 829 516 829 516 582 c 2,14,-1
 516 0 l 1,15,-1
 408 0 l 1,16,-1
 408 563 l 2,0,1
EndSplineSet
Validated: 1
Substitution2: "Single Substitution lookup 26 subtable" uni0E45
Substitution2: "Single Substitution lookup 25 subtable" uni0E45
Substitution2: "Single Substitution lookup 24 subtable" uni0E45
Substitution2: "Single Substitution lookup 23 subtable" uni0E45
Substitution2: "Single Substitution lookup 18 subtable" uni0E45
Substitution2: "Single Substitution lookup 17 subtable" uni0E45
Substitution2: "Single Substitution lookup 15 subtable" uni0E45
Substitution2: "Single Substitution lookup 14 subtable" uni0E45
Substitution2: "Single Substitution lookup 13 subtable" uni0E45
Substitution2: "Single Substitution lookup 12 subtable" uni0E45
Substitution2: "Single Substitution lookup 10 subtable" uni0E45
Substitution2: "Single Substitution lookup 9 subtable" uni0E45
Substitution2: "Single Substitution lookup 8 subtable" uni0E45
Substitution2: "Single Substitution lookup 7 subtable" uni0E45
Substitution2: "Single Substitution lookup 4 subtable" uni0E45
Substitution2: "Single Substitution lookup 3 subtable" uni0E45
Substitution2: "Single Substitution lookup 2 subtable" uni0E45
Substitution2: "Single Substitution lookup 1 subtable" uni0E45
Substitution2: "Single Substitution lookup 0 subtable" uni0E45
EndChar

StartChar: uni0E33
Encoding: 3635 3635 161
Width: 588
GlyphClass: 2
Flags: W
LayerCount: 3
Fore
SplineSet
-8 1020 m 0,0,1
 -8 969 -8 969 -42 940 c 128,-1,2
 -76 911 -76 911 -127 911 c 256,3,4
 -178 911 -178 911 -212 940 c 128,-1,5
 -246 969 -246 969 -246 1020 c 0,6,7
 -246 1069 -246 1069 -212 1098.5 c 128,-1,8
 -178 1128 -178 1128 -127 1128 c 256,9,10
 -76 1128 -76 1128 -42 1098.5 c 128,-1,11
 -8 1069 -8 1069 -8 1020 c 0,0,1
408 563 m 2,12,13
 408 748 408 748 260 748 c 0,14,15
 227 748 227 748 199.5 736.5 c 128,-1,16
 172 725 172 725 152.5 706.5 c 128,-1,17
 133 688 133 688 122 663.5 c 128,-1,18
 111 639 111 639 111 614 c 1,19,-1
 0 614 l 1,20,21
 6 700 6 700 74 762 c 0,22,23
 150 829 150 829 258 829 c 0,24,25
 516 829 516 829 516 582 c 2,26,-1
 516 0 l 1,27,-1
 408 0 l 1,28,-1
 408 563 l 2,12,13
-80 1020 m 256,29,30
 -80 1067 -80 1067 -127 1067 c 256,31,32
 -174 1067 -174 1067 -174 1020 c 256,33,34
 -174 973 -174 973 -127 973 c 256,35,36
 -80 973 -80 973 -80 1020 c 256,29,30
EndSplineSet
Validated: 1
Substitution2: "Single Substitution lookup 26 subtable" uni0E33_1
Substitution2: "Single Substitution lookup 25 subtable" uni0E33_1
Substitution2: "Single Substitution lookup 24 subtable" uni0E33_1
Substitution2: "Single Substitution lookup 23 subtable" uni0E33_1
Substitution2: "Single Substitution lookup 18 subtable" uni0E33_1
Substitution2: "Single Substitution lookup 17 subtable" uni0E33_1
Substitution2: "Single Substitution lookup 15 subtable" uni0E33_1
Substitution2: "Single Substitution lookup 14 subtable" uni0E33_1
Substitution2: "Single Substitution lookup 13 subtable" uni0E33_1
Substitution2: "Single Substitution lookup 12 subtable" uni0E33_1
Substitution2: "Single Substitution lookup 10 subtable" uni0E33_1
Substitution2: "Single Substitution lookup 9 subtable" uni0E33_1
Substitution2: "Single Substitution lookup 8 subtable" uni0E33_1
Substitution2: "Single Substitution lookup 7 subtable" uni0E33_1
Substitution2: "Single Substitution lookup 4 subtable" uni0E33_1
Substitution2: "Single Substitution lookup 3 subtable" uni0E33_1
Substitution2: "Single Substitution lookup 2 subtable" uni0E33_1
Substitution2: "Single Substitution lookup 1 subtable" uni0E33_1
Substitution2: "Single Substitution lookup 0 subtable" uni0E33_1
EndChar

StartChar: uni0E34
Encoding: 3636 3636 162
Width: 0
GlyphClass: 2
Flags: W
LayerCount: 3
Fore
SplineSet
-568 1015 m 5,0,-1
 -144 1017 l 5,1,-1
 -144 911 l 1,2,-1
 -621 911 l 1,3,-1
 -568 1015 l 5,0,-1
EndSplineSet
Validated: 1
Substitution2: "Single Substitution lookup 28 subtable" saraisp
Substitution2: "Single Substitution lookup 27 subtable" saraisp
Substitution2: "Single Substitution lookup 26 subtable" saraileftthai
Substitution2: "Single Substitution lookup 25 subtable" saraileftthai
Substitution2: "Single Substitution lookup 24 subtable" saraileftthai
Substitution2: "Single Substitution lookup 23 subtable" saraileftthai
Substitution2: "Single Substitution lookup 21 subtable" saraisp
Substitution2: "Single Substitution lookup 20 subtable" saraisp
Substitution2: "Single Substitution lookup 19 subtable" saraisp
Substitution2: "Single Substitution lookup 18 subtable" saraileftthai
Substitution2: "Single Substitution lookup 17 subtable" saraileftthai
Substitution2: "Single Substitution lookup 16 subtable" saraisp
Substitution2: "Single Substitution lookup 15 subtable" saraileftthai
Substitution2: "Single Substitution lookup 14 subtable" saraileftthai
Substitution2: "Single Substitution lookup 13 subtable" saraileftthai
Substitution2: "Single Substitution lookup 12 subtable" saraileftthai
Substitution2: "Single Substitution lookup 11 subtable" saraisp
Substitution2: "Single Substitution lookup 10 subtable" saraileftthai
Substitution2: "Single Substitution lookup 9 subtable" saraileftthai
Substitution2: "Single Substitution lookup 8 subtable" saraileftthai
Substitution2: "Single Substitution lookup 7 subtable" saraileftthai
Substitution2: "Single Substitution lookup 5 subtable" saraisp
Substitution2: "Single Substitution lookup 4 subtable" saraileftthai
Substitution2: "Single Substitution lookup 3 subtable" saraileftthai
Substitution2: "Single Substitution lookup 2 subtable" saraileftthai
Substitution2: "Single Substitution lookup 1 subtable" saraileftthai
Substitution2: "Single Substitution lookup 0 subtable" saraileftthai
EndChar

StartChar: uni0E35
Encoding: 3637 3637 163
Width: 0
GlyphClass: 2
Flags: W
LayerCount: 3
Fore
SplineSet
-552 994 m 5,0,-1
 -180 993 l 1,1,-1
 -180 1116 l 1,2,-1
 -72 1116 l 1,3,-1
 -72 911 l 1,4,-1
 -621 911 l 1,5,-1
 -552 994 l 5,0,-1
EndSplineSet
Validated: 1
Substitution2: "Single Substitution lookup 28 subtable" saraiisp
Substitution2: "Single Substitution lookup 27 subtable" saraiisp
Substitution2: "Single Substitution lookup 26 subtable" saraiileftthai
Substitution2: "Single Substitution lookup 25 subtable" saraiileftthai
Substitution2: "Single Substitution lookup 24 subtable" saraiileftthai
Substitution2: "Single Substitution lookup 23 subtable" saraiileftthai
Substitution2: "Single Substitution lookup 21 subtable" saraiisp
Substitution2: "Single Substitution lookup 20 subtable" saraiisp
Substitution2: "Single Substitution lookup 19 subtable" saraiisp
Substitution2: "Single Substitution lookup 18 subtable" saraiileftthai
Substitution2: "Single Substitution lookup 17 subtable" saraiileftthai
Substitution2: "Single Substitution lookup 16 subtable" saraiisp
Substitution2: "Single Substitution lookup 15 subtable" saraiileftthai
Substitution2: "Single Substitution lookup 14 subtable" saraiileftthai
Substitution2: "Single Substitution lookup 13 subtable" saraiileftthai
Substitution2: "Single Substitution lookup 12 subtable" saraiileftthai
Substitution2: "Single Substitution lookup 11 subtable" saraiisp
Substitution2: "Single Substitution lookup 10 subtable" saraiileftthai
Substitution2: "Single Substitution lookup 9 subtable" saraiileftthai
Substitution2: "Single Substitution lookup 8 subtable" saraiileftthai
Substitution2: "Single Substitution lookup 7 subtable" saraiileftthai
Substitution2: "Single Substitution lookup 5 subtable" saraiisp
Substitution2: "Single Substitution lookup 4 subtable" saraiileftthai
Substitution2: "Single Substitution lookup 3 subtable" saraiileftthai
Substitution2: "Single Substitution lookup 2 subtable" saraiileftthai
Substitution2: "Single Substitution lookup 1 subtable" saraiileftthai
Substitution2: "Single Substitution lookup 0 subtable" saraiileftthai
EndChar

StartChar: uni0E36
Encoding: 3638 3638 164
Width: 0
GlyphClass: 2
Flags: W
LayerCount: 3
Fore
SplineSet
-12 1020 m 0,0,1
 -12 997 -12 997 -20.5 977.5 c 128,-1,2
 -29 958 -29 958 -44.5 943 c 128,-1,3
 -60 928 -60 928 -81 919.5 c 128,-1,4
 -102 911 -102 911 -127 911 c 2,5,-1
 -621 911 l 1,6,-1
 -621 993 l 1,7,-1
 -236 993 l 1,8,9
 -240 1008 -240 1008 -240 1020 c 0,10,11
 -240 1042 -240 1042 -231 1061.5 c 128,-1,12
 -222 1081 -222 1081 -207 1096 c 128,-1,13
 -192 1111 -192 1111 -171.5 1119.5 c 128,-1,14
 -151 1128 -151 1128 -127 1128 c 256,15,16
 -103 1128 -103 1128 -82 1119.5 c 128,-1,17
 -61 1111 -61 1111 -45.5 1096 c 128,-1,18
 -30 1081 -30 1081 -21 1061.5 c 128,-1,19
 -12 1042 -12 1042 -12 1020 c 0,0,1
-78 1020 m 256,20,21
 -78 1067 -78 1067 -127 1067 c 256,22,23
 -176 1067 -176 1067 -176 1020 c 256,24,25
 -176 973 -176 973 -127 973 c 256,26,27
 -78 973 -78 973 -78 1020 c 256,20,21
EndSplineSet
Validated: 1
Substitution2: "Single Substitution lookup 26 subtable" saraueleftthai
Substitution2: "Single Substitution lookup 25 subtable" saraueleftthai
Substitution2: "Single Substitution lookup 24 subtable" saraueleftthai
Substitution2: "Single Substitution lookup 23 subtable" saraueleftthai
Substitution2: "Single Substitution lookup 18 subtable" saraueleftthai
Substitution2: "Single Substitution lookup 17 subtable" saraueleftthai
Substitution2: "Single Substitution lookup 15 subtable" saraueleftthai
Substitution2: "Single Substitution lookup 14 subtable" saraueleftthai
Substitution2: "Single Substitution lookup 13 subtable" saraueleftthai
Substitution2: "Single Substitution lookup 12 subtable" saraueleftthai
Substitution2: "Single Substitution lookup 10 subtable" saraueleftthai
Substitution2: "Single Substitution lookup 9 subtable" saraueleftthai
Substitution2: "Single Substitution lookup 8 subtable" saraueleftthai
Substitution2: "Single Substitution lookup 7 subtable" saraueleftthai
Substitution2: "Single Substitution lookup 4 subtable" saraueleftthai
Substitution2: "Single Substitution lookup 3 subtable" saraueleftthai
Substitution2: "Single Substitution lookup 2 subtable" saraueleftthai
Substitution2: "Single Substitution lookup 1 subtable" saraueleftthai
Substitution2: "Single Substitution lookup 0 subtable" saraueleftthai
EndChar

StartChar: uni0E37
Encoding: 3639 3639 165
Width: 0
GlyphClass: 2
Flags: W
LayerCount: 3
Fore
SplineSet
-621 993 m 1,0,-1
 -330 993 l 1,1,-1
 -330 1116 l 1,2,-1
 -244 1116 l 1,3,-1
 -244 993 l 1,4,-1
 -180 993 l 1,5,-1
 -180 1116 l 1,6,-1
 -72 1116 l 1,7,-1
 -72 911 l 1,8,-1
 -621 911 l 1,9,-1
 -621 993 l 1,0,-1
EndSplineSet
Validated: 1
Substitution2: "Single Substitution lookup 26 subtable" saraueeleftthai
Substitution2: "Single Substitution lookup 25 subtable" saraueeleftthai
Substitution2: "Single Substitution lookup 24 subtable" saraueeleftthai
Substitution2: "Single Substitution lookup 23 subtable" saraueeleftthai
Substitution2: "Single Substitution lookup 18 subtable" saraueeleftthai
Substitution2: "Single Substitution lookup 17 subtable" saraueeleftthai
Substitution2: "Single Substitution lookup 15 subtable" saraueeleftthai
Substitution2: "Single Substitution lookup 14 subtable" saraueeleftthai
Substitution2: "Single Substitution lookup 13 subtable" saraueeleftthai
Substitution2: "Single Substitution lookup 12 subtable" saraueeleftthai
Substitution2: "Single Substitution lookup 10 subtable" saraueeleftthai
Substitution2: "Single Substitution lookup 9 subtable" saraueeleftthai
Substitution2: "Single Substitution lookup 8 subtable" saraueeleftthai
Substitution2: "Single Substitution lookup 7 subtable" saraueeleftthai
Substitution2: "Single Substitution lookup 4 subtable" saraueeleftthai
Substitution2: "Single Substitution lookup 3 subtable" saraueeleftthai
Substitution2: "Single Substitution lookup 2 subtable" saraueeleftthai
Substitution2: "Single Substitution lookup 1 subtable" saraueeleftthai
Substitution2: "Single Substitution lookup 0 subtable" saraueeleftthai
EndChar

StartChar: uni0E38
Encoding: 3640 3640 166
Width: 0
GlyphClass: 2
Flags: W
LayerCount: 3
Fore
SplineSet
-180 -174 m 1,0,-1
 -268 -174 l 1,1,-1
 -268 -82 l 1,2,-1
 -72 -82 l 1,3,-1
 -72 -348 l 1,4,-1
 -180 -348 l 1,5,-1
 -180 -174 l 1,0,-1
EndSplineSet
Validated: 1
Substitution2: "Single Substitution lookup 28 subtable" a
Substitution2: "Single Substitution lookup 27 subtable" a
Substitution2: "Single Substitution lookup 26 subtable" saraulowthai
Substitution2: "Single Substitution lookup 25 subtable" saraulowthai
Substitution2: "Single Substitution lookup 24 subtable" saraulowthai
Substitution2: "Single Substitution lookup 23 subtable" saraulowthai
Substitution2: "Single Substitution lookup 21 subtable" a
Substitution2: "Single Substitution lookup 20 subtable" a
Substitution2: "Single Substitution lookup 19 subtable" a
Substitution2: "Single Substitution lookup 18 subtable" saraulowthai
Substitution2: "Single Substitution lookup 17 subtable" saraulowthai
Substitution2: "Single Substitution lookup 16 subtable" a
Substitution2: "Single Substitution lookup 15 subtable" saraulowthai
Substitution2: "Single Substitution lookup 14 subtable" saraulowthai
Substitution2: "Single Substitution lookup 13 subtable" saraulowthai
Substitution2: "Single Substitution lookup 12 subtable" saraulowthai
Substitution2: "Single Substitution lookup 11 subtable" a
Substitution2: "Single Substitution lookup 10 subtable" saraulowthai
Substitution2: "Single Substitution lookup 9 subtable" saraulowthai
Substitution2: "Single Substitution lookup 8 subtable" saraulowthai
Substitution2: "Single Substitution lookup 7 subtable" saraulowthai
Substitution2: "Single Substitution lookup 5 subtable" a
Substitution2: "Single Substitution lookup 4 subtable" saraulowthai
Substitution2: "Single Substitution lookup 3 subtable" saraulowthai
Substitution2: "Single Substitution lookup 2 subtable" saraulowthai
Substitution2: "Single Substitution lookup 1 subtable" saraulowthai
Substitution2: "Single Substitution lookup 0 subtable" saraulowthai
EndChar

StartChar: uni0E39
Encoding: 3641 3641 167
Width: 0
GlyphClass: 2
Flags: W
LayerCount: 3
Fore
SplineSet
-72 -233 m 1,0,1
 -72 -298 -72 -298 -133 -332 c 0,2,3
 -183 -360 -183 -360 -250 -360 c 0,4,5
 -319 -360 -319 -360 -371 -334 c 0,6,7
 -434 -300 -434 -300 -434 -238 c 2,8,-1
 -434 -174 l 1,9,-1
 -500 -174 l 1,10,-1
 -500 -82 l 1,11,-1
 -326 -82 l 1,12,-1
 -326 -223 l 2,13,14
 -326 -283 -326 -283 -250 -283 c 0,15,16
 -180 -283 -180 -283 -180 -223 c 2,17,-1
 -180 -82 l 1,18,-1
 -72 -82 l 1,19,-1
 -72 -233 l 1,20,-1
 -72 -233 l 1,0,1
EndSplineSet
Validated: 5
Substitution2: "Single Substitution lookup 28 subtable" b
Substitution2: "Single Substitution lookup 27 subtable" b
Substitution2: "Single Substitution lookup 26 subtable" sarauulowthai
Substitution2: "Single Substitution lookup 25 subtable" sarauulowthai
Substitution2: "Single Substitution lookup 24 subtable" sarauulowthai
Substitution2: "Single Substitution lookup 23 subtable" sarauulowthai
Substitution2: "Single Substitution lookup 21 subtable" b
Substitution2: "Single Substitution lookup 20 subtable" b
Substitution2: "Single Substitution lookup 19 subtable" b
Substitution2: "Single Substitution lookup 18 subtable" sarauulowthai
Substitution2: "Single Substitution lookup 17 subtable" sarauulowthai
Substitution2: "Single Substitution lookup 16 subtable" b
Substitution2: "Single Substitution lookup 15 subtable" sarauulowthai
Substitution2: "Single Substitution lookup 14 subtable" sarauulowthai
Substitution2: "Single Substitution lookup 13 subtable" sarauulowthai
Substitution2: "Single Substitution lookup 12 subtable" sarauulowthai
Substitution2: "Single Substitution lookup 11 subtable" b
Substitution2: "Single Substitution lookup 10 subtable" sarauulowthai
Substitution2: "Single Substitution lookup 9 subtable" sarauulowthai
Substitution2: "Single Substitution lookup 8 subtable" sarauulowthai
Substitution2: "Single Substitution lookup 7 subtable" sarauulowthai
Substitution2: "Single Substitution lookup 5 subtable" b
Substitution2: "Single Substitution lookup 4 subtable" sarauulowthai
Substitution2: "Single Substitution lookup 3 subtable" sarauulowthai
Substitution2: "Single Substitution lookup 2 subtable" sarauulowthai
Substitution2: "Single Substitution lookup 1 subtable" sarauulowthai
Substitution2: "Single Substitution lookup 0 subtable" sarauulowthai
EndChar

StartChar: uni0E3A
Encoding: 3642 3642 168
Width: 0
GlyphClass: 2
Flags: W
LayerCount: 3
Fore
SplineSet
-51 -154 m 256,0,1
 -51 -183 -51 -183 -72.5 -204 c 128,-1,2
 -94 -225 -94 -225 -123 -225 c 256,3,4
 -152 -225 -152 -225 -173.5 -204 c 128,-1,5
 -195 -183 -195 -183 -195 -154 c 256,6,7
 -195 -125 -195 -125 -173.5 -103.5 c 128,-1,8
 -152 -82 -152 -82 -123 -82 c 256,9,10
 -94 -82 -94 -82 -72.5 -103.5 c 128,-1,11
 -51 -125 -51 -125 -51 -154 c 256,0,1
EndSplineSet
Validated: 1
Substitution2: "Single Substitution lookup 28 subtable" c
Substitution2: "Single Substitution lookup 27 subtable" c
Substitution2: "Single Substitution lookup 26 subtable" phinthulowthai
Substitution2: "Single Substitution lookup 25 subtable" phinthulowthai
Substitution2: "Single Substitution lookup 24 subtable" phinthulowthai
Substitution2: "Single Substitution lookup 23 subtable" phinthulowthai
Substitution2: "Single Substitution lookup 21 subtable" c
Substitution2: "Single Substitution lookup 20 subtable" c
Substitution2: "Single Substitution lookup 19 subtable" c
Substitution2: "Single Substitution lookup 18 subtable" phinthulowthai
Substitution2: "Single Substitution lookup 17 subtable" phinthulowthai
Substitution2: "Single Substitution lookup 16 subtable" c
Substitution2: "Single Substitution lookup 15 subtable" phinthulowthai
Substitution2: "Single Substitution lookup 14 subtable" phinthulowthai
Substitution2: "Single Substitution lookup 13 subtable" phinthulowthai
Substitution2: "Single Substitution lookup 12 subtable" phinthulowthai
Substitution2: "Single Substitution lookup 11 subtable" c
Substitution2: "Single Substitution lookup 10 subtable" phinthulowthai
Substitution2: "Single Substitution lookup 9 subtable" phinthulowthai
Substitution2: "Single Substitution lookup 8 subtable" phinthulowthai
Substitution2: "Single Substitution lookup 7 subtable" phinthulowthai
Substitution2: "Single Substitution lookup 5 subtable" c
Substitution2: "Single Substitution lookup 4 subtable" phinthulowthai
Substitution2: "Single Substitution lookup 3 subtable" phinthulowthai
Substitution2: "Single Substitution lookup 2 subtable" phinthulowthai
Substitution2: "Single Substitution lookup 1 subtable" phinthulowthai
Substitution2: "Single Substitution lookup 0 subtable" phinthulowthai
EndChar

StartChar: uni0E3F
Encoding: 3647 3647 169
Width: 733
GlyphClass: 2
Flags: W
LayerCount: 3
Fore
SplineSet
680 289 m 0,0,1
 680 12 680 12 395 0 c 1,2,-1
 395 -150 l 1,3,-1
 334 -150 l 1,4,-1
 334 0 l 1,5,-1
 90 0 l 1,6,-1
 90 967 l 1,7,-1
 334 967 l 1,8,-1
 334 1098 l 1,9,-1
 397 1098 l 1,10,-1
 397 967 l 1,11,12
 509 964 509 964 580 907 c 0,13,14
 657 842 657 842 657 723 c 0,15,16
 657 562 657 562 498 510 c 1,17,18
 577 504 577 504 627 451 c 0,19,20
 680 392 680 392 680 289 c 0,0,1
532 717 m 0,21,22
 532 851 532 851 395 866 c 1,23,-1
 395 557 l 1,24,25
 532 581 532 581 532 717 c 0,21,22
207 870 m 1,26,-1
 207 553 l 1,27,-1
 334 553 l 1,28,-1
 334 870 l 1,29,-1
 207 870 l 1,26,-1
563 274 m 0,30,31
 563 435 563 435 395 455 c 1,32,-1
 395 96 l 1,33,34
 563 102 563 102 563 274 c 0,30,31
207 457 m 1,35,-1
 207 96 l 1,36,-1
 334 96 l 1,37,-1
 334 457 l 1,38,-1
 207 457 l 1,35,-1
EndSplineSet
Validated: 1
EndChar

StartChar: uni0E40
Encoding: 3648 3648 170
Width: 346
GlyphClass: 2
Flags: W
LayerCount: 3
Fore
SplineSet
209 137 m 6,0,1
 209 86 209 86 262 86 c 6,2,-1
 336 86 l 5,3,-1
 336 0 l 5,4,-1
 219 0 l 6,5,6
 98 0 98 0 98 137 c 6,7,-1
 97 819 l 5,8,-1
 208 820 l 5,9,-1
 209 137 l 6,0,1
EndSplineSet
Validated: 1
EndChar

StartChar: uni0E41
Encoding: 3649 3649 171
Width: 621
GlyphClass: 2
Flags: W
LayerCount: 3
Fore
SplineSet
395 0 m 1,0,-1
 395 819 l 1,1,-1
 502 819 l 1,2,-1
 502 82 l 1,3,-1
 596 82 l 1,4,-1
 561 0 l 1,5,-1
 395 0 l 1,0,-1
113 0 m 1,6,-1
 113 819 l 1,7,-1
 219 819 l 1,8,-1
 219 82 l 1,9,-1
 313 82 l 1,10,-1
 279 0 l 1,11,-1
 113 0 l 1,6,-1
EndSplineSet
Validated: 1
EndChar

StartChar: uni0E42
Encoding: 3650 3650 172
Width: 358
GlyphClass: 2
Flags: W
LayerCount: 3
Fore
SplineSet
240 1059 m 2,0,1
 240 1104 240 1104 188 1135 c 0,2,3
 137 1165 137 1165 137 1186 c 0,4,5
 137 1215 137 1215 219 1212 c 1,6,-1
 219 1212 l 1,7,-1
 487 1206 l 1,8,-1
 426 1294 l 1,9,-1
 199 1300 l 2,10,11
 159.257375776 1301.05046584 159.257375776 1301.05046584 133.5 1296 c 0,12,13
 103 1290 103 1290 78 1278 c 0,14,15
 20 1250 20 1250 20 1192 c 0,16,17
 20 1151 20 1151 76 1110 c 0,18,19
 133 1068 133 1068 133 1032 c 2,20,-1
 132 137 l 6,21,22
 131.806223479 -1.11022302463e-15 131.806223479 -1.11022302463e-15 253 0 c 2,23,-1
 370 0 l 1,24,-1
 370 86 l 1,25,-1
 296 86 l 2,26,27
 243 86 243 86 243 137 c 2,28,-1
 240 1059 l 2,0,1
EndSplineSet
Validated: 524325
EndChar

StartChar: uni0E43
Encoding: 3651 3651 173
Width: 358
GlyphClass: 2
Flags: W
LayerCount: 3
Fore
SplineSet
243 163 m 2,0,1
 243 86 243 86 296 86 c 2,2,-1
 370 86 l 1,3,-1
 370 0 l 1,4,-1
 253 0 l 2,5,6
 132.192426287 4.4408920985e-16 132.192426287 4.4408920985e-16 132 137 c 0,7,8
 131 848.9609375 131 848.9609375 131 991 c 0,9,10
 131 1049 131 1049 187 1092 c 128,-1,11
 243 1135 243 1135 240 1176 c 0,12,13
 234 1253 234 1253 139 1253 c 0,14,15
 116 1253 116 1253 96 1245.5 c 128,-1,16
 76 1238 76 1238 60.5 1224.5 c 128,-1,17
 45 1211 45 1211 36 1192.5 c 128,-1,18
 27 1174 27 1174 27 1153 c 1,19,-1
 -82 1153 l 1,20,21
 -84 1190 -84 1190 -67 1221 c 128,-1,22
 -50 1252 -50 1252 -18 1278 c 0,23,24
 47 1331 47 1331 135 1331 c 0,25,26
 181 1331 181 1331 221 1320 c 128,-1,27
 261 1309 261 1309 290.5 1288.5 c 128,-1,28
 320 1268 320 1268 337 1238 c 128,-1,29
 354 1208 354 1208 354 1171 c 0,30,31
 354 1110 354 1110 299 1067 c 256,32,33
 241.574377745 1019.64904832 241.574377745 1019.64904832 242 969 c 2,34,-1
 243 163 l 2,0,1
EndSplineSet
Validated: 524321
EndChar

StartChar: uni0E44
Encoding: 3652 3652 174
Width: 358
GlyphClass: 2
Flags: W
LayerCount: 3
Fore
SplineSet
240 1083 m 2,0,1
 239.808599774 1106.44652774 239.808599774 1106.44652774 248.943421621 1132.86170288 c 0,2,3
 258 1155 258 1155 273.5 1170.5 c 128,-1,4
 289 1186 289 1186 309 1194 c 128,-1,5
 329 1202 329 1202 352 1202 c 1,6,-1
 352 1202 l 1,7,-1
 352 1290 l 1,8,-1
 -59 1290 l 1,9,-1
 -121 1202 l 1,10,-1
 195 1202 l 1,11,12
 133.515149704 1180.83308432 133.515149704 1180.83308432 133 1110 c 2,13,-1
 132 137 l 2,14,15
 132 0 132 0 253 0 c 2,16,-1
 370 0 l 1,17,-1
 370 86 l 1,18,-1
 296 86 l 2,19,20
 243 86 243 86 243 137 c 2,21,-1
 240 1083 l 2,0,1
EndSplineSet
Validated: 524293
EndChar

StartChar: uni0E45
Encoding: 3653 3653 175
Width: 600
GlyphClass: 2
Flags: W
LayerCount: 3
Fore
SplineSet
408 563 m 2,0,1
 408 748 408 748 260 748 c 0,2,3
 227 748 227 748 199.5 736.5 c 128,-1,4
 172 725 172 725 152.5 706.5 c 128,-1,5
 133 688 133 688 122 663.5 c 128,-1,6
 111 639 111 639 111 614 c 1,7,-1
 0 614 l 1,8,9
 6 700 6 700 74 762 c 0,10,11
 150 829 150 829 258 829 c 0,12,13
 516 829 516 829 516 582 c 2,14,-1
 516 -287 l 1,15,-1
 408 -287 l 1,16,-1
 408 563 l 2,0,1
EndSplineSet
Validated: 1
EndChar

StartChar: uni0E46
Encoding: 3654 3654 176
Width: 682
GlyphClass: 2
Flags: W
LayerCount: 3
Fore
SplineSet
504 655 m 2,0,1
 504 731 504 731 442 731 c 1,2,3
 415 672 415 672 332 672 c 0,4,5
 253 672 253 672 221 731 c 1,6,7
 160 731 160 731 160 655 c 2,8,-1
 160 594 l 1,9,-1
 246 594 l 1,10,-1
 246 512 l 1,11,-1
 51 512 l 1,12,-1
 51 653 l 2,13,14
 51 829 51 829 256 829 c 1,15,16
 256 762 256 762 332 762 c 0,17,18
 347 762 347 762 360.5 767 c 128,-1,19
 374 772 374 772 384.5 781 c 128,-1,20
 395 790 395 790 401.5 802.5 c 128,-1,21
 408 815 408 815 408 829 c 1,22,23
 610 829 610 829 610 653 c 2,24,-1
 610 -287 l 1,25,-1
 504 -287 l 1,26,-1
 504 655 l 2,0,1
EndSplineSet
Validated: 1
EndChar

StartChar: uni0E47
Encoding: 3655 3655 177
Width: 0
GlyphClass: 2
Flags: W
LayerCount: 3
Fore
SplineSet
-240 911 m 2,0,1
 -305 911 -305 911 -342 963 c 1,2,3
 -379 911 -379 911 -471 911 c 2,4,-1
 -594 911 l 1,5,-1
 -594 1012 l 2,6,7
 -594 1081 -594 1081 -542.5 1120 c 128,-1,8
 -491 1159 -491 1159 -403 1159 c 2,9,-1
 -283 1159 l 2,10,11
 -209 1159 -209 1159 -209 1212 c 2,12,-1
 -209 1241 l 1,13,-1
 -100 1241 l 1,14,-1
 -100 1194 l 2,15,16
 -100 1085 -100 1085 -236 1085 c 2,17,-1
 -391 1085 l 2,18,19
 -483 1085 -483 1085 -483 1024 c 2,20,-1
 -483 997 l 1,21,22
 -454 997 -454 997 -433 999 c 128,-1,23
 -412 1001 -412 1001 -401 1006 c 0,24,25
 -371 1014 -371 1014 -342 1053 c 1,26,27
 -301 997 -301 997 -211 997 c 2,28,-1
 -90 997 l 1,29,-1
 -131 911 l 1,30,-1
 -240 911 l 2,0,1
EndSplineSet
Validated: 1
Substitution2: "Single Substitution lookup 26 subtable" maitaikhuleftthai
Substitution2: "Single Substitution lookup 25 subtable" maitaikhuleftthai
Substitution2: "Single Substitution lookup 24 subtable" maitaikhuleftthai
Substitution2: "Single Substitution lookup 23 subtable" maitaikhuleftthai
Substitution2: "Single Substitution lookup 18 subtable" maitaikhuleftthai
Substitution2: "Single Substitution lookup 17 subtable" maitaikhuleftthai
Substitution2: "Single Substitution lookup 15 subtable" maitaikhuleftthai
Substitution2: "Single Substitution lookup 14 subtable" maitaikhuleftthai
Substitution2: "Single Substitution lookup 13 subtable" maitaikhuleftthai
Substitution2: "Single Substitution lookup 12 subtable" maitaikhuleftthai
Substitution2: "Single Substitution lookup 10 subtable" maitaikhuleftthai
Substitution2: "Single Substitution lookup 9 subtable" maitaikhuleftthai
Substitution2: "Single Substitution lookup 8 subtable" maitaikhuleftthai
Substitution2: "Single Substitution lookup 7 subtable" maitaikhuleftthai
Substitution2: "Single Substitution lookup 4 subtable" maitaikhuleftthai
Substitution2: "Single Substitution lookup 3 subtable" maitaikhuleftthai
Substitution2: "Single Substitution lookup 2 subtable" maitaikhuleftthai
Substitution2: "Single Substitution lookup 1 subtable" maitaikhuleftthai
Substitution2: "Single Substitution lookup 0 subtable" maitaikhuleftthai
EndChar

StartChar: uni0E48
Encoding: 3656 3656 178
Width: 0
GlyphClass: 2
Flags: W
LayerCount: 3
Fore
SplineSet
-180 1341 m 1,0,-1
 -72 1341 l 1,1,-1
 -72 1178 l 1,2,-1
 -180 1178 l 1,3,-1
 -180 1341 l 1,0,-1
EndSplineSet
Validated: 1
Substitution2: "Single Substitution lookup 26 subtable" maieklowrightthai
Substitution2: "Single Substitution lookup 25 subtable" maieklowrightthai
Substitution2: "Single Substitution lookup 24 subtable" maieklowrightthai
Substitution2: "Single Substitution lookup 23 subtable" maieklowrightthai
Substitution2: "Single Substitution lookup 18 subtable" maieklowrightthai
Substitution2: "Single Substitution lookup 17 subtable" maieklowrightthai
Substitution2: "Single Substitution lookup 15 subtable" maieklowrightthai
Substitution2: "Single Substitution lookup 14 subtable" maieklowrightthai
Substitution2: "Single Substitution lookup 13 subtable" maieklowrightthai
Substitution2: "Single Substitution lookup 12 subtable" maieklowrightthai
Substitution2: "Single Substitution lookup 10 subtable" maieklowrightthai
Substitution2: "Single Substitution lookup 9 subtable" maieklowrightthai
Substitution2: "Single Substitution lookup 8 subtable" maieklowrightthai
Substitution2: "Single Substitution lookup 7 subtable" maieklowrightthai
Substitution2: "Single Substitution lookup 4 subtable" maieklowrightthai
Substitution2: "Single Substitution lookup 3 subtable" maieklowrightthai
Substitution2: "Single Substitution lookup 2 subtable" maieklowrightthai
Substitution2: "Single Substitution lookup 1 subtable" maieklowrightthai
Substitution2: "Single Substitution lookup 0 subtable" maieklowrightthai
EndChar

StartChar: uni0E49
Encoding: 3657 3657 179
Width: 0
GlyphClass: 2
Flags: W
LayerCount: 3
Fore
SplineSet
-258 1216 m 2,0,1
 -174.636152056 1281.2412723 -174.636152056 1281.2412723 -272 1275 c 2,2,3
 -350 1270 l 1,4,-1
 -307 1350 l 1,5,-1
 -254 1346 l 2,6,7
 -154 1338 -154 1338 -154 1268 c 2,8,-1
 -154 1251 l 1,9,-1
 39 1251 l 1,10,-1
 25 1179 l 5,11,-1
 -304 1180 l 1,12,-1
 -258 1216 l 2,0,1
EndSplineSet
Validated: 524289
Substitution2: "Single Substitution lookup 26 subtable" maitholowrightthai
Substitution2: "Single Substitution lookup 25 subtable" maitholowrightthai
Substitution2: "Single Substitution lookup 24 subtable" maitholowrightthai
Substitution2: "Single Substitution lookup 23 subtable" maitholowrightthai
Substitution2: "Single Substitution lookup 18 subtable" maitholowrightthai
Substitution2: "Single Substitution lookup 17 subtable" maitholowrightthai
Substitution2: "Single Substitution lookup 15 subtable" maitholowrightthai
Substitution2: "Single Substitution lookup 14 subtable" maitholowrightthai
Substitution2: "Single Substitution lookup 13 subtable" maitholowrightthai
Substitution2: "Single Substitution lookup 12 subtable" maitholowrightthai
Substitution2: "Single Substitution lookup 10 subtable" maitholowrightthai
Substitution2: "Single Substitution lookup 9 subtable" maitholowrightthai
Substitution2: "Single Substitution lookup 8 subtable" maitholowrightthai
Substitution2: "Single Substitution lookup 7 subtable" maitholowrightthai
Substitution2: "Single Substitution lookup 4 subtable" maitholowrightthai
Substitution2: "Single Substitution lookup 3 subtable" maitholowrightthai
Substitution2: "Single Substitution lookup 2 subtable" maitholowrightthai
Substitution2: "Single Substitution lookup 1 subtable" maitholowrightthai
Substitution2: "Single Substitution lookup 0 subtable" maitholowrightthai
EndChar

StartChar: uni0E4A
Encoding: 3658 3658 180
Width: 0
GlyphClass: 2
Flags: W
LayerCount: 3
Fore
SplineSet
102 1378 m 1,0,1
 106 1362 106 1362 106 1339 c 0,2,3
 106 1309 106 1309 95 1281.5 c 128,-1,4
 84 1254 84 1254 65 1232.5 c 128,-1,5
 46 1211 46 1211 20 1196.5 c 128,-1,6
 -6 1182 -6 1182 -37 1178 c 1,7,-1
 -96 1178 l 1,8,-1
 -96 1221 l 2,9,10
 -96 1267 -96 1267 -127 1270 c 1,11,12
 -128 1261 -128 1261 -135 1253 c 128,-1,13
 -142 1245 -142 1245 -152 1238 c 128,-1,14
 -162 1231 -162 1231 -175 1227 c 128,-1,15
 -188 1223 -188 1223 -201 1223 c 256,16,17
 -214 1223 -214 1223 -227.5 1227 c 128,-1,18
 -241 1231 -241 1231 -252 1238 c 128,-1,19
 -263 1245 -263 1245 -270.5 1253 c 128,-1,20
 -278 1261 -278 1261 -279 1270 c 1,21,22
 -309 1267 -309 1267 -309 1221 c 2,23,-1
 -309 1178 l 1,24,-1
 -395 1178 l 1,25,-1
 -395 1229 l 2,26,27
 -395 1343 -395 1343 -274 1343 c 1,28,29
 -274 1288 -274 1288 -201 1288 c 0,30,31
 -188 1288 -188 1288 -175.5 1292.5 c 128,-1,32
 -163 1297 -163 1297 -153 1304.5 c 128,-1,33
 -143 1312 -143 1312 -137 1322 c 128,-1,34
 -131 1332 -131 1332 -131 1343 c 1,35,36
 -8 1343 -8 1343 -8 1229 c 1,37,38
 23 1251 23 1251 23 1317 c 0,39,40
 23 1351 23 1351 8 1378 c 1,41,-1
 102 1378 l 1,42,-1
 102 1378 l 1,0,1
EndSplineSet
Validated: 5
Substitution2: "Single Substitution lookup 26 subtable" maitrilowrightthai
Substitution2: "Single Substitution lookup 25 subtable" maitrilowrightthai
Substitution2: "Single Substitution lookup 24 subtable" maitrilowrightthai
Substitution2: "Single Substitution lookup 23 subtable" maitrilowrightthai
Substitution2: "Single Substitution lookup 18 subtable" maitrilowrightthai
Substitution2: "Single Substitution lookup 17 subtable" maitrilowrightthai
Substitution2: "Single Substitution lookup 15 subtable" maitrilowrightthai
Substitution2: "Single Substitution lookup 14 subtable" maitrilowrightthai
Substitution2: "Single Substitution lookup 13 subtable" maitrilowrightthai
Substitution2: "Single Substitution lookup 12 subtable" maitrilowrightthai
Substitution2: "Single Substitution lookup 10 subtable" maitrilowrightthai
Substitution2: "Single Substitution lookup 9 subtable" maitrilowrightthai
Substitution2: "Single Substitution lookup 8 subtable" maitrilowrightthai
Substitution2: "Single Substitution lookup 7 subtable" maitrilowrightthai
Substitution2: "Single Substitution lookup 4 subtable" maitrilowrightthai
Substitution2: "Single Substitution lookup 3 subtable" maitrilowrightthai
Substitution2: "Single Substitution lookup 2 subtable" maitrilowrightthai
Substitution2: "Single Substitution lookup 1 subtable" maitrilowrightthai
Substitution2: "Single Substitution lookup 0 subtable" maitrilowrightthai
EndChar

StartChar: uni0E4B
Encoding: 3659 3659 181
Width: 0
GlyphClass: 2
Flags: W
LayerCount: 3
Fore
SplineSet
-80 1178 m 1,0,-1
 -174 1178 l 1,1,-1
 -174 1243 l 1,2,-1
 -262 1243 l 1,3,-1
 -262 1307 l 1,4,-1
 -174 1307 l 1,5,-1
 -174 1372 l 1,6,-1
 -80 1372 l 1,7,-1
 -80 1307 l 1,8,-1
 8 1307 l 1,9,-1
 8 1243 l 1,10,-1
 -80 1243 l 1,11,-1
 -80 1178 l 1,0,-1
EndSplineSet
Validated: 1
Substitution2: "Single Substitution lookup 26 subtable" maichattawalowrightthai
Substitution2: "Single Substitution lookup 25 subtable" maichattawalowrightthai
Substitution2: "Single Substitution lookup 24 subtable" maichattawalowrightthai
Substitution2: "Single Substitution lookup 23 subtable" maichattawalowrightthai
Substitution2: "Single Substitution lookup 18 subtable" maichattawalowrightthai
Substitution2: "Single Substitution lookup 17 subtable" maichattawalowrightthai
Substitution2: "Single Substitution lookup 15 subtable" maichattawalowrightthai
Substitution2: "Single Substitution lookup 14 subtable" maichattawalowrightthai
Substitution2: "Single Substitution lookup 13 subtable" maichattawalowrightthai
Substitution2: "Single Substitution lookup 12 subtable" maichattawalowrightthai
Substitution2: "Single Substitution lookup 10 subtable" maichattawalowrightthai
Substitution2: "Single Substitution lookup 9 subtable" maichattawalowrightthai
Substitution2: "Single Substitution lookup 8 subtable" maichattawalowrightthai
Substitution2: "Single Substitution lookup 7 subtable" maichattawalowrightthai
Substitution2: "Single Substitution lookup 4 subtable" maichattawalowrightthai
Substitution2: "Single Substitution lookup 3 subtable" maichattawalowrightthai
Substitution2: "Single Substitution lookup 2 subtable" maichattawalowrightthai
Substitution2: "Single Substitution lookup 1 subtable" maichattawalowrightthai
Substitution2: "Single Substitution lookup 0 subtable" maichattawalowrightthai
EndChar

StartChar: uni0E4C
Encoding: 3660 3660 182
Width: 0
GlyphClass: 2
Flags: W
LayerCount: 3
Fore
SplineSet
-70 1176 m 1,0,1
 -143 1176 -143 1176 -143 1126 c 2,2,-1
 -143 1100 l 1,3,-1
 -240 1100 l 1,4,-1
 -240 1147 l 2,5,6
 -240 1249 -240 1249 -109 1249 c 2,7,-1
 -2 1249 l 1,8,-1
 -2 1176 l 1,9,-1
 -70 1176 l 1,10,-1
 -70 1176 l 1,0,1
EndSplineSet
Validated: 5
Substitution2: "Single Substitution lookup 26 subtable" thanthakhatlowrightthai
Substitution2: "Single Substitution lookup 25 subtable" thanthakhatlowrightthai
Substitution2: "Single Substitution lookup 24 subtable" thanthakhatlowrightthai
Substitution2: "Single Substitution lookup 23 subtable" thanthakhatlowrightthai
Substitution2: "Single Substitution lookup 18 subtable" thanthakhatlowrightthai
Substitution2: "Single Substitution lookup 17 subtable" thanthakhatlowrightthai
Substitution2: "Single Substitution lookup 15 subtable" thanthakhatlowrightthai
Substitution2: "Single Substitution lookup 14 subtable" thanthakhatlowrightthai
Substitution2: "Single Substitution lookup 13 subtable" thanthakhatlowrightthai
Substitution2: "Single Substitution lookup 12 subtable" thanthakhatlowrightthai
Substitution2: "Single Substitution lookup 10 subtable" thanthakhatlowrightthai
Substitution2: "Single Substitution lookup 9 subtable" thanthakhatlowrightthai
Substitution2: "Single Substitution lookup 8 subtable" thanthakhatlowrightthai
Substitution2: "Single Substitution lookup 7 subtable" thanthakhatlowrightthai
Substitution2: "Single Substitution lookup 4 subtable" thanthakhatlowrightthai
Substitution2: "Single Substitution lookup 3 subtable" thanthakhatlowrightthai
Substitution2: "Single Substitution lookup 2 subtable" thanthakhatlowrightthai
Substitution2: "Single Substitution lookup 1 subtable" thanthakhatlowrightthai
Substitution2: "Single Substitution lookup 0 subtable" thanthakhatlowrightthai
EndChar

StartChar: uni0E4D
Encoding: 3661 3661 183
Width: 0
GlyphClass: 2
Flags: W
LayerCount: 3
Fore
SplineSet
-8 1020 m 0,0,1
 -8 969 -8 969 -42 940 c 128,-1,2
 -76 911 -76 911 -127 911 c 256,3,4
 -178 911 -178 911 -212 940 c 128,-1,5
 -246 969 -246 969 -246 1020 c 0,6,7
 -246 1069 -246 1069 -212 1098.5 c 128,-1,8
 -178 1128 -178 1128 -127 1128 c 256,9,10
 -76 1128 -76 1128 -42 1098.5 c 128,-1,11
 -8 1069 -8 1069 -8 1020 c 0,0,1
-80 1020 m 256,12,13
 -80 1067 -80 1067 -127 1067 c 256,14,15
 -174 1067 -174 1067 -174 1020 c 256,16,17
 -174 973 -174 973 -127 973 c 256,18,19
 -80 973 -80 973 -80 1020 c 256,12,13
EndSplineSet
Validated: 1
Substitution2: "Single Substitution lookup 26 subtable" nikhahitleftthai
Substitution2: "Single Substitution lookup 25 subtable" nikhahitleftthai
Substitution2: "Single Substitution lookup 24 subtable" nikhahitleftthai
Substitution2: "Single Substitution lookup 23 subtable" nikhahitleftthai
Substitution2: "Single Substitution lookup 18 subtable" nikhahitleftthai
Substitution2: "Single Substitution lookup 17 subtable" nikhahitleftthai
Substitution2: "Single Substitution lookup 15 subtable" nikhahitleftthai
Substitution2: "Single Substitution lookup 14 subtable" nikhahitleftthai
Substitution2: "Single Substitution lookup 13 subtable" nikhahitleftthai
Substitution2: "Single Substitution lookup 12 subtable" nikhahitleftthai
Substitution2: "Single Substitution lookup 10 subtable" nikhahitleftthai
Substitution2: "Single Substitution lookup 9 subtable" nikhahitleftthai
Substitution2: "Single Substitution lookup 8 subtable" nikhahitleftthai
Substitution2: "Single Substitution lookup 7 subtable" nikhahitleftthai
Substitution2: "Single Substitution lookup 4 subtable" nikhahitleftthai
Substitution2: "Single Substitution lookup 3 subtable" nikhahitleftthai
Substitution2: "Single Substitution lookup 2 subtable" nikhahitleftthai
Substitution2: "Single Substitution lookup 1 subtable" nikhahitleftthai
Substitution2: "Single Substitution lookup 0 subtable" nikhahitleftthai
EndChar

StartChar: uni0E4E
Encoding: 3662 3662 184
Width: 0
GlyphClass: 2
Flags: W
LayerCount: 3
Fore
SplineSet
18 1327 m 1,0,1
 0 1329 0 1329 -18.5 1330 c 128,-1,2
 -37 1331 -37 1331 -57 1331 c 0,3,4
 -150 1331 -150 1331 -211 1307 c 0,5,6
 -279 1278 -279 1278 -279 1233 c 0,7,8
 -279 1175 -279 1175 -160 1178 c 1,9,-1
 -160 1110 l 1,10,11
 -248 1113 -248 1113 -326 1087 c 0,12,13
 -410 1060 -410 1060 -410 1010 c 0,14,15
 -410 973 -410 973 -352 973 c 0,16,17
 -292 973 -292 973 -236 1006 c 1,18,-1
 -203 948 l 1,19,20
 -280 909 -280 909 -356 909 c 0,21,22
 -494 909 -494 909 -494 1006 c 0,23,24
 -494 1033 -494 1033 -480.5 1057 c 128,-1,25
 -467 1081 -467 1081 -444.5 1101 c 128,-1,26
 -422 1121 -422 1121 -391.5 1135 c 128,-1,27
 -361 1149 -361 1149 -326 1155 c 1,28,29
 -365 1189 -365 1189 -365 1235 c 0,30,31
 -365 1305 -365 1305 -276 1352 c 0,32,33
 -190 1399 -190 1399 -68 1399 c 0,34,35
 -24 1399 -24 1399 18 1393 c 1,36,-1
 18 1327 l 1,37,-1
 18 1327 l 1,0,1
EndSplineSet
Validated: 37
Substitution2: "Single Substitution lookup 26 subtable" uni0E4E_1
Substitution2: "Single Substitution lookup 25 subtable" uni0E4E_1
Substitution2: "Single Substitution lookup 24 subtable" uni0E4E_1
Substitution2: "Single Substitution lookup 23 subtable" uni0E4E_1
Substitution2: "Single Substitution lookup 18 subtable" uni0E4E_1
Substitution2: "Single Substitution lookup 17 subtable" uni0E4E_1
Substitution2: "Single Substitution lookup 15 subtable" uni0E4E_1
Substitution2: "Single Substitution lookup 14 subtable" uni0E4E_1
Substitution2: "Single Substitution lookup 13 subtable" uni0E4E_1
Substitution2: "Single Substitution lookup 12 subtable" uni0E4E_1
Substitution2: "Single Substitution lookup 10 subtable" uni0E4E_1
Substitution2: "Single Substitution lookup 9 subtable" uni0E4E_1
Substitution2: "Single Substitution lookup 8 subtable" uni0E4E_1
Substitution2: "Single Substitution lookup 7 subtable" uni0E4E_1
Substitution2: "Single Substitution lookup 4 subtable" uni0E4E_1
Substitution2: "Single Substitution lookup 3 subtable" uni0E4E_1
Substitution2: "Single Substitution lookup 2 subtable" uni0E4E_1
Substitution2: "Single Substitution lookup 1 subtable" uni0E4E_1
Substitution2: "Single Substitution lookup 0 subtable" uni0E4E_1
EndChar

StartChar: uni0E4F
Encoding: 3663 3663 185
Width: 963
GlyphClass: 2
Flags: W
LayerCount: 3
Fore
SplineSet
901 410 m 256,0,1
 901 236 901 236 778 113 c 256,2,3
 655 -10 655 -10 481 -10 c 256,4,5
 307 -10 307 -10 184 113 c 256,6,7
 61 236 61 236 61 410 c 256,8,9
 61 584 61 584 184 707 c 0,10,11
 309 829 309 829 481 829 c 256,12,13
 653 829 653 829 778 707 c 0,14,15
 901 584 901 584 901 410 c 256,0,1
840 410 m 0,16,17
 840 558 840 558 733 662 c 1,18,19
 630 768 630 768 481 768 c 0,20,21
 333 768 333 768 227 662 c 0,22,23
 123 555 123 555 123 410 c 0,24,25
 123 263 123 263 227 156 c 1,26,27
 335 51 335 51 481 51 c 0,28,29
 629 51 629 51 733 156 c 0,30,31
 840 263 840 263 840 410 c 0,16,17
737 410 m 0,32,33
 737 303 737 303 662 227 c 0,34,35
 589 154 589 154 481 154 c 0,36,37
 375 154 375 154 299 227 c 0,38,39
 262 266 262 266 243.5 311 c 128,-1,40
 225 356 225 356 225 410 c 0,41,42
 225 516 225 516 299 590 c 0,43,44
 375 666 375 666 481 666 c 256,45,46
 587 666 587 666 662 590 c 0,47,48
 737 518 737 518 737 410 c 0,32,33
EndSplineSet
Validated: 1
EndChar

StartChar: uni0E50
Encoding: 3664 3664 186
Width: 758
GlyphClass: 2
Flags: W
LayerCount: 3
Fore
SplineSet
696 307 m 0,0,1
 696 165 696 165 604 76 c 0,2,3
 559 31 559 31 503.5 10.5 c 128,-1,4
 448 -10 448 -10 379 -10 c 0,5,6
 243 -10 243 -10 152 76 c 0,7,8
 61 164 61 164 61 307 c 0,9,10
 61 449 61 449 152 537 c 256,11,12
 243 625 243 625 379 625 c 0,13,14
 516 625 516 625 604 537 c 1,15,16
 696 451 696 451 696 307 c 0,0,1
592 307 m 0,17,18
 592 359 592 359 575.5 402.5 c 128,-1,19
 559 446 559 446 530.5 477 c 128,-1,20
 502 508 502 508 463 525.5 c 128,-1,21
 424 543 424 543 379 543 c 256,22,23
 334 543 334 543 295 525.5 c 128,-1,24
 256 508 256 508 227.5 477 c 128,-1,25
 199 446 199 446 182.5 402.5 c 128,-1,26
 166 359 166 359 166 307 c 0,27,28
 166 254 166 254 182.5 211 c 128,-1,29
 199 168 199 168 227.5 137 c 128,-1,30
 256 106 256 106 295 89 c 128,-1,31
 334 72 334 72 379 72 c 256,32,33
 424 72 424 72 463 89 c 128,-1,34
 502 106 502 106 530.5 137 c 128,-1,35
 559 168 559 168 575.5 211 c 128,-1,36
 592 254 592 254 592 307 c 0,17,18
EndSplineSet
Validated: 1
EndChar

StartChar: uni0E51
Encoding: 3665 3665 187
Width: 819
GlyphClass: 2
Flags: W
LayerCount: 3
Fore
SplineSet
758 301 m 0,0,1
 758 181 758 181 688 72 c 0,2,3
 659 24 659 24 625.5 -10.5 c 128,-1,4
 592 -45 592 -45 555 -68 c 1,5,-1
 463 -41 l 1,6,7
 533 5 533 5 586 82 c 1,8,9
 651 186 651 186 651 297 c 0,10,11
 651 352 651 352 633 397.5 c 128,-1,12
 615 443 615 443 583.5 475 c 128,-1,13
 552 507 552 507 509 525 c 128,-1,14
 466 543 466 543 416 543 c 0,15,16
 313 543 313 543 240 473 c 0,17,18
 166 405 166 405 166 303 c 0,19,20
 166 249 166 249 181 207 c 128,-1,21
 196 165 196 165 225 133 c 0,22,23
 276 76 276 76 340 82 c 1,24,25
 250 109 250 109 250 209 c 0,26,27
 250 239 250 239 261 264.5 c 128,-1,28
 272 290 272 290 291 308.5 c 128,-1,29
 310 327 310 327 336 337.5 c 128,-1,30
 362 348 362 348 393 348 c 256,31,32
 424 348 424 348 451 337 c 128,-1,33
 478 326 478 326 497.5 306.5 c 128,-1,34
 517 287 517 287 528 259.5 c 128,-1,35
 539 232 539 232 539 199 c 0,36,37
 539 123 539 123 477 61 c 0,38,39
 419 0 419 0 328 0 c 0,40,41
 227 0 227 0 150 74 c 0,42,43
 61 160 61 160 61 305 c 0,44,45
 61 441 61 441 158 532 c 0,46,47
 255 625 255 625 412 625 c 0,48,49
 493 625 493 625 557 601 c 128,-1,50
 621 577 621 577 665.5 534.5 c 128,-1,51
 710 492 710 492 734 432.5 c 128,-1,52
 758 373 758 373 758 301 c 0,0,1
449 207 m 0,53,54
 449 268 449 268 391 268 c 0,55,56
 332 268 332 268 332 207 c 0,57,58
 332 145 332 145 391 145 c 0,59,60
 449 145 449 145 449 207 c 0,53,54
EndSplineSet
Validated: 33
EndChar

StartChar: uni0E52
Encoding: 3666 3666 188
Width: 1055
GlyphClass: 2
Flags: W
LayerCount: 3
Fore
SplineSet
92 625 m 2,0,1
 92 740 92 740 -20 762 c 1,2,-1
 70 829 l 1,3,4
 195 802 195 802 195 674 c 2,5,-1
 195 86 l 1,6,-1
 870 86 l 1,7,-1
 870 463 l 2,8,9
 870 543 870 543 778 543 c 0,10,11
 760 543 760 543 743.5 537.5 c 128,-1,12
 727 532 727 532 714.5 522 c 128,-1,13
 702 512 702 512 694 497 c 128,-1,14
 686 482 686 482 686 463 c 2,15,-1
 686 154 l 1,16,-1
 584 154 l 1,17,-1
 584 459 l 2,18,19
 584 543 584 543 481 543 c 0,20,21
 379 543 379 543 379 459 c 2,22,-1
 379 408 l 1,23,24
 397 414 397 414 414 414 c 0,25,26
 442 414 442 414 467 404 c 128,-1,27
 492 394 492 394 510.5 376 c 128,-1,28
 529 358 529 358 540 334 c 128,-1,29
 551 310 551 310 551 283 c 0,30,31
 551 255 551 255 540 230.5 c 128,-1,32
 529 206 529 206 510.5 187.5 c 128,-1,33
 492 169 492 169 467 158 c 128,-1,34
 442 147 442 147 414 147 c 0,35,36
 385 147 385 147 360 157 c 128,-1,37
 335 167 335 167 316.5 185 c 128,-1,38
 298 203 298 203 287 228 c 128,-1,39
 276 253 276 253 276 283 c 2,40,-1
 276 461 l 2,41,42
 276 542 276 542 342 590 c 0,43,44
 395 625 395 625 475 625 c 0,45,46
 600 625 600 625 635 557 c 1,47,48
 670 625 670 625 784 625 c 0,49,50
 973 625 973 625 973 461 c 2,51,-1
 973 0 l 1,52,-1
 92 0 l 1,53,-1
 92 625 l 2,0,1
475 283 m 0,54,55
 475 340 475 340 420 340 c 0,56,57
 362 340 362 340 362 283 c 0,58,59
 362 221 362 221 420 221 c 0,60,61
 475 221 475 221 475 283 c 0,54,55
EndSplineSet
Validated: 1
EndChar

StartChar: uni0E53
Encoding: 3667 3667 189
Width: 901
GlyphClass: 2
Flags: W
LayerCount: 3
Fore
SplineSet
717 442 m 2,0,1
 717 543 717 543 614 543 c 0,2,3
 512 543 512 543 512 438 c 2,4,-1
 512 0 l 1,5,-1
 410 0 l 1,6,-1
 410 438 l 2,7,8
 410 493 410 493 371 520 c 0,9,10
 339 543 339 543 297 543 c 0,11,12
 184 543 184 543 184 438 c 2,13,-1
 184 264 l 1,14,15
 209 270 209 270 225 270 c 0,16,17
 256 270 256 270 282.5 260 c 128,-1,18
 309 250 309 250 328.5 231.5 c 128,-1,19
 348 213 348 213 359.5 187.5 c 128,-1,20
 371 162 371 162 371 131 c 0,21,22
 371 101 371 101 360 75 c 128,-1,23
 349 49 349 49 329.5 30.5 c 128,-1,24
 310 12 310 12 283 1 c 128,-1,25
 256 -10 256 -10 225 -10 c 256,26,27
 194 -10 194 -10 168 0.5 c 128,-1,28
 142 11 142 11 123 29.5 c 128,-1,29
 104 48 104 48 93 75 c 128,-1,30
 82 102 82 102 82 135 c 2,31,-1
 82 442 l 2,32,33
 82 538 82 538 154 588 c 0,34,35
 209 625 209 625 291 625 c 0,36,37
 357 625 357 625 399 606.5 c 128,-1,38
 441 588 441 588 461 551 c 1,39,40
 508 625 508 625 621 625 c 0,41,42
 819 625 819 625 819 442 c 2,43,-1
 819 0 l 1,44,-1
 717 0 l 1,45,-1
 717 442 l 2,0,1
289 131 m 0,46,47
 289 193 289 193 229 193 c 0,48,49
 170 193 170 193 170 131 c 0,50,51
 170 105 170 105 188 86.5 c 128,-1,52
 206 68 206 68 229 68 c 0,53,54
 289 68 289 68 289 131 c 0,46,47
EndSplineSet
Validated: 1
EndChar

StartChar: uni0E54
Encoding: 3668 3668 190
Width: 819
GlyphClass: 2
Flags: W
LayerCount: 3
Fore
SplineSet
791 819 m 1,0,1
 803 662 803 662 709 592 c 0,2,3
 628 530 628 530 487 537 c 0,4,5
 350 540 350 540 268 489 c 0,6,7
 168 429 168 429 168 301 c 0,8,9
 168 195 168 195 227 133 c 0,10,11
 279 78 279 78 358 78 c 0,12,13
 404 78 404 78 442 98 c 1,14,15
 348 162 348 162 348 268 c 0,16,17
 348 299 348 299 359.5 326.5 c 128,-1,18
 371 354 371 354 391 373.5 c 128,-1,19
 411 393 411 393 437.5 404.5 c 128,-1,20
 464 416 464 416 494 416 c 0,21,22
 525 416 525 416 552 405.5 c 128,-1,23
 579 395 579 395 598 375.5 c 128,-1,24
 617 356 617 356 628 329.5 c 128,-1,25
 639 303 639 303 639 272 c 0,26,27
 639 245 639 245 630 222 c 128,-1,28
 621 199 621 199 606 181.5 c 128,-1,29
 591 164 591 164 570.5 153.5 c 128,-1,30
 550 143 550 143 528 141 c 1,31,32
 559 106 559 106 639 90 c 0,33,34
 709 75 709 75 762 84 c 1,35,-1
 717 -8 l 1,36,37
 657 -10 657 -10 606 5 c 128,-1,38
 555 20 555 20 512 49 c 1,39,40
 445 -6 445 -6 336 -6 c 0,41,42
 279 -6 279 -6 231.5 12.5 c 128,-1,43
 184 31 184 31 145 70 c 0,44,45
 61 157 61 157 61 299 c 0,46,47
 61 453 61 453 172 543 c 1,48,49
 277 622 277 622 436 618 c 0,50,51
 562 615 562 615 616 645 c 0,52,53
 684 683 684 683 684 780 c 0,54,55
 684 790 684 790 684 799 c 128,-1,56
 684 808 684 808 682 819 c 1,57,-1
 791 819 l 1,0,1
557 272 m 0,58,59
 557 334 557 334 498 334 c 0,60,61
 440 334 440 334 440 272 c 0,62,63
 440 209 440 209 498 209 c 0,64,65
 557 209 557 209 557 272 c 0,58,59
EndSplineSet
Validated: 33
EndChar

StartChar: uni0E55
Encoding: 3669 3669 191
Width: 819
GlyphClass: 2
Flags: W
LayerCount: 3
Fore
SplineSet
791 819 m 1,0,1
 803 662 803 662 709 592 c 0,2,3
 628 530 628 530 487 537 c 0,4,5
 350 540 350 540 268 489 c 0,6,7
 168 429 168 429 168 301 c 0,8,9
 168 195 168 195 227 133 c 0,10,11
 279 78 279 78 358 78 c 0,12,13
 404 78 404 78 442 98 c 1,14,15
 348 162 348 162 348 268 c 0,16,17
 348 299 348 299 359.5 326.5 c 128,-1,18
 371 354 371 354 391 373.5 c 128,-1,19
 411 393 411 393 437.5 404.5 c 128,-1,20
 464 416 464 416 494 416 c 0,21,22
 525 416 525 416 552 405.5 c 128,-1,23
 579 395 579 395 598 375.5 c 128,-1,24
 617 356 617 356 628 329.5 c 128,-1,25
 639 303 639 303 639 272 c 0,26,27
 639 245 639 245 630 222 c 128,-1,28
 621 199 621 199 606 181.5 c 128,-1,29
 591 164 591 164 570.5 153.5 c 128,-1,30
 550 143 550 143 528 141 c 1,31,32
 559 106 559 106 639 90 c 0,33,34
 709 75 709 75 762 84 c 1,35,-1
 717 -8 l 1,36,37
 657 -10 657 -10 606 5 c 128,-1,38
 555 20 555 20 512 49 c 1,39,40
 445 -6 445 -6 336 -6 c 0,41,42
 279 -6 279 -6 231.5 12.5 c 128,-1,43
 184 31 184 31 145 70 c 0,44,45
 61 157 61 157 61 299 c 0,46,47
 61 520 61 520 268 594 c 1,48,49
 229 637 229 637 229 688 c 0,50,51
 229 718 229 718 240.5 744 c 128,-1,52
 252 770 252 770 273 789.5 c 128,-1,53
 294 809 294 809 322 820 c 128,-1,54
 350 831 350 831 383 831 c 0,55,56
 452 831 452 831 494.5 792 c 128,-1,57
 537 753 537 753 537 690 c 0,58,59
 537 649 537 649 512 621 c 1,60,61
 700 633 700 633 682 819 c 1,62,-1
 791 819 l 1,0,1
451 682 m 0,63,64
 451 750 451 750 383 750 c 256,65,66
 315 750 315 750 315 682 c 0,67,68
 315 656 315 656 334.5 635 c 128,-1,69
 354 614 354 614 383 614 c 256,70,71
 412 614 412 614 431.5 635 c 128,-1,72
 451 656 451 656 451 682 c 0,63,64
557 272 m 0,73,74
 557 334 557 334 498 334 c 0,75,76
 440 334 440 334 440 272 c 0,77,78
 440 209 440 209 498 209 c 0,79,80
 557 209 557 209 557 272 c 0,73,74
EndSplineSet
Validated: 33
EndChar

StartChar: uni0E56
Encoding: 3670 3670 192
Width: 752
GlyphClass: 2
Flags: W
LayerCount: 3
Fore
SplineSet
690 315 m 0,0,1
 690 241 690 241 667 181.5 c 128,-1,2
 644 122 644 122 601.5 79 c 128,-1,3
 559 36 559 36 499 13 c 128,-1,4
 439 -10 439 -10 365 -10 c 0,5,6
 254 -10 254 -10 172 47 c 0,7,8
 78 111 78 111 78 219 c 0,9,10
 78 250 78 250 89.5 276 c 128,-1,11
 101 302 101 302 120 321 c 128,-1,12
 139 340 139 340 164.5 350 c 128,-1,13
 190 360 190 360 219 360 c 0,14,15
 249 360 249 360 274.5 350.5 c 128,-1,16
 300 341 300 341 318.5 323.5 c 128,-1,17
 337 306 337 306 347.5 281 c 128,-1,18
 358 256 358 256 358 225 c 0,19,20
 358 171 358 171 326.5 138 c 128,-1,21
 295 105 295 105 252 100 c 1,22,23
 293 78 293 78 371 78 c 0,24,25
 416 78 416 78 455 96 c 128,-1,26
 494 114 494 114 522 145.5 c 128,-1,27
 550 177 550 177 566 220.5 c 128,-1,28
 582 264 582 264 582 315 c 0,29,30
 582 363 582 363 568.5 404 c 128,-1,31
 555 445 555 445 529.5 475 c 128,-1,32
 504 505 504 505 467.5 522 c 128,-1,33
 431 539 431 539 385 539 c 0,34,35
 352 539 352 539 321 530 c 128,-1,36
 290 521 290 521 264 505 c 128,-1,37
 238 489 238 489 219 467 c 128,-1,38
 200 445 200 445 190 418 c 1,39,-1
 82 418 l 1,40,-1
 82 659 l 2,41,42
 82 747 82 747 0 762 c 1,43,-1
 80 829 l 1,44,45
 184 817 184 817 184 707 c 2,46,-1
 184 539 l 1,47,48
 255 625 255 625 408 625 c 0,49,50
 531 625 531 625 608 545 c 0,51,52
 650 500 650 500 670 444 c 128,-1,53
 690 388 690 388 690 315 c 0,0,1
276 225 m 0,54,55
 276 283 276 283 219 283 c 0,56,57
 166 283 166 283 166 225 c 0,58,59
 166 166 166 166 219 166 c 0,60,61
 276 166 276 166 276 225 c 0,54,55
EndSplineSet
Validated: 1
EndChar

StartChar: uni0E57
Encoding: 3671 3671 193
Width: 1122
GlyphClass: 2
Flags: W
LayerCount: 3
Fore
SplineSet
1112 772 m 1,0,1
 1096 769 1096 769 1081 760 c 128,-1,2
 1066 751 1066 751 1055 737.5 c 128,-1,3
 1044 724 1044 724 1037 708 c 128,-1,4
 1030 692 1030 692 1030 674 c 2,5,-1
 1030 229 l 2,6,7
 1030 179 1030 179 1010.5 137 c 128,-1,8
 991 95 991 95 956.5 64.5 c 128,-1,9
 922 34 922 34 875.5 17 c 128,-1,10
 829 0 829 0 776 0 c 2,11,-1
 692 0 l 1,12,-1
 639 49 l 1,13,14
 717 70 717 70 717 145 c 2,15,-1
 717 442 l 2,16,17
 717 543 717 543 614 543 c 0,18,19
 512 543 512 543 512 438 c 2,20,-1
 512 0 l 1,21,-1
 410 0 l 1,22,-1
 410 438 l 2,23,24
 410 493 410 493 371 520 c 0,25,26
 339 543 339 543 297 543 c 0,27,28
 184 543 184 543 184 438 c 2,29,-1
 184 264 l 1,30,31
 209 270 209 270 225 270 c 0,32,33
 256 270 256 270 282.5 260 c 128,-1,34
 309 250 309 250 328.5 231.5 c 128,-1,35
 348 213 348 213 359.5 187.5 c 128,-1,36
 371 162 371 162 371 131 c 0,37,38
 371 101 371 101 360 75 c 128,-1,39
 349 49 349 49 329.5 30.5 c 128,-1,40
 310 12 310 12 283 1 c 128,-1,41
 256 -10 256 -10 225 -10 c 256,42,43
 194 -10 194 -10 168 0.5 c 128,-1,44
 142 11 142 11 123 29.5 c 128,-1,45
 104 48 104 48 93 75 c 128,-1,46
 82 102 82 102 82 135 c 2,47,-1
 82 442 l 2,48,49
 82 538 82 538 154 588 c 0,50,51
 209 625 209 625 291 625 c 0,52,53
 357 625 357 625 399 606.5 c 128,-1,54
 441 588 441 588 461 551 c 1,55,56
 508 625 508 625 621 625 c 0,57,58
 819 625 819 625 819 442 c 2,59,-1
 819 162 l 2,60,61
 819 95 819 95 782 68 c 1,62,63
 809 70 809 70 835 82.5 c 128,-1,64
 861 95 861 95 882 115.5 c 128,-1,65
 903 136 903 136 915.5 164 c 128,-1,66
 928 192 928 192 928 225 c 2,67,-1
 928 709 l 2,68,69
 928 757 928 757 957.5 790 c 128,-1,70
 987 823 987 823 1032 831 c 1,71,-1
 1112 772 l 1,0,1
289 131 m 0,72,73
 289 193 289 193 229 193 c 0,74,75
 170 193 170 193 170 131 c 0,76,77
 170 105 170 105 188 86.5 c 128,-1,78
 206 68 206 68 229 68 c 0,79,80
 289 68 289 68 289 131 c 0,72,73
EndSplineSet
Validated: 1
EndChar

StartChar: uni0E58
Encoding: 3672 3672 194
Width: 809
GlyphClass: 2
Flags: W
LayerCount: 3
Fore
SplineSet
737 143 m 2,0,1
 737 0 737 0 614 0 c 2,2,-1
 455 0 l 1,3,-1
 373 106 l 1,4,-1
 291 0 l 1,5,-1
 221 0 l 2,6,7
 72 0 72 0 72 215 c 2,8,-1
 72 356 l 2,9,10
 72 614 72 614 328 614 c 2,11,-1
 504 614 l 2,12,13
 635 614 635 614 635 729 c 2,14,-1
 635 829 l 1,15,-1
 737 788 l 1,16,-1
 737 696 l 2,17,18
 737 659 737 659 722 628.5 c 128,-1,19
 707 598 707 598 680 575.5 c 128,-1,20
 653 553 653 553 616.5 540.5 c 128,-1,21
 580 528 580 528 537 528 c 2,22,-1
 391 528 l 2,23,24
 264 528 264 528 223 487 c 0,25,26
 200 464 200 464 188 419 c 128,-1,27
 176 374 176 374 176 305 c 0,28,29
 176 245 176 245 176 211.5 c 128,-1,30
 176 178 176 178 178 172 c 0,31,32
 190 84 190 84 252 84 c 1,33,-1
 373 231 l 1,34,-1
 492 86 l 1,35,-1
 545 86 l 2,36,37
 594 86 594 86 610 96 c 0,38,39
 635 111 635 111 635 160 c 1,40,41
 611 152 611 152 592 152 c 0,42,43
 563 152 563 152 539 161.5 c 128,-1,44
 515 171 515 171 497 188.5 c 128,-1,45
 479 206 479 206 469 230.5 c 128,-1,46
 459 255 459 255 459 285 c 0,47,48
 459 313 459 313 469.5 337.5 c 128,-1,49
 480 362 480 362 499 380.5 c 128,-1,50
 518 399 518 399 542.5 409.5 c 128,-1,51
 567 420 567 420 596 420 c 0,52,53
 626 420 626 420 652 410 c 128,-1,54
 678 400 678 400 696.5 382 c 128,-1,55
 715 364 715 364 726 338 c 128,-1,56
 737 312 737 312 737 281 c 2,57,-1
 737 143 l 2,0,1
643 285 m 0,58,59
 643 346 643 346 590 346 c 0,60,61
 535 346 535 346 535 285 c 0,62,63
 535 227 535 227 590 227 c 0,64,65
 643 227 643 227 643 285 c 0,58,59
EndSplineSet
Validated: 1
EndChar

StartChar: uni0E59
Encoding: 3673 3673 195
Width: 850
GlyphClass: 2
Flags: W
LayerCount: 3
Fore
SplineSet
885 762 m 1,0,1
 819 753 819 753 819 668 c 2,2,-1
 819 467 l 1,3,-1
 715 467 l 1,4,5
 680 535 680 535 602 535 c 0,6,7
 586 535 586 535 571 528 c 128,-1,8
 556 521 556 521 545 508 c 128,-1,9
 534 495 534 495 527 478 c 128,-1,10
 520 461 520 461 520 442 c 0,11,12
 520 431 520 431 521.5 419.5 c 128,-1,13
 523 408 523 408 528 397 c 2,14,-1
 662 53 l 1,15,-1
 702 0 l 1,16,-1
 575 0 l 1,17,-1
 430 385 l 2,18,19
 372 539 372 539 283 539 c 0,20,21
 174 539 174 539 174 416 c 2,22,-1
 174 264 l 1,23,24
 198 270 198 270 215 270 c 0,25,26
 246 270 246 270 272.5 260 c 128,-1,27
 299 250 299 250 318.5 231.5 c 128,-1,28
 338 213 338 213 349 187.5 c 128,-1,29
 360 162 360 162 360 131 c 0,30,31
 360 101 360 101 349 75 c 128,-1,32
 338 49 338 49 319 30.5 c 128,-1,33
 300 12 300 12 273 1 c 128,-1,34
 246 -10 246 -10 215 -10 c 256,35,36
 184 -10 184 -10 158 0.5 c 128,-1,37
 132 11 132 11 113 29.5 c 128,-1,38
 94 48 94 48 83 75 c 128,-1,39
 72 102 72 102 72 135 c 2,40,-1
 72 424 l 2,41,42
 72 520 72 520 135 573 c 0,43,44
 193 625 193 625 270 625 c 0,45,46
 392 625 392 625 451 524 c 1,47,48
 478 625 478 625 594 625 c 0,49,50
 687 625 687 625 717 584 c 1,51,-1
 717 715 l 2,52,53
 717 811 717 811 813 829 c 1,54,-1
 885 762 l 1,0,1
279 131 m 0,55,56
 279 193 279 193 219 193 c 0,57,58
 160 193 160 193 160 131 c 0,59,60
 160 68 160 68 219 68 c 0,61,62
 279 68 279 68 279 131 c 0,55,56
EndSplineSet
Validated: 1
EndChar

StartChar: uni0E5A
Encoding: 3674 3674 196
Width: 870
GlyphClass: 2
Flags: W
LayerCount: 3
Fore
SplineSet
809 86 m 1,0,1
 809 19 809 19 770 0 c 1,2,-1
 645 0 l 1,3,4
 700 21 700 21 700 88 c 2,5,-1
 700 664 l 1,6,7
 662 619 662 619 598 610 c 1,8,-1
 598 86 l 2,9,10
 598 19 598 19 559 0 c 1,11,-1
 434 0 l 1,12,13
 489 21 489 21 489 88 c 2,14,-1
 489 639 l 1,15,16
 472 604 472 604 420 573 c 0,17,18
 358 537 358 537 293 537 c 0,19,20
 244 537 244 537 200 550.5 c 128,-1,21
 156 564 156 564 123 588 c 128,-1,22
 90 612 90 612 70.5 644.5 c 128,-1,23
 51 677 51 677 51 715 c 0,24,25
 51 772 51 772 92 819 c 1,26,-1
 209 819 l 1,27,28
 168 780 168 780 168 729 c 0,29,30
 168 675 168 675 215 643 c 0,31,32
 256 615 256 615 315 618 c 0,33,34
 349 621 349 621 380.5 634.5 c 128,-1,35
 412 648 412 648 436 671 c 128,-1,36
 460 694 460 694 474.5 724.5 c 128,-1,37
 489 755 489 755 489 793 c 2,38,-1
 489 819 l 1,39,-1
 598 819 l 1,40,-1
 598 672 l 1,41,42
 700 711 700 711 700 803 c 2,43,-1
 700 819 l 1,44,-1
 809 819 l 1,45,-1
 809 86 l 1,46,-1
 809 86 l 1,0,1
EndSplineSet
Validated: 37
EndChar

StartChar: uni0E5B
Encoding: 3675 3675 197
Width: 1495
GlyphClass: 2
Flags: W
LayerCount: 3
Fore
SplineSet
1462 434 m 0,0,1
 1462 407 1462 407 1413 403 c 2,2,-1
 1235 385 l 1,3,4
 1223 332 1223 332 1192 332 c 0,5,6
 1178 332 1178 332 1165 362 c 0,7,8
 1154 387 1154 387 1146 405 c 128,-1,9
 1138 423 1138 423 1130 434 c 1,10,11
 1109 307 1109 307 1071 307 c 0,12,13
 1053 307 1053 307 1034 352 c 0,14,15
 1020 384 1020 384 1011 404 c 128,-1,16
 1002 424 1002 424 995 432 c 1,17,18
 977 285 977 285 930 285 c 0,19,20
 906 285 906 285 891 340 c 0,21,22
 870 422 870 422 854 449 c 1,23,24
 843 395 843 395 833 360.5 c 128,-1,25
 823 326 823 326 815 307 c 0,26,27
 794 258 794 258 762 258 c 256,28,29
 730 258 730 258 721 307 c 0,30,31
 704 383 704 383 688 436 c 1,32,33
 652 264 652 264 563 164 c 0,34,35
 468 59 468 59 336 59 c 0,36,37
 275 59 275 59 224.5 85 c 128,-1,38
 174 111 174 111 137.5 157.5 c 128,-1,39
 101 204 101 204 81 269.5 c 128,-1,40
 61 335 61 335 61 414 c 0,41,42
 61 564 61 564 133 668 c 0,43,44
 207 772 207 772 313 772 c 0,45,46
 358 772 358 772 397 752 c 128,-1,47
 436 732 436 732 464.5 697 c 128,-1,48
 493 662 493 662 509.5 614.5 c 128,-1,49
 526 567 526 567 526 512 c 0,50,51
 526 469 526 469 516 433 c 128,-1,52
 506 397 506 397 488.5 370.5 c 128,-1,53
 471 344 471 344 446 329.5 c 128,-1,54
 421 315 421 315 391 315 c 0,55,56
 365 315 365 315 343.5 325.5 c 128,-1,57
 322 336 322 336 306 354.5 c 128,-1,58
 290 373 290 373 281 397.5 c 128,-1,59
 272 422 272 422 272 451 c 0,60,61
 272 478 272 478 281.5 503 c 128,-1,62
 291 528 291 528 307 547 c 128,-1,63
 323 566 323 566 344 577 c 128,-1,64
 365 588 365 588 389 588 c 0,65,66
 401 588 401 588 422 582 c 1,67,68
 418 627 418 627 387.5 657.5 c 128,-1,69
 357 688 357 688 315 688 c 0,70,71
 281 688 281 688 251.5 667 c 128,-1,72
 222 646 222 646 200.5 608.5 c 128,-1,73
 179 571 179 571 166.5 519 c 128,-1,74
 154 467 154 467 154 406 c 0,75,76
 154 344 154 344 168 294.5 c 128,-1,77
 182 245 182 245 207.5 210 c 128,-1,78
 233 175 233 175 268.5 156 c 128,-1,79
 304 137 304 137 348 137 c 0,80,81
 397 137 397 137 441 164.5 c 128,-1,82
 485 192 485 192 521 242.5 c 128,-1,83
 557 293 557 293 582 363.5 c 128,-1,84
 607 434 607 434 618 520 c 0,85,86
 628 604 628 604 672 604 c 0,87,88
 688 604 688 604 703.5 587 c 128,-1,89
 719 570 719 570 732.5 541 c 128,-1,90
 746 512 746 512 757.5 472 c 128,-1,91
 769 432 769 432 776 387 c 1,92,93
 782 413 782 413 786.5 450 c 128,-1,94
 791 487 791 487 793 535 c 0,95,96
 796 584 796 584 829 584 c 0,97,98
 873 584 873 584 932 420 c 1,99,100
 934 439 934 439 936 461 c 128,-1,101
 938 483 938 483 942 501.5 c 128,-1,102
 946 520 946 520 952.5 532.5 c 128,-1,103
 959 545 959 545 971 545 c 0,104,105
 1010 545 1010 545 1069 410 c 1,106,107
 1073 426 1073 426 1076.5 444.5 c 128,-1,108
 1080 463 1080 463 1085 478.5 c 128,-1,109
 1090 494 1090 494 1097 504 c 128,-1,110
 1104 514 1104 514 1116 514 c 0,111,112
 1144 514 1144 514 1190 438 c 1,113,114
 1205 486 1205 486 1235 483 c 2,115,-1
 1413 465 l 2,116,117
 1462 462 1462 462 1462 434 c 0,0,1
444 453 m 0,118,119
 444 516 444 516 389 516 c 0,120,121
 336 516 336 516 336 453 c 0,122,123
 336 389 336 389 389 389 c 0,124,125
 444 389 444 389 444 453 c 0,118,119
EndSplineSet
Validated: 1
EndChar

StartChar: endash
Encoding: 8211 8211 200
Width: 696
GlyphClass: 2
Flags: W
LayerCount: 3
Fore
SplineSet
41 414 m 1,0,-1
 655 414 l 1,1,-1
 655 324 l 1,2,-1
 41 324 l 1,3,-1
 41 414 l 1,0,-1
EndSplineSet
Validated: 1
EndChar

StartChar: emdash
Encoding: 8212 8212 201
Width: 1393
GlyphClass: 2
Flags: W
LayerCount: 3
Fore
SplineSet
41 414 m 1,0,-1
 1352 414 l 1,1,-1
 1352 324 l 1,2,-1
 41 324 l 1,3,-1
 41 414 l 1,0,-1
EndSplineSet
Validated: 1
EndChar

StartChar: quoteleft
Encoding: 8216 8216 202
Width: 291
GlyphClass: 2
Flags: W
LayerCount: 3
Fore
SplineSet
231 741 m 256,0,1
 231 709 231 709 208.5 686.5 c 128,-1,2
 186 664 186 664 154 664 c 0,3,4
 64 664 64 664 61 766 c 0,5,6
 58 895 58 895 180 948 c 1,7,-1
 209 920 l 1,8,9
 119 885 119 885 119 811 c 1,10,11
 133 819 133 819 154 819 c 0,12,13
 186 819 186 819 208.5 796 c 128,-1,14
 231 773 231 773 231 741 c 256,0,1
EndSplineSet
Validated: 33
EndChar

StartChar: quoteright
Encoding: 8217 8217 203
Width: 291
GlyphClass: 2
Flags: W
LayerCount: 3
Fore
SplineSet
231 846 m 0,0,1
 235 716 235 716 113 664 c 1,2,-1
 84 692 l 1,3,4
 174 726 174 726 174 801 c 1,5,6
 160 793 160 793 139 793 c 0,7,8
 107 793 107 793 84 815.5 c 128,-1,9
 61 838 61 838 61 870 c 256,10,11
 61 902 61 902 84 925 c 128,-1,12
 107 948 107 948 139 948 c 0,13,14
 228 948 228 948 231 846 c 0,0,1
EndSplineSet
Validated: 33
EndChar

StartChar: quotedblleft
Encoding: 8220 8220 204
Width: 516
GlyphClass: 2
Flags: W
LayerCount: 3
Fore
SplineSet
455 741 m 256,0,1
 455 709 455 709 432 686.5 c 128,-1,2
 409 664 409 664 377 664 c 0,3,4
 288 664 288 664 285 766 c 0,5,6
 282 896 282 896 403 948 c 1,7,-1
 432 920 l 1,8,9
 342 885 342 885 342 811 c 1,10,11
 356 819 356 819 377 819 c 0,12,13
 409 819 409 819 432 796 c 128,-1,14
 455 773 455 773 455 741 c 256,0,1
229 741 m 256,15,16
 229 709 229 709 206.5 686.5 c 128,-1,17
 184 664 184 664 152 664 c 0,18,19
 62 664 62 664 59 766 c 0,20,21
 56 895 56 895 178 948 c 1,22,-1
 207 920 l 1,23,24
 117 885 117 885 117 811 c 1,25,26
 131 819 131 819 152 819 c 0,27,28
 184 819 184 819 206.5 796 c 128,-1,29
 229 773 229 773 229 741 c 256,15,16
EndSplineSet
Validated: 33
EndChar

StartChar: quotedblright
Encoding: 8221 8221 205
Width: 516
GlyphClass: 2
Flags: W
LayerCount: 3
Fore
SplineSet
457 846 m 0,0,1
 460 715 460 715 338 664 c 1,2,-1
 309 692 l 1,3,4
 399 726 399 726 399 801 c 1,5,6
 385 793 385 793 365 793 c 0,7,8
 333 793 333 793 310 815.5 c 128,-1,9
 287 838 287 838 287 870 c 256,10,11
 287 902 287 902 310 925 c 128,-1,12
 333 948 333 948 365 948 c 0,13,14
 454 948 454 948 457 846 c 0,0,1
231 846 m 0,15,16
 235 716 235 716 113 664 c 1,17,-1
 84 692 l 1,18,19
 174 726 174 726 174 801 c 1,20,21
 160 793 160 793 139 793 c 0,22,23
 107 793 107 793 84 815.5 c 128,-1,24
 61 838 61 838 61 870 c 256,25,26
 61 902 61 902 84 925 c 128,-1,27
 107 948 107 948 139 948 c 0,28,29
 228 948 228 948 231 846 c 0,15,16
EndSplineSet
Validated: 33
EndChar

StartChar: bullet
Encoding: 8226 8226 206
Width: 737
GlyphClass: 2
Flags: W
LayerCount: 3
Fore
SplineSet
676 410 m 0,0,1
 676 283 676 283 586 193 c 0,2,3
 495 102 495 102 369 102 c 0,4,5
 240 102 240 102 152 193 c 1,6,7
 61 281 61 281 61 410 c 0,8,9
 61 536 61 536 152 627 c 0,10,11
 242 717 242 717 369 717 c 0,12,13
 494 717 494 717 586 627 c 0,14,15
 676 535 676 535 676 410 c 0,0,1
EndSplineSet
Validated: 1
EndChar

StartChar: ellipsis
Encoding: 8230 8230 207
Width: 922
GlyphClass: 2
Flags: W
LayerCount: 3
Fore
SplineSet
840 72 m 256,0,1
 840 43 840 43 818.5 21.5 c 128,-1,2
 797 0 797 0 768 0 c 256,3,4
 739 0 739 0 717.5 21.5 c 128,-1,5
 696 43 696 43 696 72 c 256,6,7
 696 101 696 101 717.5 122 c 128,-1,8
 739 143 739 143 768 143 c 256,9,10
 797 143 797 143 818.5 122 c 128,-1,11
 840 101 840 101 840 72 c 256,0,1
532 72 m 256,12,13
 532 43 532 43 511 21.5 c 128,-1,14
 490 0 490 0 461 0 c 256,15,16
 432 0 432 0 410.5 21.5 c 128,-1,17
 389 43 389 43 389 72 c 256,18,19
 389 101 389 101 410.5 122 c 128,-1,20
 432 143 432 143 461 143 c 256,21,22
 490 143 490 143 511 122 c 128,-1,23
 532 101 532 101 532 72 c 256,12,13
225 72 m 256,24,25
 225 43 225 43 204 21.5 c 128,-1,26
 183 0 183 0 154 0 c 256,27,28
 125 0 125 0 103.5 21.5 c 128,-1,29
 82 43 82 43 82 72 c 256,30,31
 82 101 82 101 103.5 122 c 128,-1,32
 125 143 125 143 154 143 c 256,33,34
 183 143 183 143 204 122 c 128,-1,35
 225 101 225 101 225 72 c 256,24,25
EndSplineSet
Validated: 1
EndChar

StartChar: thothannobasethai
Encoding: 63232 63232 208
Width: 694
GlyphClass: 2
Flags: W
LayerCount: 3
Fore
SplineSet
682 881 m 1,0,1
 673 760 673 760 537 735 c 1,2,3
 633 627 633 627 633 436 c 0,4,5
 633 237 633 237 545 119 c 0,6,7
 456 0 456 0 330 0 c 2,8,-1
 203 0 l 1,9,-1
 129 375 l 2,10,11
 120 429 120 429 45 432 c 1,12,-1
 133 516 l 1,13,14
 212 516 212 516 227 440 c 2,15,-1
 299 82 l 1,16,17
 387 88 387 88 446 166 c 0,18,19
 482 211 482 211 500 274.5 c 128,-1,20
 518 338 518 338 520 420 c 0,21,22
 522 490 522 490 508 550.5 c 128,-1,23
 494 611 494 611 466 654.5 c 128,-1,24
 438 698 438 698 396.5 723 c 128,-1,25
 355 748 355 748 303 748 c 0,26,27
 229 748 229 748 174 702 c 0,28,29
 128 666 128 666 113 614 c 1,30,-1
 -10 614 l 1,31,32
 17 703 17 703 94 762 c 0,33,34
 182 829 182 829 311 829 c 0,35,36
 349 829 349 829 408 811 c 0,37,38
 465 793 465 793 492 793 c 0,39,40
 507 793 507 793 520 800 c 128,-1,41
 533 807 533 807 541.5 819 c 128,-1,42
 550 831 550 831 553.5 847 c 128,-1,43
 557 863 557 863 553 881 c 1,44,-1
 682 881 l 1,45,-1
 682 881 l 1,0,1
EndSplineSet
Validated: 37
EndChar

StartChar: saraileftthai
Encoding: 63233 63233 209
Width: 0
GlyphClass: 2
Flags: W
LayerCount: 3
Fore
SplineSet
-750 993 m 1,0,-1
 -244 993 l 1,1,-1
 -244 911 l 1,2,-1
 -750 911 l 1,3,-1
 -750 993 l 1,0,-1
EndSplineSet
Validated: 1
EndChar

StartChar: saraiileftthai
Encoding: 63234 63234 210
Width: 0
GlyphClass: 2
Flags: W
LayerCount: 3
Fore
SplineSet
-750 993 m 1,0,-1
 -352 993 l 1,1,-1
 -352 1116 l 1,2,-1
 -244 1116 l 1,3,-1
 -244 911 l 1,4,-1
 -750 911 l 1,5,-1
 -750 993 l 1,0,-1
EndSplineSet
Validated: 1
EndChar

StartChar: saraueleftthai
Encoding: 63235 63235 211
Width: 0
GlyphClass: 2
Flags: W
LayerCount: 3
Fore
SplineSet
-201 1020 m 0,0,1
 -201 997 -201 997 -209.5 977.5 c 128,-1,2
 -218 958 -218 958 -233.5 943 c 128,-1,3
 -249 928 -249 928 -270 919.5 c 128,-1,4
 -291 911 -291 911 -315 911 c 2,5,-1
 -756 911 l 1,6,-1
 -756 993 l 1,7,-1
 -426 993 l 1,8,9
 -430 1008 -430 1008 -430 1020 c 0,10,11
 -430 1042 -430 1042 -421 1061.5 c 128,-1,12
 -412 1081 -412 1081 -396.5 1096 c 128,-1,13
 -381 1111 -381 1111 -360 1119.5 c 128,-1,14
 -339 1128 -339 1128 -315 1128 c 256,15,16
 -291 1128 -291 1128 -270.5 1119.5 c 128,-1,17
 -250 1111 -250 1111 -234.5 1096 c 128,-1,18
 -219 1081 -219 1081 -210 1061.5 c 128,-1,19
 -201 1042 -201 1042 -201 1020 c 0,0,1
-266 1020 m 256,20,21
 -266 1067 -266 1067 -315 1067 c 0,22,23
 -365 1067 -365 1067 -365 1020 c 256,24,25
 -365 973 -365 973 -315 973 c 0,26,27
 -266 973 -266 973 -266 1020 c 256,20,21
EndSplineSet
Validated: 1
EndChar

StartChar: saraueeleftthai
Encoding: 63236 63236 212
Width: 0
GlyphClass: 2
Flags: W
LayerCount: 3
Fore
SplineSet
-750 993 m 1,0,-1
 -502 993 l 1,1,-1
 -502 1116 l 1,2,-1
 -416 1116 l 1,3,-1
 -416 993 l 1,4,-1
 -352 993 l 1,5,-1
 -352 1116 l 1,6,-1
 -244 1116 l 1,7,-1
 -244 911 l 1,8,-1
 -750 911 l 1,9,-1
 -750 993 l 1,0,-1
EndSplineSet
Validated: 1
EndChar

StartChar: maieklowleftthai
Encoding: 63237 63237 213
Width: 0
GlyphClass: 2
Flags: W
LayerCount: 3
Fore
SplineSet
-395 1116 m 1,0,-1
 -287 1116 l 1,1,-1
 -287 911 l 1,2,-1
 -395 911 l 1,3,-1
 -395 1116 l 1,0,-1
EndSplineSet
Validated: 1
Substitution2: "Single Substitution lookup 26 subtable" maiekupperleftthai
Substitution2: "Single Substitution lookup 25 subtable" maiekupperleftthai
Substitution2: "Single Substitution lookup 24 subtable" maiekupperleftthai
Substitution2: "Single Substitution lookup 23 subtable" maiekupperleftthai
Substitution2: "Single Substitution lookup 18 subtable" maiekupperleftthai
Substitution2: "Single Substitution lookup 17 subtable" maiekupperleftthai
Substitution2: "Single Substitution lookup 15 subtable" maiekupperleftthai
Substitution2: "Single Substitution lookup 14 subtable" maiekupperleftthai
Substitution2: "Single Substitution lookup 13 subtable" maiekupperleftthai
Substitution2: "Single Substitution lookup 12 subtable" maiekupperleftthai
Substitution2: "Single Substitution lookup 10 subtable" maiekupperleftthai
Substitution2: "Single Substitution lookup 9 subtable" maiekupperleftthai
Substitution2: "Single Substitution lookup 8 subtable" maiekupperleftthai
Substitution2: "Single Substitution lookup 7 subtable" maiekupperleftthai
Substitution2: "Single Substitution lookup 4 subtable" maiekupperleftthai
Substitution2: "Single Substitution lookup 3 subtable" maiekupperleftthai
Substitution2: "Single Substitution lookup 2 subtable" maiekupperleftthai
Substitution2: "Single Substitution lookup 1 subtable" maiekupperleftthai
Substitution2: "Single Substitution lookup 0 subtable" maiekupperleftthai
EndChar

StartChar: maitholowleftthai
Encoding: 63238 63238 214
Width: 0
GlyphClass: 2
Flags: W
LayerCount: 3
Fore
SplineSet
-467 948 m 2,0,1
 -467 994 -467 994 -500 1008 c 0,2,3
 -515 1014 -515 1014 -571 1014 c 1,4,-1
 -524 1102 l 1,5,-1
 -465 1102 l 2,6,7
 -354 1102 -354 1102 -354 1012 c 2,8,-1
 -354 993 l 1,9,-1
 -96 993 l 1,10,-1
 -96 911 l 1,11,-1
 -467 911 l 1,12,-1
 -467 948 l 2,0,1
EndSplineSet
Validated: 1
Substitution2: "Single Substitution lookup 26 subtable" maithoupperleftthai
Substitution2: "Single Substitution lookup 25 subtable" maithoupperleftthai
Substitution2: "Single Substitution lookup 24 subtable" maithoupperleftthai
Substitution2: "Single Substitution lookup 23 subtable" maithoupperleftthai
Substitution2: "Single Substitution lookup 18 subtable" maithoupperleftthai
Substitution2: "Single Substitution lookup 17 subtable" maithoupperleftthai
Substitution2: "Single Substitution lookup 15 subtable" maithoupperleftthai
Substitution2: "Single Substitution lookup 14 subtable" maithoupperleftthai
Substitution2: "Single Substitution lookup 13 subtable" maithoupperleftthai
Substitution2: "Single Substitution lookup 12 subtable" maithoupperleftthai
Substitution2: "Single Substitution lookup 10 subtable" maithoupperleftthai
Substitution2: "Single Substitution lookup 9 subtable" maithoupperleftthai
Substitution2: "Single Substitution lookup 8 subtable" maithoupperleftthai
Substitution2: "Single Substitution lookup 7 subtable" maithoupperleftthai
Substitution2: "Single Substitution lookup 4 subtable" maithoupperleftthai
Substitution2: "Single Substitution lookup 3 subtable" maithoupperleftthai
Substitution2: "Single Substitution lookup 2 subtable" maithoupperleftthai
Substitution2: "Single Substitution lookup 1 subtable" maithoupperleftthai
Substitution2: "Single Substitution lookup 0 subtable" maithoupperleftthai
EndChar

StartChar: maitrilowleftthai
Encoding: 63239 63239 215
Width: 0
GlyphClass: 2
Flags: W
LayerCount: 3
Fore
SplineSet
-100 1135 m 1,0,1
 -94 1112 -94 1112 -94 1090 c 0,2,3
 -94 1058 -94 1058 -106.5 1028.5 c 128,-1,4
 -119 999 -119 999 -140.5 975 c 128,-1,5
 -162 951 -162 951 -191 934 c 128,-1,6
 -220 917 -220 917 -254 911 c 1,7,-1
 -319 911 l 1,8,-1
 -319 958 l 2,9,10
 -319 1011 -319 1011 -354 1014 c 1,11,12
 -355 1004 -355 1004 -362.5 994.5 c 128,-1,13
 -370 985 -370 985 -381.5 977.5 c 128,-1,14
 -393 970 -393 970 -408 965.5 c 128,-1,15
 -423 961 -423 961 -438 961 c 256,16,17
 -453 961 -453 961 -467.5 965.5 c 128,-1,18
 -482 970 -482 970 -493.5 977.5 c 128,-1,19
 -505 985 -505 985 -513 994.5 c 128,-1,20
 -521 1004 -521 1004 -524 1014 c 1,21,22
 -557 1011 -557 1011 -557 958 c 2,23,-1
 -557 911 l 1,24,-1
 -653 911 l 1,25,-1
 -653 969 l 2,26,27
 -653 1096 -653 1096 -518 1096 c 1,28,29
 -518 1083 -518 1083 -511.5 1071.5 c 128,-1,30
 -505 1060 -505 1060 -493.5 1052 c 128,-1,31
 -482 1044 -482 1044 -467.5 1039 c 128,-1,32
 -453 1034 -453 1034 -438 1034 c 256,33,34
 -423 1034 -423 1034 -408.5 1039 c 128,-1,35
 -394 1044 -394 1044 -382.5 1052 c 128,-1,36
 -371 1060 -371 1060 -364.5 1071.5 c 128,-1,37
 -358 1083 -358 1083 -358 1096 c 1,38,39
 -223 1096 -223 1096 -223 969 c 1,40,41
 -188 995 -188 995 -188 1065 c 0,42,43
 -188 1103 -188 1103 -205 1135 c 1,44,-1
 -100 1135 l 1,45,-1
 -100 1135 l 1,0,1
EndSplineSet
Validated: 5
Substitution2: "Single Substitution lookup 26 subtable" maitriupperleftthai
Substitution2: "Single Substitution lookup 25 subtable" maitriupperleftthai
Substitution2: "Single Substitution lookup 24 subtable" maitriupperleftthai
Substitution2: "Single Substitution lookup 23 subtable" maitriupperleftthai
Substitution2: "Single Substitution lookup 18 subtable" maitriupperleftthai
Substitution2: "Single Substitution lookup 17 subtable" maitriupperleftthai
Substitution2: "Single Substitution lookup 15 subtable" maitriupperleftthai
Substitution2: "Single Substitution lookup 14 subtable" maitriupperleftthai
Substitution2: "Single Substitution lookup 13 subtable" maitriupperleftthai
Substitution2: "Single Substitution lookup 12 subtable" maitriupperleftthai
Substitution2: "Single Substitution lookup 10 subtable" maitriupperleftthai
Substitution2: "Single Substitution lookup 9 subtable" maitriupperleftthai
Substitution2: "Single Substitution lookup 8 subtable" maitriupperleftthai
Substitution2: "Single Substitution lookup 7 subtable" maitriupperleftthai
Substitution2: "Single Substitution lookup 4 subtable" maitriupperleftthai
Substitution2: "Single Substitution lookup 3 subtable" maitriupperleftthai
Substitution2: "Single Substitution lookup 2 subtable" maitriupperleftthai
Substitution2: "Single Substitution lookup 1 subtable" maitriupperleftthai
Substitution2: "Single Substitution lookup 0 subtable" maitriupperleftthai
EndChar

StartChar: maichattawalowleftthai
Encoding: 63240 63240 216
Width: 0
GlyphClass: 2
Flags: W
LayerCount: 3
Fore
SplineSet
-330 911 m 1,0,-1
 -438 911 l 1,1,-1
 -438 983 l 1,2,-1
 -535 983 l 1,3,-1
 -535 1055 l 1,4,-1
 -438 1055 l 1,5,-1
 -438 1126 l 1,6,-1
 -330 1126 l 1,7,-1
 -330 1055 l 1,8,-1
 -233 1055 l 1,9,-1
 -233 983 l 1,10,-1
 -330 983 l 1,11,-1
 -330 911 l 1,0,-1
EndSplineSet
Validated: 1
Substitution2: "Single Substitution lookup 26 subtable" maichattawaupperleftthai
Substitution2: "Single Substitution lookup 25 subtable" maichattawaupperleftthai
Substitution2: "Single Substitution lookup 24 subtable" maichattawaupperleftthai
Substitution2: "Single Substitution lookup 23 subtable" maichattawaupperleftthai
Substitution2: "Single Substitution lookup 18 subtable" maichattawaupperleftthai
Substitution2: "Single Substitution lookup 17 subtable" maichattawaupperleftthai
Substitution2: "Single Substitution lookup 15 subtable" maichattawaupperleftthai
Substitution2: "Single Substitution lookup 14 subtable" maichattawaupperleftthai
Substitution2: "Single Substitution lookup 13 subtable" maichattawaupperleftthai
Substitution2: "Single Substitution lookup 12 subtable" maichattawaupperleftthai
Substitution2: "Single Substitution lookup 10 subtable" maichattawaupperleftthai
Substitution2: "Single Substitution lookup 9 subtable" maichattawaupperleftthai
Substitution2: "Single Substitution lookup 8 subtable" maichattawaupperleftthai
Substitution2: "Single Substitution lookup 7 subtable" maichattawaupperleftthai
Substitution2: "Single Substitution lookup 4 subtable" maichattawaupperleftthai
Substitution2: "Single Substitution lookup 3 subtable" maichattawaupperleftthai
Substitution2: "Single Substitution lookup 2 subtable" maichattawaupperleftthai
Substitution2: "Single Substitution lookup 1 subtable" maichattawaupperleftthai
Substitution2: "Single Substitution lookup 0 subtable" maichattawaupperleftthai
EndChar

